  0
SECTION
  2
HEADER
  9
$ACADVER
  1
AC1015
  9
$ACADMAINTVER
 70
     6
  9
$DWGCODEPAGE
  3
DOS932
  9
$INSBASE
 10
0.0
 20
0.0
 30
0.0
  9
$EXTMIN
 10
0.0
 20
0.0
 30
0.0
  9
$EXTMAX
 10
210.0
 20
297.0
 30
0.0
  9
$LIMMIN
 10
0.0
 20
0.0
  9
$LIMMAX
 10
210.0
 20
297.0
  9
$ORTHOMODE
 70
     0
  9
$REGENMODE
 70
     1
  9
$FILLMODE
 70
     1
  9
$QTEXTMODE
 70
     0
  9
$MIRRTEXT
 70
     1
  9
$LTSCALE
 40
1.0
  9
$ATTMODE
 70
     1
  9
$TEXTSIZE
 40
3.5
  9
$TRACEWID
 40
1.0
  9
$TEXTSTYLE
  7
Standard
  9
$CLAYER
  8
0
  9
$CELTYPE
  6
ByLayer
  9
$CECOLOR
 62
   256
  9
$CELTSCALE
 40
1.0
  9
$DISPSILH
 70
     0
  9
$DIMSCALE
 40
1.0
  9
$DIMASZ
 40
3.302
  9
$DIMEXO
 40
1.0
  9
$DIMDLI
 40
3.75
  9
$DIMRND
 40
0.0
  9
$DIMDLE
 40
0.0
  9
$DIMEXE
 40
1.0
  9
$DIMTP
 40
0.0
  9
$DIMTM
 40
0.0
  9
$DIMTXT
 40
3.5
  9
$DIMCEN
 40
2.5
  9
$DIMTSZ
 40
0.0
  9
$DIMTOL
 70
     0
  9
$DIMLIM
 70
     0
  9
$DIMTIH
 70
     1
  9
$DIMTOH
 70
     1
  9
$DIMSE1
 70
     0
  9
$DIMSE2
 70
     0
  9
$DIMTAD
 70
     1
  9
$DIMZIN
 70
     0
  9
$DIMBLK
  1

  9
$DIMASO
 70
     1
  9
$DIMSHO
 70
     1
  9
$DIMPOST
  1

  9
$DIMAPOST
  1

  9
$DIMALT
 70
     0
  9
$DIMALTD
 70
     3
  9
$DIMALTF
 40
0.0393700787
  9
$DIMLFAC
 40
2.0
  9
$DIMTOFL
 70
     1
  9
$DIMTVP
 40
0.0
  9
$DIMTIX
 70
     0
  9
$DIMSOXD
 70
     0
  9
$DIMSAH
 70
     0
  9
$DIMBLK1
  1

  9
$DIMBLK2
  1

  9
$DIMSTYLE
  2
ISO-25
  9
$DIMCLRD
 70
     0
  9
$DIMCLRE
 70
     0
  9
$DIMCLRT
 70
     0
  9
$DIMTFAC
 40
1.0
  9
$DIMGAP
 40
1.524
  9
$DIMJUST
 70
     0
  9
$DIMSD1
 70
     0
  9
$DIMSD2
 70
     0
  9
$DIMTOLJ
 70
     0
  9
$DIMTZIN
 70
     0
  9
$DIMALTZ
 70
     0
  9
$DIMALTTZ
 70
     0
  9
$DIMUPT
 70
     0
  9
$DIMDEC
 70
     2
  9
$DIMTDEC
 70
     2
  9
$DIMALTU
 70
     2
  9
$DIMALTTD
 70
     3
  9
$DIMTXSTY
  7
Standard
  9
$DIMAUNIT
 70
     0
  9
$DIMADEC
 70
     2
  9
$DIMALTRND
 40
0.0
  9
$DIMAZIN
 70
     0
  9
$DIMDSEP
 70
    44
  9
$DIMATFIT
 70
     3
  9
$DIMFRAC
 70
     0
  9
$DIMLDRBLK
  1

  9
$DIMLUNIT
 70
     2
  9
$DIMLWD
 70
    -2
  9
$DIMLWE
 70
    -2
  9
$DIMTMOVE
 70
     0
  9
$LUNITS
 70
     2
  9
$LUPREC
 70
     5
  9
$SKETCHINC
 40
1.0
  9
$FILLETRAD
 40
10.0
  9
$AUNITS
 70
     0
  9
$AUPREC
 70
     2
  9
$MENU
  1
.
  9
$ELEVATION
 40
0.0
  9
$PELEVATION
 40
0.0
  9
$THICKNESS
 40
0.0
  9
$LIMCHECK
 70
     0
  9
$CHAMFERA
 40
0.0
  9
$CHAMFERB
 40
0.0
  9
$CHAMFERC
 40
0.0
  9
$CHAMFERD
 40
0.0
  9
$SKPOLY
 70
     0
  9
$TDCREATE
 40
2458327.530906296
  9
$TDUCREATE
 40
2458327.155906296
  9
$TDUPDATE
 40
2458327.530910509
  9
$TDUUPDATE
 40
2458327.155910509
  9
$TDINDWG
 40
0.0000000116
  9
$TDUSRTIMER
 40
0.0000000116
  9
$USRTIMER
 70
     1
  9
$ANGBASE
 50
0.0
  9
$ANGDIR
 70
     0
  9
$PDMODE
 70
     0
  9
$PDSIZE
 40
-1.0
  9
$PLINEWID
 40
0.0
  9
$SPLFRAME
 70
     0
  9
$SPLINETYPE
 70
     6
  9
$SPLINESEGS
 70
     8
  9
$HANDSEED
  5
31D
  9
$SURFTAB1
 70
     6
  9
$SURFTAB2
 70
     6
  9
$SURFTYPE
 70
     6
  9
$SURFU
 70
     6
  9
$SURFV
 70
     6
  9
$UCSBASE
  2

  9
$UCSNAME
  2

  9
$UCSORG
 10
0.0
 20
0.0
 30
0.0
  9
$UCSXDIR
 10
1.0
 20
0.0
 30
0.0
  9
$UCSYDIR
 10
0.0
 20
1.0
 30
0.0
  9
$UCSORTHOREF
  2

  9
$UCSORTHOVIEW
 70
     0
  9
$UCSORGTOP
 10
0.0
 20
0.0
 30
0.0
  9
$UCSORGBOTTOM
 10
0.0
 20
0.0
 30
0.0
  9
$UCSORGLEFT
 10
0.0
 20
0.0
 30
0.0
  9
$UCSORGRIGHT
 10
0.0
 20
0.0
 30
0.0
  9
$UCSORGFRONT
 10
0.0
 20
0.0
 30
0.0
  9
$UCSORGBACK
 10
0.0
 20
0.0
 30
0.0
  9
$PUCSBASE
  2

  9
$PUCSNAME
  2

  9
$PUCSORG
 10
0.0
 20
0.0
 30
0.0
  9
$PUCSXDIR
 10
1.0
 20
0.0
 30
0.0
  9
$PUCSYDIR
 10
0.0
 20
1.0
 30
0.0
  9
$PUCSORTHOREF
  2

  9
$PUCSORTHOVIEW
 70
     0
  9
$PUCSORGTOP
 10
0.0
 20
0.0
 30
0.0
  9
$PUCSORGBOTTOM
 10
0.0
 20
0.0
 30
0.0
  9
$PUCSORGLEFT
 10
0.0
 20
0.0
 30
0.0
  9
$PUCSORGRIGHT
 10
0.0
 20
0.0
 30
0.0
  9
$PUCSORGFRONT
 10
0.0
 20
0.0
 30
0.0
  9
$PUCSORGBACK
 10
0.0
 20
0.0
 30
0.0
  9
$USERI1
 70
     0
  9
$USERI2
 70
     0
  9
$USERI3
 70
     0
  9
$USERI4
 70
     0
  9
$USERI5
 70
     0
  9
$USERR1
 40
0.0
  9
$USERR2
 40
0.0
  9
$USERR3
 40
0.0
  9
$USERR4
 40
0.0
  9
$USERR5
 40
0.0
  9
$WORLDVIEW
 70
     1
  9
$SHADEDGE
 70
     3
  9
$SHADEDIF
 70
    70
  9
$TILEMODE
 70
     1
  9
$MAXACTVP
 70
    64
  9
$PINSBASE
 10
0.0
 20
0.0
 30
0.0
  9
$PLIMCHECK
 70
     0
  9
$PEXTMIN
 10
1.0000000000E+20
 20
1.0000000000E+20
 30
1.0000000000E+20
  9
$PEXTMAX
 10
-1.0000000000E+20
 20
-1.0000000000E+20
 30
-1.0000000000E+20
  9
$PLIMMIN
 10
0.0
 20
0.0
  9
$PLIMMAX
 10
420.0
 20
297.0
  9
$UNITMODE
 70
     0
  9
$VISRETAIN
 70
     1
  9
$PLINEGEN
 70
     0
  9
$PSLTSCALE
 70
     1
  9
$TREEDEPTH
 70
  3020
  9
$CMLSTYLE
  2
Standard
  9
$CMLJUST
 70
     0
  9
$CMLSCALE
 40
20.0
  9
$PROXYGRAPHICS
 70
     1
  9
$MEASUREMENT
 70
     1
  9
$CELWEIGHT
370
    -1
  9
$ENDCAPS
280
     0
  9
$JOINSTYLE
280
     0
  9
$LWDISPLAY
290
     1
  9
$INSUNITS
 70
     4
  9
$HYPERLINKBASE
  1

  9
$STYLESHEET
  1

  9
$XEDIT
290
     1
  9
$CEPSNTYPE
380
     0
  9
$PSTYLEMODE
290
     1
  9
$FINGERPRINTGUID
  2
{F0A07EEF-E08E-4649-B6B5-3A5659C277E0}
  9
$VERSIONGUID
  2
{FAEB1C32-E019-11D5-929B-00C0DF256EC4}
  9
$EXTNAMES
290
     1
  9
$PSVPSCALE
 40
0.0
  9
$OLESTARTUP
290
     0
  0
ENDSEC
  0
SECTION
  2
CLASSES
  0
CLASS
  1
ACDBDICTIONARYWDFLT
  2
AcDbDictionaryWithDefault
  3
ObjectDBX Classes
 90
        0
280
     0
281
     0
  0
CLASS
  1
VISUALSTYLE
  2
AcDbVisualStyle
  3
ObjectDBX Classes
 90
     4095
280
     0
281
     0
  0
CLASS
  1
MATERIAL
  2
AcDbMaterial
  3
ObjectDBX Classes
 90
     1153
280
     0
281
     0
  0
CLASS
  1
SCALE
  2
AcDbScale
  3
ObjectDBX Classes
 90
     1153
280
     0
281
     0
  0
CLASS
  1
TABLESTYLE
  2
AcDbTableStyle
  3
ObjectDBX Classes
 90
     4095
280
     0
281
     0
  0
CLASS
  1
MLEADERSTYLE
  2
AcDbMLeaderStyle
  3
ACDB_MLEADERSTYLE_CLASS
 90
     4095
280
     0
281
     0
  0
CLASS
  1
SUN
  2
AcDbSun
  3
SCENEOE
 90
     1153
280
     0
281
     0
  0
CLASS
  1
ACDBPLACEHOLDER
  2
AcDbPlaceHolder
  3
ObjectDBX Classes
 90
        0
280
     0
281
     0
  0
CLASS
  1
LAYOUT
  2
AcDbLayout
  3
ObjectDBX Classes
 90
        0
280
     0
281
     0
  0
ENDSEC
  0
SECTION
  2
TABLES
  0
TABLE
  2
VPORT
  5
8
330
0
100
AcDbSymbolTable
 70
     1
  0
VPORT
  5
29
330
8
100
AcDbSymbolTableRecord
100
AcDbViewportTableRecord
  2
*Active
 70
     0
 10
0.0
 20
0.0
 11
1.0
 21
1.0
 12
105.0
 22
148.5
 13
0.0
 23
0.0
 14
10.0
 24
10.0
 15
10.0
 25
10.0
 16
0.0
 26
0.0
 36
1.0
 17
0.0
 27
0.0
 37
0.0
 40
297.0
 41
0.7070707071
 42
50.0
 43
0.0
 44
0.0
 50
0.0
 51
0.0
 71
     0
 72
  2000
 73
     1
 74
     3
 75
     0
 76
     0
 77
     0
 78
     0
281
     0
 65
     1
110
0.0
120
0.0
130
0.0
111
1.0
121
0.0
131
0.0
112
0.0
122
1.0
132
0.0
 79
     0
146
0.0
  0
ENDTAB
  0
TABLE
  2
LTYPE
  5
5
330
0
100
AcDbSymbolTable
 70
     6
  0
LTYPE
  5
14
330
5
100
AcDbSymbolTableRecord
100
AcDbLinetypeTableRecord
  2
ByBlock
 70
     0
  3

 72
    65
 73
     0
 40
0.0
  0
LTYPE
  5
15
330
5
100
AcDbSymbolTableRecord
100
AcDbLinetypeTableRecord
  2
ByLayer
 70
     0
  3

 72
    65
 73
     0
 40
0.0
  0
LTYPE
  5
16
330
5
100
AcDbSymbolTableRecord
100
AcDbLinetypeTableRecord
  2
Continuous
 70
     0
  3
Solid line
 72
    65
 73
     0
 40
0.0
  0
LTYPE
  5
6E
330
5
100
AcDbSymbolTableRecord
100
AcDbLinetypeTableRecord
  2
HIDDEN
 70
     0
  3
Hidden __ __ __ __ __ __ __ __ __ __ __ __ __ __
 72
    65
 73
     2
 40
1.905
 49
1.27
 74
     0
 49
-0.635
 74
     0
  0
LTYPE
  5
6F
330
5
100
AcDbSymbolTableRecord
100
AcDbLinetypeTableRecord
  2
PHANTOM
 70
     0
  3
Phantom ______  __  __  ______  __  __  ______
 72
    65
 73
     6
 40
12.7
 49
6.35
 74
     0
 49
-1.27
 74
     0
 49
1.27
 74
     0
 49
-1.27
 74
     0
 49
1.27
 74
     0
 49
-1.27
 74
     0
  0
LTYPE
  5
70
330
5
100
AcDbSymbolTableRecord
100
AcDbLinetypeTableRecord
  2
CENTER
 70
     0
  3
Center ____ _ ____ _ ____ _ ____ _ ____ _ ____
 72
    65
 73
     4
 40
10.16
 49
6.35
 74
     0
 49
-1.27
 74
     0
 49
1.27
 74
     0
 49
-1.27
 74
     0
  0
LTYPE
  5
71
330
5
100
AcDbSymbolTableRecord
100
AcDbLinetypeTableRecord
  2
CENTERX2
 70
     0
  3
Center (2x) ________  __  ________  __  _____
 72
    65
 73
     4
 40
20.32
 49
12.7
 74
     0
 49
-2.54
 74
     0
 49
2.54
 74
     0
 49
-2.54
 74
     0
  0
LTYPE
  5
72
330
5
100
AcDbSymbolTableRecord
100
AcDbLinetypeTableRecord
  2
DOT2
 70
     0
  3
Dot (.5x) ........................................
 72
    65
 73
     2
 40
0.635
 49
0.0
 74
     0
 49
-0.635
 74
     0
  0
ENDTAB
  0
TABLE
  2
LAYER
  5
2
330
0
100
AcDbSymbolTable
 70
     2
  0
LAYER
  5
10
330
2
100
AcDbSymbolTableRecord
100
AcDbLayerTableRecord
  2
0
 70
     0
 62
     7
  6
Continuous
370
    -3
390
F
  0
LAYER
  5
73
330
2
100
AcDbSymbolTableRecord
100
AcDbLayerTableRecord
  2
FORMAT
 70
     0
 62
     7
  6
Continuous
370
    -3
390
F
  0
ENDTAB
  0
TABLE
  2
STYLE
  5
3
330
0
100
AcDbSymbolTable
 70
     4
  0
STYLE
  5
11
330
3
100
AcDbSymbolTableRecord
100
AcDbTextStyleTableRecord
  2
Standard
 70
     0
 40
0.0
 41
1.0
 50
0.0
 71
     0
 42
3.5
  3
txt
  4
bigfont
  0
STYLE
  5
A9
330
3
100
AcDbSymbolTableRecord
100
AcDbTextStyleTableRecord
  2
SLDTEXTSTYLE0
 70
     0
 40
0.0
 41
0.75
 50
0.0
 71
     0
 42
3.5
  3
TXT
  4
bigfont
  0
STYLE
  5
C1
330
3
100
AcDbSymbolTableRecord
100
AcDbTextStyleTableRecord
  2
SLDTEXTSTYLE1
 70
     0
 40
0.0
 41
0.65625
 50
0.0
 71
     0
 42
3.5
  3
TXT
  4
bigfont
  0
STYLE
  5
1AF
330
3
100
AcDbSymbolTableRecord
100
AcDbTextStyleTableRecord
  2
SLDTEXTSTYLE2
 70
     0
 40
0.0
 41
0.6666666667
 50
0.0
 71
     0
 42
3.5
  3
TXT
  4
bigfont
  0
ENDTAB
  0
TABLE
  2
VIEW
  5
6
330
0
100
AcDbSymbolTable
 70
     0
  0
ENDTAB
  0
TABLE
  2
UCS
  5
7
330
0
100
AcDbSymbolTable
 70
     0
  0
ENDTAB
  0
TABLE
  2
APPID
  5
9
330
0
100
AcDbSymbolTable
 70
     1
  0
APPID
  5
12
330
9
100
AcDbSymbolTableRecord
100
AcDbRegAppTableRecord
  2
ACAD
 70
     0
  0
ENDTAB
  0
TABLE
  2
DIMSTYLE
  5
A
330
0
100
AcDbSymbolTable
 70
     8
100
AcDbDimStyleTable
  0
DIMSTYLE
105
27
330
A
100
AcDbSymbolTableRecord
100
AcDbDimStyleTableRecord
  2
ISO-25
 70
     0
 41
2.5
 42
0.625
 43
3.75
 44
1.25
 73
     0
 74
     0
 77
     1
 78
     8
140
2.5
141
2.5
143
0.0393700787
147
0.625
171
     3
172
     1
178
     0
271
     2
272
     2
274
     3
278
    44
283
     0
284
     8
340
11
  0
DIMSTYLE
105
FF
102
{ACAD_REACTORS
330
FE
330
10A
330
116
330
13B
330
147
330
2C0
330
2CC
102
}
330
A
100
AcDbSymbolTableRecord
100
AcDbDimStyleTableRecord
  2
SLDDIMSTYLE0
 70
     0
 41
3.302
 44
0.0
 45
0.000000001
 73
     0
 74
     0
 77
     1
 78
    12
 79
     3
140
3.5
144
2.0
147
0.875
172
     1
173
     1
178
     0
271
     2
272
     2
276
     2
284
    12
289
     0
340
A9
  0
DIMSTYLE
105
123
102
{ACAD_REACTORS
330
122
102
}
330
A
100
AcDbSymbolTableRecord
100
AcDbDimStyleTableRecord
  2
SLDDIMSTYLE1
 70
     0
 41
3.302
 44
0.0
 45
0.000000001
 73
     0
 74
     0
 77
     1
 78
     4
 79
     1
140
3.5
144
2.0
147
0.875
172
     1
173
     1
178
     0
271
     2
272
     2
276
     2
284
    12
289
     0
340
A9
  0
DIMSTYLE
105
130
102
{ACAD_REACTORS
330
12F
330
153
330
15D
330
172
330
186
330
1DB
330
1E5
102
}
330
A
100
AcDbSymbolTableRecord
100
AcDbDimStyleTableRecord
  2
SLDDIMSTYLE2
 70
     0
 41
3.302
 44
0.0
 45
0.000000001
 73
     0
 74
     0
 77
     1
 78
    12
 79
     3
140
3.5
144
2.0
147
0.875
173
     1
178
     0
271
     2
272
     2
276
     2
284
    12
340
A9
  0
DIMSTYLE
105
168
102
{ACAD_REACTORS
330
167
330
17C
330
190
102
}
330
A
100
AcDbSymbolTableRecord
100
AcDbDimStyleTableRecord
  2
SLDDIMSTYLE3
 70
     0
 41
3.302
 44
0.0
 45
0.000000001
 73
     0
 74
     0
 77
     1
 78
     4
 79
     1
140
3.5
144
2.0
147
0.875
173
     1
178
     0
271
     2
272
     2
276
     2
284
    12
340
A9
  0
DIMSTYLE
105
19B
102
{ACAD_REACTORS
330
19A
330
1B3
330
1BD
330
1D1
102
}
330
A
100
AcDbSymbolTableRecord
100
AcDbDimStyleTableRecord
  2
SLDDIMSTYLE4
 70
     0
 41
3.302
 44
0.0
 45
0.000000001
 73
     0
 74
     0
 77
     1
 78
    12
 79
     3
140
3.5
141
0.0
144
2.0
147
0.875
172
     1
173
     1
178
     0
271
     2
272
     2
276
     2
284
    12
340
A9
341
19C
343
19C
  0
DIMSTYLE
105
1A8
102
{ACAD_REACTORS
330
1A7
102
}
330
A
100
AcDbSymbolTableRecord
100
AcDbDimStyleTableRecord
  2
SLDDIMSTYLE5
 70
     0
 41
3.302
 44
0.0
 45
0.000000001
 73
     0
 74
     0
 77
     1
 78
     4
 79
     1
140
3.5
141
0.0
144
2.0
147
0.875
172
     1
173
     1
178
     0
271
     2
272
     2
276
     2
284
    12
340
A9
341
19C
343
19C
  0
DIMSTYLE
105
1C8
102
{ACAD_REACTORS
330
1C7
102
}
330
A
100
AcDbSymbolTableRecord
100
AcDbDimStyleTableRecord
  2
SLDDIMSTYLE6
 70
     0
 41
3.302
 44
0.0
 45
0.000000001
 73
     0
 74
     0
 77
     1
 78
    12
 79
     3
140
3.5
141
0.0
144
2.0
147
0.875
173
     1
178
     0
271
     2
272
     2
276
     2
284
    12
340
A9
  0
ENDTAB
  0
TABLE
  2
BLOCK_RECORD
  5
1
330
0
100
AcDbSymbolTable
 70
    42
  0
BLOCK_RECORD
  5
1F
330
1
100
AcDbSymbolTableRecord
100
AcDbBlockTableRecord
  2
*Model_Space
340
22
  0
BLOCK_RECORD
  5
1B
330
1
100
AcDbSymbolTableRecord
100
AcDbBlockTableRecord
  2
*Paper_Space
340
1E
  0
BLOCK_RECORD
  5
23
330
1
100
AcDbSymbolTableRecord
100
AcDbBlockTableRecord
  2
*Paper_Space0
340
26
  0
BLOCK_RECORD
  5
CE
330
1
100
AcDbSymbolTableRecord
100
AcDbBlockTableRecord
  2
SW_NOTE_0
340
0
102
{BLKREFS
331
D7
102
}
  0
BLOCK_RECORD
  5
100
330
1
100
AcDbSymbolTableRecord
100
AcDbBlockTableRecord
  2
_D
340
0
  0
BLOCK_RECORD
  5
10B
330
1
100
AcDbSymbolTableRecord
100
AcDbBlockTableRecord
  2
_D_1
340
0
  0
BLOCK_RECORD
  5
117
330
1
100
AcDbSymbolTableRecord
100
AcDbBlockTableRecord
  2
_D_2
340
0
  0
BLOCK_RECORD
  5
124
330
1
100
AcDbSymbolTableRecord
100
AcDbBlockTableRecord
  2
_D_3
340
0
  0
BLOCK_RECORD
  5
131
330
1
100
AcDbSymbolTableRecord
100
AcDbBlockTableRecord
  2
_D_4
340
0
  0
BLOCK_RECORD
  5
13C
330
1
100
AcDbSymbolTableRecord
100
AcDbBlockTableRecord
  2
_D_5
340
0
  0
BLOCK_RECORD
  5
148
330
1
100
AcDbSymbolTableRecord
100
AcDbBlockTableRecord
  2
_D_6
340
0
  0
BLOCK_RECORD
  5
154
330
1
100
AcDbSymbolTableRecord
100
AcDbBlockTableRecord
  2
_D_7
340
0
  0
BLOCK_RECORD
  5
15E
330
1
100
AcDbSymbolTableRecord
100
AcDbBlockTableRecord
  2
_D_8
340
0
  0
BLOCK_RECORD
  5
169
330
1
100
AcDbSymbolTableRecord
100
AcDbBlockTableRecord
  2
_D_9
340
0
  0
BLOCK_RECORD
  5
173
330
1
100
AcDbSymbolTableRecord
100
AcDbBlockTableRecord
  2
_D_10
340
0
  0
BLOCK_RECORD
  5
17D
330
1
100
AcDbSymbolTableRecord
100
AcDbBlockTableRecord
  2
_D_11
340
0
  0
BLOCK_RECORD
  5
187
330
1
100
AcDbSymbolTableRecord
100
AcDbBlockTableRecord
  2
_D_12
340
0
  0
BLOCK_RECORD
  5
191
330
1
100
AcDbSymbolTableRecord
100
AcDbBlockTableRecord
  2
_D_13
340
0
  0
BLOCK_RECORD
  5
19C
330
1
100
AcDbSymbolTableRecord
100
AcDbBlockTableRecord
  2
_NONE
340
0
  0
BLOCK_RECORD
  5
19F
330
1
100
AcDbSymbolTableRecord
100
AcDbBlockTableRecord
  2
_D_14
340
0
  0
BLOCK_RECORD
  5
1A9
330
1
100
AcDbSymbolTableRecord
100
AcDbBlockTableRecord
  2
_D_15
340
0
  0
BLOCK_RECORD
  5
1B4
330
1
100
AcDbSymbolTableRecord
100
AcDbBlockTableRecord
  2
_D_16
340
0
  0
BLOCK_RECORD
  5
1BE
330
1
100
AcDbSymbolTableRecord
100
AcDbBlockTableRecord
  2
_D_17
340
0
  0
BLOCK_RECORD
  5
1C9
330
1
100
AcDbSymbolTableRecord
100
AcDbBlockTableRecord
  2
_D_18
340
0
  0
BLOCK_RECORD
  5
1D2
330
1
100
AcDbSymbolTableRecord
100
AcDbBlockTableRecord
  2
_D_19
340
0
  0
BLOCK_RECORD
  5
1DC
330
1
100
AcDbSymbolTableRecord
100
AcDbBlockTableRecord
  2
_D_20
340
0
  0
BLOCK_RECORD
  5
1E6
330
1
100
AcDbSymbolTableRecord
100
AcDbBlockTableRecord
  2
_D_21
340
0
  0
BLOCK_RECORD
  5
1EF
330
1
100
AcDbSymbolTableRecord
100
AcDbBlockTableRecord
  2
SW_CENTERMARKSYMBOL_0
340
0
102
{BLKREFS
331
1FA
102
}
  0
BLOCK_RECORD
  5
1FB
330
1
100
AcDbSymbolTableRecord
100
AcDbBlockTableRecord
  2
SW_CENTERMARKSYMBOL_1
340
0
102
{BLKREFS
331
206
102
}
  0
BLOCK_RECORD
  5
207
330
1
100
AcDbSymbolTableRecord
100
AcDbBlockTableRecord
  2
SW_CENTERMARKSYMBOL_2
340
0
102
{BLKREFS
331
212
102
}
  0
BLOCK_RECORD
  5
213
330
1
100
AcDbSymbolTableRecord
100
AcDbBlockTableRecord
  2
SW_CENTERMARKSYMBOL_3
340
0
102
{BLKREFS
331
21E
102
}
  0
BLOCK_RECORD
  5
21F
330
1
100
AcDbSymbolTableRecord
100
AcDbBlockTableRecord
  2
SW_CENTERMARKSYMBOL_4
340
0
102
{BLKREFS
331
22A
102
}
  0
BLOCK_RECORD
  5
22B
330
1
100
AcDbSymbolTableRecord
100
AcDbBlockTableRecord
  2
SW_CENTERMARKSYMBOL_5
340
0
102
{BLKREFS
331
236
102
}
  0
BLOCK_RECORD
  5
237
330
1
100
AcDbSymbolTableRecord
100
AcDbBlockTableRecord
  2
SW_CENTERMARKSYMBOL_6
340
0
102
{BLKREFS
331
242
102
}
  0
BLOCK_RECORD
  5
243
330
1
100
AcDbSymbolTableRecord
100
AcDbBlockTableRecord
  2
SW_CENTERMARKSYMBOL_7
340
0
102
{BLKREFS
331
24E
102
}
  0
BLOCK_RECORD
  5
24F
330
1
100
AcDbSymbolTableRecord
100
AcDbBlockTableRecord
  2
SW_CENTERMARKSYMBOL_8
340
0
102
{BLKREFS
331
25A
102
}
  0
BLOCK_RECORD
  5
25B
330
1
100
AcDbSymbolTableRecord
100
AcDbBlockTableRecord
  2
SW_CENTERMARKSYMBOL_9
340
0
102
{BLKREFS
331
266
102
}
  0
BLOCK_RECORD
  5
267
330
1
100
AcDbSymbolTableRecord
100
AcDbBlockTableRecord
  2
SW_CENTERMARKSYMBOL_10
340
0
102
{BLKREFS
331
272
102
}
  0
BLOCK_RECORD
  5
273
330
1
100
AcDbSymbolTableRecord
100
AcDbBlockTableRecord
  2
SW_CENTERMARKSYMBOL_11
340
0
102
{BLKREFS
331
27E
102
}
  0
BLOCK_RECORD
  5
27F
330
1
100
AcDbSymbolTableRecord
100
AcDbBlockTableRecord
  2
SW_CENTERMARKSYMBOL_12
340
0
102
{BLKREFS
331
28A
102
}
  0
BLOCK_RECORD
  5
28B
330
1
100
AcDbSymbolTableRecord
100
AcDbBlockTableRecord
  2
SW_CENTERMARKSYMBOL_13
340
0
102
{BLKREFS
331
296
102
}
  0
BLOCK_RECORD
  5
297
330
1
100
AcDbSymbolTableRecord
100
AcDbBlockTableRecord
  2
SW_CENTERMARKSYMBOL_14
340
0
102
{BLKREFS
331
2A2
102
}
  0
BLOCK_RECORD
  5
2C1
330
1
100
AcDbSymbolTableRecord
100
AcDbBlockTableRecord
  2
_D_22
340
0
  0
BLOCK_RECORD
  5
2CD
330
1
100
AcDbSymbolTableRecord
100
AcDbBlockTableRecord
  2
_D_23
340
0
  0
ENDTAB
  0
ENDSEC
  0
SECTION
  2
BLOCKS
  0
BLOCK
  5
20
330
1F
100
AcDbEntity
  8
0
100
AcDbBlockBegin
  2
*Model_Space
 70
     0
 10
0.0
 20
0.0
 30
0.0
  3
*Model_Space
  1

  0
ENDBLK
  5
21
330
1F
100
AcDbEntity
  8
0
100
AcDbBlockEnd
  0
BLOCK
  5
1C
330
1B
100
AcDbEntity
 67
     1
  8
0
100
AcDbBlockBegin
  2
*Paper_Space
 70
     0
 10
0.0
 20
0.0
 30
0.0
  3
*Paper_Space
  1

  0
ENDBLK
  5
1D
330
1B
100
AcDbEntity
 67
     1
  8
0
100
AcDbBlockEnd
  0
BLOCK
  5
24
330
23
100
AcDbEntity
  8
0
100
AcDbBlockBegin
  2
*Paper_Space0
 70
     0
 10
0.0
 20
0.0
 30
0.0
  3
*Paper_Space0
  1

  0
ENDBLK
  5
25
330
23
100
AcDbEntity
  8
0
100
AcDbBlockEnd
  0
BLOCK
  5
CF
330
CE
100
AcDbEntity
  8
0
100
AcDbBlockBegin
  2
SW_NOTE_0
 70
     0
 10
0.0
 20
0.0
 30
0.0
  3
SW_NOTE_0
  1

  0
MTEXT
  5
D1
330
CE
100
AcDbEntity
  8
0
  6
Continuous
 62
     0
370
     0
100
AcDbMText
 10
0.0
 20
1.9336016097
 30
0.0
 40
1.5
 41
0.0
 71
     1
 72
     1
  1
指示なき場合：
  7
SLDTEXTSTYLE0
 73
     1
 44
1.0
  0
MTEXT
  5
D2
330
CE
100
AcDbEntity
  8
0
  6
Continuous
 62
     0
370
     0
100
AcDbMText
 10
0.0
 20
-0.5663983345
 30
0.0
 40
1.5
 41
0.0
 71
     1
 72
     1
  1
寸法はミリメータとする　
  7
SLDTEXTSTYLE0
 73
     1
 44
1.0
  0
MTEXT
  5
D3
330
CE
100
AcDbEntity
  8
0
  6
Continuous
 62
     0
370
     0
100
AcDbMText
 10
0.0
 20
-3.0663982786
 30
0.0
 40
1.5
 41
0.0
 71
     1
 72
     1
  1
表面粗さ：
  7
SLDTEXTSTYLE0
 73
     1
 44
1.0
  0
MTEXT
  5
D4
330
CE
100
AcDbEntity
  8
0
  6
Continuous
 62
     0
370
     0
100
AcDbMText
 10
0.0
 20
-5.5663982227
 30
0.0
 40
1.5
 41
0.0
 71
     1
 72
     1
  1
　公差　：
  7
SLDTEXTSTYLE0
 73
     1
 44
1.0
  0
MTEXT
  5
D5
330
CE
100
AcDbEntity
  8
0
  6
Continuous
 62
     0
370
     0
100
AcDbMText
 10
0.0
 20
-8.0663981668
 30
0.0
 40
1.5
 41
0.0
 71
     1
 72
     1
  1
　寸法　：
  7
SLDTEXTSTYLE0
 73
     1
 44
1.0
  0
MTEXT
  5
D6
330
CE
100
AcDbEntity
  8
0
  6
Continuous
 62
     0
370
     0
100
AcDbMText
 10
0.0
 20
-10.5663981109
 30
0.0
 40
1.5
 41
0.0
 71
     1
 72
     1
  1
　角度　：
  7
SLDTEXTSTYLE0
 73
     1
 44
1.0
  0
ENDBLK
  5
D0
330
CE
100
AcDbEntity
  8
0
100
AcDbBlockEnd
  0
BLOCK
  5
101
330
100
100
AcDbEntity
  8
0
100
AcDbBlockBegin
  2
_D
 70
     0
 10
0.0
 20
0.0
 30
0.0
  3
_D
  1

  0
SOLID
  5
103
330
100
100
AcDbEntity
  8
0
  6
Continuous
 62
     7
370
     0
100
AcDbTrace
 10
56.8168616462
 20
135.1058722193
 30
0.0
 11
53.5148616462
 21
135.6138722193
 31
0.0
 12
53.5148616462
 22
134.5978722193
 32
0.0
 13
53.5148616462
 23
134.5978722193
 33
0.0
  0
SOLID
  5
104
330
100
100
AcDbEntity
  8
0
  6
Continuous
 62
     7
370
     0
100
AcDbTrace
 10
59.8168616462
 20
135.1058722193
 30
0.0
 11
63.1188616462
 21
134.5978722193
 31
0.0
 12
63.1188616462
 22
135.6138722193
 32
0.0
 13
63.1188616462
 23
135.6138722193
 33
0.0
  0
LINE
  5
105
330
100
100
AcDbEntity
  8
0
  6
Continuous
 62
     7
370
     0
100
AcDbLine
 10
59.8168616462
 20
140.1058722193
 30
0.0
 11
59.8168616462
 21
134.1058722193
 31
0.0
  0
LINE
  5
106
330
100
100
AcDbEntity
  8
0
  6
Continuous
 62
     7
370
     0
100
AcDbLine
 10
56.8168616462
 20
135.1058722193
 30
0.0
 11
21.5238060495
 21
135.1058722193
 31
0.0
  0
LINE
  5
107
330
100
100
AcDbEntity
  8
0
  6
Continuous
 62
     7
370
     0
100
AcDbLine
 10
56.8168616462
 20
135.1058722193
 30
0.0
 11
59.8168616462
 21
135.1058722193
 31
0.0
  0
LINE
  5
108
330
100
100
AcDbEntity
  8
0
  6
Continuous
 62
     7
370
     0
100
AcDbLine
 10
59.8168616462
 20
135.1058722193
 30
0.0
 11
66.1668616462
 21
135.1058722193
 31
0.0
  0
MTEXT
  5
109
330
100
100
AcDbEntity
  8
0
  6
Continuous
 62
     7
370
     0
100
AcDbMText
 10
21.5238060495
 20
139.6176091339
 30
0.0
 40
3.5
 41
0.0
 71
     1
 72
     1
  1
6
  7
SLDTEXTSTYLE0
 73
     1
 44
1.0
  0
ENDBLK
  5
102
330
100
100
AcDbEntity
  8
0
100
AcDbBlockEnd
  0
BLOCK
  5
10C
330
10B
100
AcDbEntity
  8
0
100
AcDbBlockBegin
  2
_D_1
 70
     0
 10
0.0
 20
0.0
 30
0.0
  3
_D_1
  1

  0
SOLID
  5
10E
330
10B
100
AcDbEntity
  8
0
  6
Continuous
 62
     7
370
     0
100
AcDbTrace
 10
56.8168616462
 20
127.9812253989
 30
0.0
 11
53.5148616462
 21
128.4892253989
 31
0.0
 12
53.5148616462
 22
127.4732253989
 32
0.0
 13
53.5148616462
 23
127.4732253989
 33
0.0
  0
SOLID
  5
10F
330
10B
100
AcDbEntity
  8
0
  6
Continuous
 62
     7
370
     0
100
AcDbTrace
 10
61.3168616462
 20
127.9812253989
 30
0.0
 11
64.6188616462
 21
127.4732253989
 31
0.0
 12
64.6188616462
 22
128.4892253989
 32
0.0
 13
64.6188616462
 23
128.4892253989
 33
0.0
  0
LINE
  5
110
330
10B
100
AcDbEntity
  8
0
  6
Continuous
 62
     7
370
     0
100
AcDbLine
 10
56.8168616462
 20
133.732581578
 30
0.0
 11
56.8168616462
 21
126.9812253989
 31
0.0
  0
LINE
  5
111
330
10B
100
AcDbEntity
  8
0
  6
Continuous
 62
     7
370
     0
100
AcDbLine
 10
61.3168616462
 20
164.7058722193
 30
0.0
 11
61.3168616462
 21
126.9812253989
 31
0.0
  0
LINE
  5
112
330
10B
100
AcDbEntity
  8
0
  6
Continuous
 62
     7
370
     0
100
AcDbLine
 10
56.8168616462
 20
127.9812253989
 30
0.0
 11
21.5238060495
 21
127.9812253989
 31
0.0
  0
LINE
  5
113
330
10B
100
AcDbEntity
  8
0
  6
Continuous
 62
     7
370
     0
100
AcDbLine
 10
56.8168616462
 20
127.9812253989
 30
0.0
 11
61.3168616462
 21
127.9812253989
 31
0.0
  0
LINE
  5
114
330
10B
100
AcDbEntity
  8
0
  6
Continuous
 62
     7
370
     0
100
AcDbLine
 10
61.3168616462
 20
127.9812253989
 30
0.0
 11
67.6668616462
 21
127.9812253989
 31
0.0
  0
MTEXT
  5
115
330
10B
100
AcDbEntity
  8
0
  6
Continuous
 62
     7
370
     0
100
AcDbMText
 10
21.5238060495
 20
132.4929623134
 30
0.0
 40
3.5
 41
0.0
 71
     1
 72
     1
  1
9
  7
SLDTEXTSTYLE0
 73
     1
 44
1.0
  0
ENDBLK
  5
10D
330
10B
100
AcDbEntity
  8
0
100
AcDbBlockEnd
  0
BLOCK
  5
118
330
117
100
AcDbEntity
  8
0
100
AcDbBlockBegin
  2
_D_2
 70
     0
 10
0.0
 20
0.0
 30
0.0
  3
_D_2
  1

  0
SOLID
  5
11A
330
117
100
AcDbEntity
  8
0
  6
Continuous
 62
     7
370
     0
100
AcDbTrace
 10
56.8168616462
 20
119.4808722193
 30
0.0
 11
53.5148616462
 21
119.9888722193
 31
0.0
 12
53.5148616462
 22
118.9728722193
 32
0.0
 13
53.5148616462
 23
118.9728722193
 33
0.0
  0
SOLID
  5
11B
330
117
100
AcDbEntity
  8
0
  6
Continuous
 62
     7
370
     0
100
AcDbTrace
 10
63.8168616462
 20
119.4808722193
 30
0.0
 11
67.1188616462
 21
118.9728722193
 31
0.0
 12
67.1188616462
 22
119.9888722193
 32
0.0
 13
67.1188616462
 23
119.9888722193
 33
0.0
  0
LINE
  5
11C
330
117
100
AcDbEntity
  8
0
  6
Continuous
 62
     7
370
     0
100
AcDbLine
 10
56.8168616462
 20
133.732581578
 30
0.0
 11
56.8168616462
 21
118.4808722193
 31
0.0
  0
LINE
  5
11D
330
117
100
AcDbEntity
  8
0
  6
Continuous
 62
     7
370
     0
100
AcDbLine
 10
63.8168616462
 20
133.3558722193
 30
0.0
 11
63.8168616462
 21
118.4808722193
 31
0.0
  0
LINE
  5
11E
330
117
100
AcDbEntity
  8
0
  6
Continuous
 62
     7
370
     0
100
AcDbLine
 10
56.8168616462
 20
119.4808722193
 30
0.0
 11
20.2307504527
 21
119.4808722193
 31
0.0
  0
LINE
  5
11F
330
117
100
AcDbEntity
  8
0
  6
Continuous
 62
     7
370
     0
100
AcDbLine
 10
56.8168616462
 20
119.4808722193
 30
0.0
 11
63.8168616462
 21
119.4808722193
 31
0.0
  0
LINE
  5
120
330
117
100
AcDbEntity
  8
0
  6
Continuous
 62
     7
370
     0
100
AcDbLine
 10
63.8168616462
 20
119.4808722193
 30
0.0
 11
70.1668616462
 21
119.4808722193
 31
0.0
  0
MTEXT
  5
121
330
117
100
AcDbEntity
  8
0
  6
Continuous
 62
     7
370
     0
100
AcDbMText
 10
20.2307504527
 20
123.9926091339
 30
0.0
 40
3.5
 41
0.0
 71
     1
 72
     1
  1
14
  7
SLDTEXTSTYLE0
 73
     1
 44
1.0
  0
ENDBLK
  5
119
330
117
100
AcDbEntity
  8
0
100
AcDbBlockEnd
  0
BLOCK
  5
125
330
124
100
AcDbEntity
  8
0
100
AcDbBlockBegin
  2
_D_3
 70
     0
 10
0.0
 20
0.0
 30
0.0
  3
_D_3
  1

  0
SOLID
  5
127
330
124
100
AcDbEntity
  8
0
  6
Continuous
 62
     7
370
     0
100
AcDbTrace
 10
56.8168616462
 20
111.3684036265
 30
0.0
 11
53.5148616462
 21
111.8764036265
 31
0.0
 12
53.5148616462
 22
110.8604036265
 32
0.0
 13
53.5148616462
 23
110.8604036265
 33
0.0
  0
SOLID
  5
128
330
124
100
AcDbEntity
  8
0
  6
Continuous
 62
     7
370
     0
100
AcDbTrace
 10
64.0668616462
 20
111.3684036265
 30
0.0
 11
67.3688616462
 21
110.8604036265
 31
0.0
 12
67.3688616462
 22
111.8764036265
 32
0.0
 13
67.3688616462
 23
111.8764036265
 33
0.0
  0
LINE
  5
129
330
124
100
AcDbEntity
  8
0
  6
Continuous
 62
     7
370
     0
100
AcDbLine
 10
56.8168616462
 20
133.732581578
 30
0.0
 11
56.8168616462
 21
110.3684036265
 31
0.0
  0
LINE
  5
12A
330
124
100
AcDbEntity
  8
0
  6
Continuous
 62
     7
370
     0
100
AcDbLine
 10
64.0668616462
 20
112.3558722193
 30
0.0
 11
64.0668616462
 21
112.3684036265
 31
0.0
  0
LINE
  5
12B
330
124
100
AcDbEntity
  8
0
  6
Continuous
 62
     7
370
     0
100
AcDbLine
 10
56.8168616462
 20
111.3684036265
 30
0.0
 11
16.9981114026
 21
111.3684036265
 31
0.0
  0
LINE
  5
12C
330
124
100
AcDbEntity
  8
0
  6
Continuous
 62
     7
370
     0
100
AcDbLine
 10
56.8168616462
 20
111.3684036265
 30
0.0
 11
64.0668616462
 21
111.3684036265
 31
0.0
  0
LINE
  5
12D
330
124
100
AcDbEntity
  8
0
  6
Continuous
 62
     7
370
     0
100
AcDbLine
 10
64.0668616462
 20
111.3684036265
 30
0.0
 11
70.4168616462
 21
111.3684036265
 31
0.0
  0
MTEXT
  5
12E
330
124
100
AcDbEntity
  8
0
  6
Continuous
 62
     7
370
     0
100
AcDbMText
 10
16.9981114026
 20
115.8801405411
 30
0.0
 40
3.5
 41
0.0
 71
     1
 72
     1
  1
14.50
  7
SLDTEXTSTYLE0
 73
     1
 44
1.0
  0
ENDBLK
  5
126
330
124
100
AcDbEntity
  8
0
100
AcDbBlockEnd
  0
BLOCK
  5
132
330
131
100
AcDbEntity
  8
0
100
AcDbBlockBegin
  2
_D_4
 70
     0
 10
0.0
 20
0.0
 30
0.0
  3
_D_4
  1

  0
SOLID
  5
134
330
131
100
AcDbEntity
  8
0
  6
Continuous
 62
     7
370
     0
100
AcDbTrace
 10
56.8168616462
 20
95.3690518956
 30
0.0
 11
60.1188616462
 21
94.8610518956
 31
0.0
 12
60.1188616462
 22
95.8770518956
 32
0.0
 13
60.1188616462
 23
95.8770518956
 33
0.0
  0
SOLID
  5
135
330
131
100
AcDbEntity
  8
0
  6
Continuous
 62
     7
370
     0
100
AcDbTrace
 10
66.8168616462
 20
95.3690518956
 30
0.0
 11
63.5148616462
 21
95.8770518956
 31
0.0
 12
63.5148616462
 22
94.8610518956
 32
0.0
 13
63.5148616462
 23
94.8610518956
 33
0.0
  0
LINE
  5
136
330
131
100
AcDbEntity
  8
0
  6
Continuous
 62
     7
370
     0
100
AcDbLine
 10
56.8168616462
 20
133.732581578
 30
0.0
 11
56.8168616462
 21
94.3690518956
 31
0.0
  0
LINE
  5
137
330
131
100
AcDbEntity
  8
0
  6
Continuous
 62
     7
370
     0
100
AcDbLine
 10
66.8168616462
 20
132.8558722193
 30
0.0
 11
66.8168616462
 21
94.3690518956
 31
0.0
  0
LINE
  5
138
330
131
100
AcDbEntity
  8
0
  6
Continuous
 62
     7
370
     0
100
AcDbLine
 10
56.8168616462
 20
95.3690518956
 30
0.0
 11
20.2307504527
 21
95.3690518956
 31
0.0
  0
LINE
  5
139
330
131
100
AcDbEntity
  8
0
  6
Continuous
 62
     7
370
     0
100
AcDbLine
 10
56.8168616462
 20
95.3690518956
 30
0.0
 11
66.8168616462
 21
95.3690518956
 31
0.0
  0
MTEXT
  5
13A
330
131
100
AcDbEntity
  8
0
  6
Continuous
 62
     7
370
     0
100
AcDbMText
 10
20.2307504527
 20
99.8807888102
 30
0.0
 40
3.5
 41
0.0
 71
     1
 72
     1
  1
20
  7
SLDTEXTSTYLE0
 73
     1
 44
1.0
  0
ENDBLK
  5
133
330
131
100
AcDbEntity
  8
0
100
AcDbBlockEnd
  0
BLOCK
  5
13D
330
13C
100
AcDbEntity
  8
0
100
AcDbBlockBegin
  2
_D_5
 70
     0
 10
0.0
 20
0.0
 30
0.0
  3
_D_5
  1

  0
SOLID
  5
13F
330
13C
100
AcDbEntity
  8
0
  6
Continuous
 62
     7
370
     0
100
AcDbTrace
 10
56.8168616462
 20
88.1946645997
 30
0.0
 11
53.5148616462
 21
88.7026645997
 31
0.0
 12
53.5148616462
 22
87.6866645997
 32
0.0
 13
53.5148616462
 23
87.6866645997
 33
0.0
  0
SOLID
  5
140
330
13C
100
AcDbEntity
  8
0
  6
Continuous
 62
     7
370
     0
100
AcDbTrace
 10
73.8168616462
 20
88.1946645997
 30
0.0
 11
77.1188616462
 21
87.6866645997
 31
0.0
 12
77.1188616462
 22
88.7026645997
 32
0.0
 13
77.1188616462
 23
88.7026645997
 33
0.0
  0
LINE
  5
141
330
13C
100
AcDbEntity
  8
0
  6
Continuous
 62
     7
370
     0
100
AcDbLine
 10
56.8168616462
 20
133.732581578
 30
0.0
 11
56.8168616462
 21
87.1946645997
 31
0.0
  0
LINE
  5
142
330
13C
100
AcDbEntity
  8
0
  6
Continuous
 62
     7
370
     0
100
AcDbLine
 10
73.8168616462
 20
150.3558722193
 30
0.0
 11
73.8168616462
 21
87.1946645997
 31
0.0
  0
LINE
  5
143
330
13C
100
AcDbEntity
  8
0
  6
Continuous
 62
     7
370
     0
100
AcDbLine
 10
56.8168616462
 20
88.1946645997
 30
0.0
 11
50.4668616462
 21
88.1946645997
 31
0.0
  0
LINE
  5
144
330
13C
100
AcDbEntity
  8
0
  6
Continuous
 62
     7
370
     0
100
AcDbLine
 10
56.8168616462
 20
88.1946645997
 30
0.0
 11
73.8168616462
 21
88.1946645997
 31
0.0
  0
LINE
  5
145
330
13C
100
AcDbEntity
  8
0
  6
Continuous
 62
     7
370
     0
100
AcDbLine
 10
73.8168616462
 20
88.1946645997
 30
0.0
 11
80.1668616462
 21
88.1946645997
 31
0.0
  0
MTEXT
  5
146
330
13C
100
AcDbEntity
  8
0
  6
Continuous
 62
     7
370
     0
100
AcDbMText
 10
65.1057504527
 20
92.7064015143
 30
0.0
 40
3.5
 41
0.0
 71
     1
 72
     1
  1
34
  7
SLDTEXTSTYLE0
 73
     1
 44
1.0
  0
ENDBLK
  5
13E
330
13C
100
AcDbEntity
  8
0
100
AcDbBlockEnd
  0
BLOCK
  5
149
330
148
100
AcDbEntity
  8
0
100
AcDbBlockBegin
  2
_D_6
 70
     0
 10
0.0
 20
0.0
 30
0.0
  3
_D_6
  1

  0
SOLID
  5
14B
330
148
100
AcDbEntity
  8
0
  6
Continuous
 62
     7
370
     0
100
AcDbTrace
 10
98.0023480134
 20
96.3558722193
 30
0.0
 11
97.4943480134
 21
93.0538722193
 31
0.0
 12
98.5103480134
 22
93.0538722193
 32
0.0
 13
98.5103480134
 23
93.0538722193
 33
0.0
  0
SOLID
  5
14C
330
148
100
AcDbEntity
  8
0
  6
Continuous
 62
     7
370
     0
100
AcDbTrace
 10
98.0023480134
 20
108.8558722193
 30
0.0
 11
98.5103480134
 21
112.1578722193
 31
0.0
 12
97.4943480134
 22
112.1578722193
 32
0.0
 13
97.4943480134
 23
112.1578722193
 33
0.0
  0
LINE
  5
14D
330
148
100
AcDbEntity
  8
0
  6
Continuous
 62
     7
370
     0
100
AcDbLine
 10
82.3168616462
 20
96.3558722193
 30
0.0
 11
99.0023480134
 21
96.3558722193
 31
0.0
  0
LINE
  5
14E
330
148
100
AcDbEntity
  8
0
  6
Continuous
 62
     7
370
     0
100
AcDbLine
 10
67.5668616462
 20
108.8558722193
 30
0.0
 11
99.0023480134
 21
108.8558722193
 31
0.0
  0
LINE
  5
14F
330
148
100
AcDbEntity
  8
0
  6
Continuous
 62
     7
370
     0
100
AcDbLine
 10
98.0023480134
 20
96.3558722193
 30
0.0
 11
98.0023480134
 21
90.0058722193
 31
0.0
  0
LINE
  5
150
330
148
100
AcDbEntity
  8
0
  6
Continuous
 62
     7
370
     0
100
AcDbLine
 10
98.0023480134
 20
96.3558722193
 30
0.0
 11
98.0023480134
 21
108.8558722193
 31
0.0
  0
LINE
  5
151
330
148
100
AcDbEntity
  8
0
  6
Continuous
 62
     7
370
     0
100
AcDbLine
 10
98.0023480134
 20
108.8558722193
 30
0.0
 11
98.0023480134
 21
115.2058722193
 31
0.0
  0
MTEXT
  5
152
330
148
100
AcDbEntity
  8
0
  6
Continuous
 62
     7
370
     0
100
AcDbMText
 10
93.4906110988
 20
99.8087075902
 30
0.0
 40
3.5
 41
0.0
 71
     1
 72
     1
  1
25
  7
SLDTEXTSTYLE0
 11
6.123233995736766E-17
 21
1.0
 31
0.0
 73
     1
 44
1.0
  0
ENDBLK
  5
14A
330
148
100
AcDbEntity
  8
0
100
AcDbBlockEnd
  0
BLOCK
  5
155
330
154
100
AcDbEntity
  8
0
100
AcDbBlockBegin
  2
_D_7
 70
     0
 10
0.0
 20
0.0
 30
0.0
  3
_D_7
  1

  0
SOLID
  5
157
330
154
100
AcDbEntity
  8
0
  6
Continuous
 62
     7
370
     0
100
AcDbTrace
 10
105.4898878715
 20
96.3558722193
 30
0.0
 11
105.9978878715
 21
99.6578722193
 31
0.0
 12
104.9818878715
 22
99.6578722193
 32
0.0
 13
104.9818878715
 23
99.6578722193
 33
0.0
  0
SOLID
  5
158
330
154
100
AcDbEntity
  8
0
  6
Continuous
 62
     7
370
     0
100
AcDbTrace
 10
105.4898878715
 20
135.3558722193
 30
0.0
 11
104.9818878715
 21
132.0538722193
 31
0.0
 12
105.9978878715
 22
132.0538722193
 32
0.0
 13
105.9978878715
 23
132.0538722193
 33
0.0
  0
LINE
  5
159
330
154
100
AcDbEntity
  8
0
  6
Continuous
 62
     7
370
     0
100
AcDbLine
 10
82.3168616462
 20
96.3558722193
 30
0.0
 11
106.4898878715
 21
96.3558722193
 31
0.0
  0
LINE
  5
15A
330
154
100
AcDbEntity
  8
0
  6
Continuous
 62
     7
370
     0
100
AcDbLine
 10
81.4668616462
 20
135.3558722193
 30
0.0
 11
106.4898878715
 21
135.3558722193
 31
0.0
  0
LINE
  5
15B
330
154
100
AcDbEntity
  8
0
  6
Continuous
 62
     7
370
     0
100
AcDbLine
 10
105.4898878715
 20
96.3558722193
 30
0.0
 11
105.4898878715
 21
135.3558722193
 31
0.0
  0
MTEXT
  5
15C
330
154
100
AcDbEntity
  8
0
  6
Continuous
 62
     7
370
     0
100
AcDbMText
 10
100.978150957
 20
101.2697610258
 30
0.0
 40
3.5
 41
0.0
 71
     1
 72
     1
  1
78
  7
SLDTEXTSTYLE0
 11
6.123233995736766E-17
 21
1.0
 31
0.0
 73
     1
 44
1.0
  0
ENDBLK
  5
156
330
154
100
AcDbEntity
  8
0
100
AcDbBlockEnd
  0
BLOCK
  5
15F
330
15E
100
AcDbEntity
  8
0
100
AcDbBlockBegin
  2
_D_8
 70
     0
 10
0.0
 20
0.0
 30
0.0
  3
_D_8
  1

  0
SOLID
  5
161
330
15E
100
AcDbEntity
  8
0
  6
Continuous
 62
     7
370
     0
100
AcDbTrace
 10
111.028659771
 20
96.3558722193
 30
0.0
 11
111.536659771
 21
99.6578722193
 31
0.0
 12
110.520659771
 22
99.6578722193
 32
0.0
 13
110.520659771
 23
99.6578722193
 33
0.0
  0
SOLID
  5
162
330
15E
100
AcDbEntity
  8
0
  6
Continuous
 62
     7
370
     0
100
AcDbTrace
 10
111.028659771
 20
136.3558722193
 30
0.0
 11
110.520659771
 21
133.0538722193
 31
0.0
 12
111.536659771
 22
133.0538722193
 32
0.0
 13
111.536659771
 23
133.0538722193
 33
0.0
  0
LINE
  5
163
330
15E
100
AcDbEntity
  8
0
  6
Continuous
 62
     7
370
     0
100
AcDbLine
 10
82.3168616462
 20
96.3558722193
 30
0.0
 11
112.028659771
 21
96.3558722193
 31
0.0
  0
LINE
  5
164
330
15E
100
AcDbEntity
  8
0
  6
Continuous
 62
     7
370
     0
100
AcDbLine
 10
86.8168616462
 20
136.3558722193
 30
0.0
 11
112.028659771
 21
136.3558722193
 31
0.0
  0
LINE
  5
165
330
15E
100
AcDbEntity
  8
0
  6
Continuous
 62
     7
370
     0
100
AcDbLine
 10
111.028659771
 20
96.3558722193
 30
0.0
 11
111.028659771
 21
136.3558722193
 31
0.0
  0
MTEXT
  5
166
330
15E
100
AcDbEntity
  8
0
  6
Continuous
 62
     7
370
     0
100
AcDbMText
 10
106.5169228564
 20
101.2697610258
 30
0.0
 40
3.5
 41
0.0
 71
     1
 72
     1
  1
80
  7
SLDTEXTSTYLE0
 11
6.123233995736766E-17
 21
1.0
 31
0.0
 73
     1
 44
1.0
  0
ENDBLK
  5
160
330
15E
100
AcDbEntity
  8
0
100
AcDbBlockEnd
  0
BLOCK
  5
16A
330
169
100
AcDbEntity
  8
0
100
AcDbBlockBegin
  2
_D_9
 70
     0
 10
0.0
 20
0.0
 30
0.0
  3
_D_9
  1

  0
SOLID
  5
16C
330
169
100
AcDbEntity
  8
0
  6
Continuous
 62
     7
370
     0
100
AcDbTrace
 10
117.3475421284
 20
96.3558722193
 30
0.0
 11
117.8555421284
 21
99.6578722193
 31
0.0
 12
116.8395421284
 22
99.6578722193
 32
0.0
 13
116.8395421284
 23
99.6578722193
 33
0.0
  0
SOLID
  5
16D
330
169
100
AcDbEntity
  8
0
  6
Continuous
 62
     7
370
     0
100
AcDbTrace
 10
117.3475421284
 20
145.1058722193
 30
0.0
 11
116.8395421284
 21
141.8038722193
 31
0.0
 12
117.8555421284
 22
141.8038722193
 32
0.0
 13
117.8555421284
 23
141.8038722193
 33
0.0
  0
LINE
  5
16E
330
169
100
AcDbEntity
  8
0
  6
Continuous
 62
     7
370
     0
100
AcDbLine
 10
82.3168616462
 20
96.3558722193
 30
0.0
 11
118.3475421284
 21
96.3558722193
 31
0.0
  0
LINE
  5
16F
330
169
100
AcDbEntity
  8
0
  6
Continuous
 62
     7
370
     0
100
AcDbLine
 10
92.8168616462
 20
145.1058722193
 30
0.0
 11
118.3475421284
 21
145.1058722193
 31
0.0
  0
LINE
  5
170
330
169
100
AcDbEntity
  8
0
  6
Continuous
 62
     7
370
     0
100
AcDbLine
 10
117.3475421284
 20
96.3558722193
 30
0.0
 11
117.3475421284
 21
145.1058722193
 31
0.0
  0
MTEXT
  5
171
330
169
100
AcDbEntity
  8
0
  6
Continuous
 62
     7
370
     0
100
AcDbMText
 10
112.8358052138
 20
102.4121219757
 30
0.0
 40
3.5
 41
0.0
 71
     1
 72
     1
  1
97.50
  7
SLDTEXTSTYLE0
 11
6.123233995736766E-17
 21
1.0
 31
0.0
 73
     1
 44
1.0
  0
ENDBLK
  5
16B
330
169
100
AcDbEntity
  8
0
100
AcDbBlockEnd
  0
BLOCK
  5
174
330
173
100
AcDbEntity
  8
0
100
AcDbBlockBegin
  2
_D_10
 70
     0
 10
0.0
 20
0.0
 30
0.0
  3
_D_10
  1

  0
SOLID
  5
176
330
173
100
AcDbEntity
  8
0
  6
Continuous
 62
     7
370
     0
100
AcDbTrace
 10
122.8901464678
 20
96.3558722193
 30
0.0
 11
123.3981464678
 21
99.6578722193
 31
0.0
 12
122.3821464678
 22
99.6578722193
 32
0.0
 13
122.3821464678
 23
99.6578722193
 33
0.0
  0
SOLID
  5
177
330
173
100
AcDbEntity
  8
0
  6
Continuous
 62
     7
370
     0
100
AcDbTrace
 10
122.8901464678
 20
153.8558722193
 30
0.0
 11
122.3821464678
 21
150.5538722193
 31
0.0
 12
123.3981464678
 22
150.5538722193
 32
0.0
 13
123.3981464678
 23
150.5538722193
 33
0.0
  0
LINE
  5
178
330
173
100
AcDbEntity
  8
0
  6
Continuous
 62
     7
370
     0
100
AcDbLine
 10
82.3168616462
 20
96.3558722193
 30
0.0
 11
123.8901464678
 21
96.3558722193
 31
0.0
  0
LINE
  5
179
330
173
100
AcDbEntity
  8
0
  6
Continuous
 62
     7
370
     0
100
AcDbLine
 10
66.8168616462
 20
153.8558722193
 30
0.0
 11
123.8901464678
 21
153.8558722193
 31
0.0
  0
LINE
  5
17A
330
173
100
AcDbEntity
  8
0
  6
Continuous
 62
     7
370
     0
100
AcDbLine
 10
122.8901464678
 20
96.3558722193
 30
0.0
 11
122.8901464678
 21
153.8558722193
 31
0.0
  0
MTEXT
  5
17B
330
173
100
AcDbEntity
  8
0
  6
Continuous
 62
     7
370
     0
100
AcDbMText
 10
118.3784095532
 20
104.3517055454
 30
0.0
 40
3.5
 41
0.0
 71
     1
 72
     1
  1
115
  7
SLDTEXTSTYLE0
 11
6.123233995736766E-17
 21
1.0
 31
0.0
 73
     1
 44
1.0
  0
ENDBLK
  5
175
330
173
100
AcDbEntity
  8
0
100
AcDbBlockEnd
  0
BLOCK
  5
17E
330
17D
100
AcDbEntity
  8
0
100
AcDbBlockBegin
  2
_D_11
 70
     0
 10
0.0
 20
0.0
 30
0.0
  3
_D_11
  1

  0
SOLID
  5
180
330
17D
100
AcDbEntity
  8
0
  6
Continuous
 62
     7
370
     0
100
AcDbTrace
 10
130.8168616462
 20
96.3558722193
 30
0.0
 11
131.3248616462
 21
99.6578722193
 31
0.0
 12
130.3088616462
 22
99.6578722193
 32
0.0
 13
130.3088616462
 23
99.6578722193
 33
0.0
  0
SOLID
  5
181
330
17D
100
AcDbEntity
  8
0
  6
Continuous
 62
     7
370
     0
100
AcDbTrace
 10
130.8168616462
 20
155.1058722193
 30
0.0
 11
130.3088616462
 21
151.8038722193
 31
0.0
 12
131.3248616462
 22
151.8038722193
 32
0.0
 13
131.3248616462
 23
151.8038722193
 33
0.0
  0
LINE
  5
182
330
17D
100
AcDbEntity
  8
0
  6
Continuous
 62
     7
370
     0
100
AcDbLine
 10
82.3168616462
 20
96.3558722193
 30
0.0
 11
131.8168616462
 21
96.3558722193
 31
0.0
  0
LINE
  5
183
330
17D
100
AcDbEntity
  8
0
  6
Continuous
 62
     7
370
     0
100
AcDbLine
 10
78.5668616462
 20
155.1058722193
 30
0.0
 11
131.8168616462
 21
155.1058722193
 31
0.0
  0
LINE
  5
184
330
17D
100
AcDbEntity
  8
0
  6
Continuous
 62
     7
370
     0
100
AcDbLine
 10
130.8168616462
 20
96.3558722193
 30
0.0
 11
130.8168616462
 21
155.1058722193
 31
0.0
  0
MTEXT
  5
185
330
17D
100
AcDbEntity
  8
0
  6
Continuous
 62
     7
370
     0
100
AcDbMText
 10
126.3051247317
 20
101.1190662625
 30
0.0
 40
3.5
 41
0.0
 71
     1
 72
     1
  1
117.50
  7
SLDTEXTSTYLE0
 11
6.123233995736766E-17
 21
1.0
 31
0.0
 73
     1
 44
1.0
  0
ENDBLK
  5
17F
330
17D
100
AcDbEntity
  8
0
100
AcDbBlockEnd
  0
BLOCK
  5
188
330
187
100
AcDbEntity
  8
0
100
AcDbBlockBegin
  2
_D_12
 70
     0
 10
0.0
 20
0.0
 30
0.0
  3
_D_12
  1

  0
SOLID
  5
18A
330
187
100
AcDbEntity
  8
0
  6
Continuous
 62
     7
370
     0
100
AcDbTrace
 10
136.8168616462
 20
96.3558722193
 30
0.0
 11
137.3248616462
 21
99.6578722193
 31
0.0
 12
136.3088616462
 22
99.6578722193
 32
0.0
 13
136.3088616462
 23
99.6578722193
 33
0.0
  0
SOLID
  5
18B
330
187
100
AcDbEntity
  8
0
  6
Continuous
 62
     7
370
     0
100
AcDbTrace
 10
136.8168616462
 20
133.8558722193
 30
0.0
 11
136.3088616462
 21
130.5538722193
 31
0.0
 12
137.3248616462
 22
130.5538722193
 32
0.0
 13
137.3248616462
 23
130.5538722193
 33
0.0
  0
LINE
  5
18C
330
187
100
AcDbEntity
  8
0
  6
Continuous
 62
     7
370
     0
100
AcDbLine
 10
82.3168616462
 20
96.3558722193
 30
0.0
 11
137.8168616462
 21
96.3558722193
 31
0.0
  0
LINE
  5
18D
330
187
100
AcDbEntity
  8
0
  6
Continuous
 62
     7
370
     0
100
AcDbLine
 10
81.8168616462
 20
133.8558722193
 30
0.0
 11
137.8168616462
 21
133.8558722193
 31
0.0
  0
LINE
  5
18E
330
187
100
AcDbEntity
  8
0
  6
Continuous
 62
     7
370
     0
100
AcDbLine
 10
136.8168616462
 20
96.3558722193
 30
0.0
 11
136.8168616462
 21
133.8558722193
 31
0.0
  0
MTEXT
  5
18F
330
187
100
AcDbEntity
  8
0
  6
Continuous
 62
     7
370
     0
100
AcDbMText
 10
132.3051247317
 20
107.1551554001
 30
0.0
 40
3.5
 41
0.0
 71
     1
 72
     1
  1
75
  7
SLDTEXTSTYLE0
 11
6.123233995736766E-17
 21
1.0
 31
0.0
 73
     1
 44
1.0
  0
ENDBLK
  5
189
330
187
100
AcDbEntity
  8
0
100
AcDbBlockEnd
  0
BLOCK
  5
192
330
191
100
AcDbEntity
  8
0
100
AcDbBlockBegin
  2
_D_13
 70
     0
 10
0.0
 20
0.0
 30
0.0
  3
_D_13
  1

  0
SOLID
  5
194
330
191
100
AcDbEntity
  8
0
  6
Continuous
 62
     7
370
     0
100
AcDbTrace
 10
143.0081722445
 20
96.3558722193
 30
0.0
 11
143.5161722445
 21
99.6578722193
 31
0.0
 12
142.5001722445
 22
99.6578722193
 32
0.0
 13
142.5001722445
 23
99.6578722193
 33
0.0
  0
SOLID
  5
195
330
191
100
AcDbEntity
  8
0
  6
Continuous
 62
     7
370
     0
100
AcDbTrace
 10
143.0081722445
 20
167.6058722193
 30
0.0
 11
142.5001722445
 21
164.3038722193
 31
0.0
 12
143.5161722445
 22
164.3038722193
 32
0.0
 13
143.5161722445
 23
164.3038722193
 33
0.0
  0
LINE
  5
196
330
191
100
AcDbEntity
  8
0
  6
Continuous
 62
     7
370
     0
100
AcDbLine
 10
82.3168616462
 20
96.3558722193
 30
0.0
 11
144.0081722445
 21
96.3558722193
 31
0.0
  0
LINE
  5
197
330
191
100
AcDbEntity
  8
0
  6
Continuous
 62
     7
370
     0
100
AcDbLine
 10
64.2168616462
 20
167.6058722193
 30
0.0
 11
144.0081722445
 21
167.6058722193
 31
0.0
  0
LINE
  5
198
330
191
100
AcDbEntity
  8
0
  6
Continuous
 62
     7
370
     0
100
AcDbLine
 10
143.0081722445
 20
96.3558722193
 30
0.0
 11
143.0081722445
 21
167.6058722193
 31
0.0
  0
MTEXT
  5
199
330
191
100
AcDbEntity
  8
0
  6
Continuous
 62
     7
370
     0
100
AcDbMText
 10
138.4964353299
 20
102.7004047454
 30
0.0
 40
3.5
 41
0.0
 71
     1
 72
     1
  1
142.50
  7
SLDTEXTSTYLE0
 11
6.123233995736766E-17
 21
1.0
 31
0.0
 73
     1
 44
1.0
  0
ENDBLK
  5
193
330
191
100
AcDbEntity
  8
0
100
AcDbBlockEnd
  0
BLOCK
  5
19D
330
19C
100
AcDbEntity
  8
0
100
AcDbBlockBegin
  2
_NONE
 70
     0
 10
0.0
 20
0.0
 30
0.0
  3
_NONE
  1

  0
ENDBLK
  5
19E
330
19C
100
AcDbEntity
  8
0
100
AcDbBlockEnd
  0
BLOCK
  5
1A0
330
19F
100
AcDbEntity
  8
0
100
AcDbBlockBegin
  2
_D_14
 70
     0
 10
0.0
 20
0.0
 30
0.0
  3
_D_14
  1

  0
SOLID
  5
1A2
330
19F
100
AcDbEntity
  8
0
  6
Continuous
 62
     7
370
     0
100
AcDbTrace
 10
75.0668616462
 20
157.2709357288
 30
0.0
 11
77.1578025514
 21
159.8765516121
 31
0.0
 12
76.2779207411
 22
160.3845516121
 32
0.0
 13
76.2779207411
 23
160.3845516121
 33
0.0
  0
LINE
  5
1A3
330
19F
100
AcDbEntity
  8
0
  6
Continuous
 62
     7
370
     0
100
AcDbLine
 10
75.0668616462
 20
157.2709357288
 30
0.0
 11
80.2759921432
 21
166.2934144127
 31
0.0
  0
LINE
  5
1A4
330
19F
100
AcDbEntity
  8
0
  6
Continuous
 62
     7
370
     0
100
AcDbLine
 10
75.0668616462
 20
157.2709357288
 30
0.0
 11
72.5668616462
 21
152.9408087099
 31
0.0
  0
MTEXT
  5
1A5
330
19F
100
AcDbEntity
  8
0
  6
Continuous
 62
     7
370
     0
100
AcDbMText
 10
71.2759855022
 20
159.4221876512
 30
0.0
 40
3.5
 41
0.0
 71
     1
 72
     1
  1
%%c
  7
SLDTEXTSTYLE0
 11
0.5000000000000001
 21
0.8660254037844386
 31
0.0
 73
     1
 44
1.0
  0
MTEXT
  5
1A6
330
19F
100
AcDbEntity
  8
0
  6
Continuous
 62
     7
370
     0
100
AcDbMText
 10
73.868895938
 20
164.0201846189
 30
0.0
 40
3.5
 41
0.0
 71
     1
 72
     1
  1
10
  7
SLDTEXTSTYLE0
 11
0.5000000000000001
 21
0.8660254037844386
 31
0.0
 73
     1
 44
1.0
  0
ENDBLK
  5
1A1
330
19F
100
AcDbEntity
  8
0
100
AcDbBlockEnd
  0
BLOCK
  5
1AA
330
1A9
100
AcDbEntity
  8
0
100
AcDbBlockBegin
  2
_D_15
 70
     0
 10
0.0
 20
0.0
 30
0.0
  3
_D_15
  1

  0
SOLID
  5
1AC
330
1A9
100
AcDbEntity
  8
0
  6
Continuous
 62
     7
370
     0
100
AcDbTrace
 10
79.1713536006
 20
135.5948062629
 30
0.0
 11
82.4289088733
 21
136.3361574922
 31
0.0
 12
82.0554365836
 22
137.2810249162
 32
0.0
 13
82.0554365836
 23
137.2810249162
 33
0.0
  0
LINE
  5
1AD
330
1A9
100
AcDbEntity
  8
0
  6
Continuous
 62
     7
370
     0
100
AcDbLine
 10
79.1713536006
 20
135.5948062629
 30
0.0
 11
120.0002533433
 21
151.7330096585
 31
0.0
  0
LINE
  5
1AE
330
1A9
100
AcDbEntity
  8
0
  6
Continuous
 62
     7
370
     0
100
AcDbLine
 10
79.1713536006
 20
135.5948062629
 30
0.0
 11
77.9623696919
 21
135.1169381758
 31
0.0
  0
MTEXT
  5
1B0
330
1A9
100
AcDbEntity
  8
0
  6
Continuous
 62
     7
370
     0
100
AcDbMText
 10
97.5444026636
 20
147.7553893409
 30
0.0
 40
3.5
 41
0.0
 71
     1
 72
     1
  1
4 X
  7
SLDTEXTSTYLE2
 11
0.9299876220178007
 21
0.3675908362482342
 31
0.0
 73
     1
 44
1.0
  0
MTEXT
  5
1B1
330
1A9
100
AcDbEntity
  8
0
  6
Continuous
 62
     7
370
     0
100
AcDbMText
 10
105.018813807
 20
150.652258936
 30
0.0
 40
3.5
 41
0.0
 71
     1
 72
     1
  1
%%c
  7
SLDTEXTSTYLE0
 11
0.9299876220178007
 21
0.3675908362482342
 31
0.0
 73
     1
 44
1.0
  0
MTEXT
  5
1B2
330
1A9
100
AcDbEntity
  8
0
  6
Continuous
 62
     7
370
     0
100
AcDbMText
 10
109.908039369
 20
152.6422926157
 30
0.0
 40
3.5
 41
0.0
 71
     1
 72
     1
  1
2.60
  7
SLDTEXTSTYLE0
 11
0.9299876220178007
 21
0.3675908362482342
 31
0.0
 73
     1
 44
1.0
  0
ENDBLK
  5
1AB
330
1A9
100
AcDbEntity
  8
0
100
AcDbBlockEnd
  0
BLOCK
  5
1B5
330
1B4
100
AcDbEntity
  8
0
100
AcDbBlockBegin
  2
_D_16
 70
     0
 10
0.0
 20
0.0
 30
0.0
  3
_D_16
  1

  0
SOLID
  5
1B7
330
1B4
100
AcDbEntity
  8
0
  6
Continuous
 62
     7
370
     0
100
AcDbTrace
 10
88.9793463762
 20
147.5980859446
 30
0.0
 11
90.8355533401
 21
150.3758123003
 31
0.0
 12
89.9147936511
 22
150.8052975678
 32
0.0
 13
89.9147936511
 23
150.8052975678
 33
0.0
  0
LINE
  5
1B8
330
1B4
100
AcDbEntity
  8
0
  6
Continuous
 62
     7
370
     0
100
AcDbLine
 10
88.9793463762
 20
147.5980859446
 30
0.0
 11
118.9547150493
 21
211.8613173688
 31
0.0
  0
LINE
  5
1B9
330
1B4
100
AcDbEntity
  8
0
  6
Continuous
 62
     7
370
     0
100
AcDbLine
 10
88.9793463762
 20
147.5980859446
 30
0.0
 11
86.6543769163
 21
142.613658494
 31
0.0
  0
MTEXT
  5
1BA
330
1B4
100
AcDbEntity
  8
0
  6
Continuous
 62
     7
370
     0
100
AcDbMText
 10
107.0136047816
 20
197.0544484728
 30
0.0
 40
3.5
 41
0.0
 71
     1
 72
     1
  1
2 X
  7
SLDTEXTSTYLE2
 11
0.422721719984348
 21
0.9062595364758786
 31
0.0
 73
     1
 44
1.0
  0
MTEXT
  5
1BB
330
1B4
100
AcDbEntity
  8
0
  6
Continuous
 62
     7
370
     0
100
AcDbMText
 10
110.4505901605
 20
204.2963962009
 30
0.0
 40
3.5
 41
0.0
 71
     1
 72
     1
  1
%%c
  7
SLDTEXTSTYLE0
 11
0.422721719984348
 21
0.9062595364758786
 31
0.0
 73
     1
 44
1.0
  0
MTEXT
  5
1BC
330
1B4
100
AcDbEntity
  8
0
  6
Continuous
 62
     7
370
     0
100
AcDbMText
 10
112.6334406263
 20
209.1026342814
 30
0.0
 40
3.5
 41
0.0
 71
     1
 72
     1
  1
11
  7
SLDTEXTSTYLE0
 11
0.422721719984348
 21
0.9062595364758786
 31
0.0
 73
     1
 44
1.0
  0
ENDBLK
  5
1B6
330
1B4
100
AcDbEntity
  8
0
100
AcDbBlockEnd
  0
BLOCK
  5
1BF
330
1BE
100
AcDbEntity
  8
0
100
AcDbBlockBegin
  2
_D_17
 70
     0
 10
0.0
 20
0.0
 30
0.0
  3
_D_17
  1

  0
SOLID
  5
1C1
330
1BE
100
AcDbEntity
  8
0
  6
Continuous
 62
     7
370
     0
100
AcDbTrace
 10
83.8903854526
 20
115.1484649365
 30
0.0
 11
84.2543156198
 21
111.8274977831
 31
0.0
 12
85.2356962593
 22
112.090457933
 32
0.0
 13
85.2356962593
 23
112.090457933
 33
0.0
  0
LINE
  5
1C2
330
1BE
100
AcDbEntity
  8
0
  6
Continuous
 62
     7
370
     0
100
AcDbLine
 10
83.8903854526
 20
115.1484649365
 30
0.0
 11
95.3873773406
 21
72.2411070763
 31
0.0
  0
LINE
  5
1C3
330
1BE
100
AcDbEntity
  8
0
  6
Continuous
 62
     7
370
     0
100
AcDbLine
 10
83.8903854526
 20
115.1484649365
 30
0.0
 11
83.2433378399
 21
117.5632795022
 31
0.0
  0
MTEXT
  5
1C4
330
1BE
100
AcDbEntity
  8
0
  6
Continuous
 62
     7
370
     0
100
AcDbMText
 10
95.6794348191
 20
88.7600891661
 30
0.0
 40
3.5
 41
0.0
 71
     1
 72
     1
  1
4 X
  7
SLDTEXTSTYLE2
 11
0.2588190451025306
 21
-0.9659258262890656
 31
0.0
 73
     1
 44
1.0
  0
MTEXT
  5
1C5
330
1BE
100
AcDbEntity
  8
0
  6
Continuous
 62
     7
370
     0
100
AcDbMText
 10
97.7024710268
 20
81.0034146278
 30
0.0
 40
3.5
 41
0.0
 71
     1
 72
     1
  1
%%c
  7
SLDTEXTSTYLE0
 11
0.2588190451025306
 21
-0.9659258262890656
 31
0.0
 73
     1
 44
1.0
  0
MTEXT
  5
1C6
330
1BE
100
AcDbEntity
  8
0
  6
Continuous
 62
     7
370
     0
100
AcDbMText
 10
99.1202813103
 20
75.91867524
 30
0.0
 40
3.5
 41
0.0
 71
     1
 72
     1
  1
5
  7
SLDTEXTSTYLE0
 11
0.2588190451025306
 21
-0.9659258262890656
 31
0.0
 73
     1
 44
1.0
  0
ENDBLK
  5
1C0
330
1BE
100
AcDbEntity
  8
0
100
AcDbBlockEnd
  0
BLOCK
  5
1CA
330
1C9
100
AcDbEntity
  8
0
100
AcDbBlockBegin
  2
_D_18
 70
     0
 10
0.0
 20
0.0
 30
0.0
  3
_D_18
  1

  0
SOLID
  5
1CC
330
1C9
100
AcDbEntity
  8
0
  6
Continuous
 62
     7
370
     0
100
AcDbTrace
 10
62.7813277403
 20
97.8203383134
 30
0.0
 11
60.087250904
 21
95.8446819667
 31
0.0
 12
60.8056713937
 22
95.1262614771
 32
0.0
 13
60.8056713937
 23
95.1262614771
 33
0.0
  0
LINE
  5
1CD
330
1C9
100
AcDbEntity
  8
0
  6
Continuous
 62
     7
370
     0
100
AcDbLine
 10
62.7813277403
 20
97.8203383134
 30
0.0
 11
29.9966050215
 21
65.0356155945
 31
0.0
  0
LINE
  5
1CE
330
1C9
100
AcDbEntity
  8
0
  6
Continuous
 62
     7
370
     0
100
AcDbLine
 10
62.7813277403
 20
97.8203383134
 30
0.0
 11
66.3168616462
 21
101.3558722193
 31
0.0
  0
MTEXT
  5
1CF
330
1C9
100
AcDbEntity
  8
0
  6
Continuous
 62
     7
370
     0
100
AcDbMText
 10
26.8103298639
 20
68.2218907521
 30
0.0
 40
3.5
 41
0.0
 71
     1
 72
     1
  1
8 X
  7
SLDTEXTSTYLE2
 11
0.7071067811865466
 21
0.7071067811865485
 31
0.0
 73
     1
 44
1.0
  0
MTEXT
  5
1D0
330
1C9
100
AcDbEntity
  8
0
  6
Continuous
 62
     7
370
     0
100
AcDbMText
 10
32.4784784204
 20
73.8900393086
 30
0.0
 40
3.5
 41
0.0
 71
     1
 72
     1
  1
R10
  7
SLDTEXTSTYLE0
 11
0.7071067811865466
 21
0.7071067811865485
 31
0.0
 73
     1
 44
1.0
  0
ENDBLK
  5
1CB
330
1C9
100
AcDbEntity
  8
0
100
AcDbBlockEnd
  0
BLOCK
  5
1D3
330
1D2
100
AcDbEntity
  8
0
100
AcDbBlockBegin
  2
_D_19
 70
     0
 10
0.0
 20
0.0
 30
0.0
  3
_D_19
  1

  0
SOLID
  5
1D5
330
1D2
100
AcDbEntity
  8
0
  6
Continuous
 62
     7
370
     0
100
AcDbTrace
 10
84.5668616462
 20
136.3558722193
 30
0.0
 11
87.8688616462
 21
135.8478722193
 31
0.0
 12
87.8688616462
 22
136.8638722193
 32
0.0
 13
87.8688616462
 23
136.8638722193
 33
0.0
  0
LINE
  5
1D6
330
1D2
100
AcDbEntity
  8
0
  6
Continuous
 62
     7
370
     0
100
AcDbLine
 10
84.5668616462
 20
136.3558722193
 30
0.0
 11
111.4349106507
 21
136.3558722193
 31
0.0
  0
LINE
  5
1D7
330
1D2
100
AcDbEntity
  8
0
  6
Continuous
 62
     7
370
     0
100
AcDbLine
 10
84.5668616462
 20
136.3558722193
 30
0.0
 11
83.0668616462
 21
136.3558722193
 31
0.0
  0
MTEXT
  5
1D8
330
1D2
100
AcDbEntity
  8
0
  6
Continuous
 62
     7
370
     0
100
AcDbMText
 10
95.5543892638
 20
140.893554726
 30
0.0
 40
3.5
 41
0.0
 71
     1
 72
     1
  1
4 X
  7
SLDTEXTSTYLE2
 73
     1
 44
1.0
  0
MTEXT
  5
1D9
330
1D2
100
AcDbEntity
  8
0
  6
Continuous
 62
     7
370
     0
100
AcDbMText
 10
103.570361826
 20
140.8400825493
 30
0.0
 40
3.5
 41
0.0
 71
     1
 72
     1
  1
%%c
  7
SLDTEXTSTYLE0
 73
     1
 44
1.0
  0
MTEXT
  5
1DA
330
1D2
100
AcDbEntity
  8
0
  6
Continuous
 62
     7
370
     0
100
AcDbMText
 10
108.8487992243
 20
140.893554726
 30
0.0
 40
3.5
 41
0.0
 71
     1
 72
     1
  1
3
  7
SLDTEXTSTYLE0
 73
     1
 44
1.0
  0
ENDBLK
  5
1D4
330
1D2
100
AcDbEntity
  8
0
100
AcDbBlockEnd
  0
BLOCK
  5
1DD
330
1DC
100
AcDbEntity
  8
0
100
AcDbBlockBegin
  2
_D_20
 70
     0
 10
0.0
 20
0.0
 30
0.0
  3
_D_20
  1

  0
SOLID
  5
1DF
330
1DC
100
AcDbEntity
  8
0
  6
Continuous
 62
     7
370
     0
100
AcDbTrace
 10
148.8168616462
 20
178.8558722193
 30
0.0
 11
148.3088616462
 21
175.5538722193
 31
0.0
 12
149.3248616462
 22
175.5538722193
 32
0.0
 13
149.3248616462
 23
175.5538722193
 33
0.0
  0
SOLID
  5
1E0
330
1DC
100
AcDbEntity
  8
0
  6
Continuous
 62
     7
370
     0
100
AcDbTrace
 10
148.8168616462
 20
96.3558722193
 30
0.0
 11
149.3248616462
 21
99.6578722193
 31
0.0
 12
148.3088616462
 22
99.6578722193
 32
0.0
 13
148.3088616462
 23
99.6578722193
 33
0.0
  0
LINE
  5
1E1
330
1DC
100
AcDbEntity
  8
0
  6
Continuous
 62
     7
370
     0
100
AcDbLine
 10
86.8168616462
 20
178.8558722193
 30
0.0
 11
149.8168616462
 21
178.8558722193
 31
0.0
  0
LINE
  5
1E2
330
1DC
100
AcDbEntity
  8
0
  6
Continuous
 62
     7
370
     0
100
AcDbLine
 10
81.8168616462
 20
96.3558722193
 30
0.0
 11
149.8168616462
 21
96.3558722193
 31
0.0
  0
LINE
  5
1E3
330
1DC
100
AcDbEntity
  8
0
  6
Continuous
 62
     7
370
     0
100
AcDbLine
 10
148.8168616462
 20
178.8558722193
 30
0.0
 11
148.8168616462
 21
96.3558722193
 31
0.0
  0
MTEXT
  5
1E4
330
1DC
100
AcDbEntity
  8
0
  6
Continuous
 62
     7
370
     0
100
AcDbMText
 10
144.3051247317
 20
129.7795420279
 30
0.0
 40
3.5
 41
0.0
 71
     1
 72
     1
  1
165
  7
SLDTEXTSTYLE0
 11
-7.044195017643634E-15
 21
1.0
 31
0.0
 73
     1
 44
1.0
  0
ENDBLK
  5
1DE
330
1DC
100
AcDbEntity
  8
0
100
AcDbBlockEnd
  0
BLOCK
  5
1E7
330
1E6
100
AcDbEntity
  8
0
100
AcDbBlockBegin
  2
_D_21
 70
     0
 10
0.0
 20
0.0
 30
0.0
  3
_D_21
  1

  0
SOLID
  5
1E9
330
1E6
100
AcDbEntity
  8
0
  6
Continuous
 62
     7
370
     0
100
AcDbTrace
 10
56.8168616462
 20
194.8558722193
 30
0.0
 11
60.1188616462
 21
194.3478722193
 31
0.0
 12
60.1188616462
 22
195.3638722193
 32
0.0
 13
60.1188616462
 23
195.3638722193
 33
0.0
  0
SOLID
  5
1EA
330
1E6
100
AcDbEntity
  8
0
  6
Continuous
 62
     7
370
     0
100
AcDbTrace
 10
90.8168616462
 20
194.8558722193
 30
0.0
 11
87.5148616462
 21
195.3638722193
 31
0.0
 12
87.5148616462
 22
194.3478722193
 32
0.0
 13
87.5148616462
 23
194.3478722193
 33
0.0
  0
LINE
  5
1EB
330
1E6
100
AcDbEntity
  8
0
  6
Continuous
 62
     7
370
     0
100
AcDbLine
 10
56.8168616462
 20
174.8558722193
 30
0.0
 11
56.8168616462
 21
195.8558722193
 31
0.0
  0
LINE
  5
1EC
330
1E6
100
AcDbEntity
  8
0
  6
Continuous
 62
     7
370
     0
100
AcDbLine
 10
90.8168616462
 20
174.8558722193
 30
0.0
 11
90.8168616462
 21
195.8558722193
 31
0.0
  0
LINE
  5
1ED
330
1E6
100
AcDbEntity
  8
0
  6
Continuous
 62
     7
370
     0
100
AcDbLine
 10
56.8168616462
 20
194.8558722193
 30
0.0
 11
90.8168616462
 21
194.8558722193
 31
0.0
  0
MTEXT
  5
1EE
330
1E6
100
AcDbEntity
  8
0
  6
Continuous
 62
     7
370
     0
100
AcDbMText
 10
70.4432157726
 20
199.3676091339
 30
0.0
 40
3.5
 41
0.0
 71
     1
 72
     1
  1
68
  7
SLDTEXTSTYLE0
 73
     1
 44
1.0
  0
ENDBLK
  5
1E8
330
1E6
100
AcDbEntity
  8
0
100
AcDbBlockEnd
  0
BLOCK
  5
1F0
330
1EF
100
AcDbEntity
  8
0
100
AcDbBlockBegin
  2
SW_CENTERMARKSYMBOL_0
 70
     0
 10
0.0
 20
0.0
 30
0.0
  3
SW_CENTERMARKSYMBOL_0
  1

  0
LINE
  5
1F2
330
1EF
100
AcDbEntity
  8
0
  6
Continuous
 62
     0
370
     0
100
AcDbLine
 10
0.0
 20
0.0
 30
0.0
 11
0.0
 21
1.25
 31
0.0
  0
LINE
  5
1F3
330
1EF
100
AcDbEntity
  8
0
  6
Continuous
 62
     0
370
     0
100
AcDbLine
 10
0.0
 20
0.0
 30
0.0
 11
-1.25
 21
0.0
 31
0.0
  0
LINE
  5
1F4
330
1EF
100
AcDbEntity
  8
0
  6
Continuous
 62
     0
370
     0
100
AcDbLine
 10
0.0
 20
0.0
 30
0.0
 11
0.0
 21
-1.25
 31
0.0
  0
LINE
  5
1F5
330
1EF
100
AcDbEntity
  8
0
  6
Continuous
 62
     0
370
     0
100
AcDbLine
 10
0.0
 20
0.0
 30
0.0
 11
1.25
 21
0.0
 31
0.0
  0
LINE
  5
1F6
330
1EF
100
AcDbEntity
  8
0
  6
Continuous
 62
     0
370
     0
100
AcDbLine
 10
0.0
 20
1.25
 30
0.0
 11
0.0
 21
2.0
 31
0.0
  0
LINE
  5
1F7
330
1EF
100
AcDbEntity
  8
0
  6
Continuous
 62
     0
370
     0
100
AcDbLine
 10
-1.25
 20
0.0
 30
0.0
 11
-2.0
 21
0.0
 31
0.0
  0
LINE
  5
1F8
330
1EF
100
AcDbEntity
  8
0
  6
Continuous
 62
     0
370
     0
100
AcDbLine
 10
0.0
 20
-1.25
 30
0.0
 11
0.0
 21
-2.0
 31
0.0
  0
LINE
  5
1F9
330
1EF
100
AcDbEntity
  8
0
  6
Continuous
 62
     0
370
     0
100
AcDbLine
 10
1.25
 20
0.0
 30
0.0
 11
2.0
 21
0.0
 31
0.0
  0
ENDBLK
  5
1F1
330
1EF
100
AcDbEntity
  8
0
100
AcDbBlockEnd
  0
BLOCK
  5
1FC
330
1FB
100
AcDbEntity
  8
0
100
AcDbBlockBegin
  2
SW_CENTERMARKSYMBOL_1
 70
     0
 10
0.0
 20
0.0
 30
0.0
  3
SW_CENTERMARKSYMBOL_1
  1

  0
LINE
  5
1FE
330
1FB
100
AcDbEntity
  8
0
  6
Continuous
 62
     0
370
     0
100
AcDbLine
 10
0.0
 20
0.0
 30
0.0
 11
0.0
 21
1.25
 31
0.0
  0
LINE
  5
1FF
330
1FB
100
AcDbEntity
  8
0
  6
Continuous
 62
     0
370
     0
100
AcDbLine
 10
0.0
 20
0.0
 30
0.0
 11
-1.25
 21
0.0
 31
0.0
  0
LINE
  5
200
330
1FB
100
AcDbEntity
  8
0
  6
Continuous
 62
     0
370
     0
100
AcDbLine
 10
0.0
 20
0.0
 30
0.0
 11
0.0
 21
-1.25
 31
0.0
  0
LINE
  5
201
330
1FB
100
AcDbEntity
  8
0
  6
Continuous
 62
     0
370
     0
100
AcDbLine
 10
0.0
 20
0.0
 30
0.0
 11
1.25
 21
0.0
 31
0.0
  0
LINE
  5
202
330
1FB
100
AcDbEntity
  8
0
  6
Continuous
 62
     0
370
     0
100
AcDbLine
 10
0.0
 20
1.25
 30
0.0
 11
0.0
 21
2.0
 31
0.0
  0
LINE
  5
203
330
1FB
100
AcDbEntity
  8
0
  6
Continuous
 62
     0
370
     0
100
AcDbLine
 10
-1.25
 20
0.0
 30
0.0
 11
-2.0
 21
0.0
 31
0.0
  0
LINE
  5
204
330
1FB
100
AcDbEntity
  8
0
  6
Continuous
 62
     0
370
     0
100
AcDbLine
 10
0.0
 20
-1.25
 30
0.0
 11
0.0
 21
-2.0
 31
0.0
  0
LINE
  5
205
330
1FB
100
AcDbEntity
  8
0
  6
Continuous
 62
     0
370
     0
100
AcDbLine
 10
1.25
 20
0.0
 30
0.0
 11
2.0
 21
0.0
 31
0.0
  0
ENDBLK
  5
1FD
330
1FB
100
AcDbEntity
  8
0
100
AcDbBlockEnd
  0
BLOCK
  5
208
330
207
100
AcDbEntity
  8
0
100
AcDbBlockBegin
  2
SW_CENTERMARKSYMBOL_2
 70
     0
 10
0.0
 20
0.0
 30
0.0
  3
SW_CENTERMARKSYMBOL_2
  1

  0
LINE
  5
20A
330
207
100
AcDbEntity
  8
0
  6
Continuous
 62
     0
370
     0
100
AcDbLine
 10
0.0
 20
0.0
 30
0.0
 11
0.0
 21
1.25
 31
0.0
  0
LINE
  5
20B
330
207
100
AcDbEntity
  8
0
  6
Continuous
 62
     0
370
     0
100
AcDbLine
 10
0.0
 20
0.0
 30
0.0
 11
-1.25
 21
0.0
 31
0.0
  0
LINE
  5
20C
330
207
100
AcDbEntity
  8
0
  6
Continuous
 62
     0
370
     0
100
AcDbLine
 10
0.0
 20
0.0
 30
0.0
 11
0.0
 21
-1.25
 31
0.0
  0
LINE
  5
20D
330
207
100
AcDbEntity
  8
0
  6
Continuous
 62
     0
370
     0
100
AcDbLine
 10
0.0
 20
0.0
 30
0.0
 11
1.25
 21
0.0
 31
0.0
  0
LINE
  5
20E
330
207
100
AcDbEntity
  8
0
  6
Continuous
 62
     0
370
     0
100
AcDbLine
 10
0.0
 20
2.5
 30
0.0
 11
0.0
 21
4.0
 31
0.0
  0
LINE
  5
20F
330
207
100
AcDbEntity
  8
0
  6
Continuous
 62
     0
370
     0
100
AcDbLine
 10
-2.5
 20
0.0
 30
0.0
 11
-4.0
 21
0.0
 31
0.0
  0
LINE
  5
210
330
207
100
AcDbEntity
  8
0
  6
Continuous
 62
     0
370
     0
100
AcDbLine
 10
0.0
 20
-2.5
 30
0.0
 11
0.0
 21
-4.0
 31
0.0
  0
LINE
  5
211
330
207
100
AcDbEntity
  8
0
  6
Continuous
 62
     0
370
     0
100
AcDbLine
 10
2.5
 20
0.0
 30
0.0
 11
4.0
 21
0.0
 31
0.0
  0
ENDBLK
  5
209
330
207
100
AcDbEntity
  8
0
100
AcDbBlockEnd
  0
BLOCK
  5
214
330
213
100
AcDbEntity
  8
0
100
AcDbBlockBegin
  2
SW_CENTERMARKSYMBOL_3
 70
     0
 10
0.0
 20
0.0
 30
0.0
  3
SW_CENTERMARKSYMBOL_3
  1

  0
LINE
  5
216
330
213
100
AcDbEntity
  8
0
  6
Continuous
 62
     0
370
     0
100
AcDbLine
 10
0.0
 20
0.0
 30
0.0
 11
0.0
 21
1.25
 31
0.0
  0
LINE
  5
217
330
213
100
AcDbEntity
  8
0
  6
Continuous
 62
     0
370
     0
100
AcDbLine
 10
0.0
 20
0.0
 30
0.0
 11
-1.25
 21
0.0
 31
0.0
  0
LINE
  5
218
330
213
100
AcDbEntity
  8
0
  6
Continuous
 62
     0
370
     0
100
AcDbLine
 10
0.0
 20
0.0
 30
0.0
 11
0.0
 21
-1.25
 31
0.0
  0
LINE
  5
219
330
213
100
AcDbEntity
  8
0
  6
Continuous
 62
     0
370
     0
100
AcDbLine
 10
0.0
 20
0.0
 30
0.0
 11
1.25
 21
0.0
 31
0.0
  0
LINE
  5
21A
330
213
100
AcDbEntity
  8
0
  6
Continuous
 62
     0
370
     0
100
AcDbLine
 10
0.0
 20
1.25
 30
0.0
 11
0.0
 21
2.0
 31
0.0
  0
LINE
  5
21B
330
213
100
AcDbEntity
  8
0
  6
Continuous
 62
     0
370
     0
100
AcDbLine
 10
-1.25
 20
0.0
 30
0.0
 11
-2.0
 21
0.0
 31
0.0
  0
LINE
  5
21C
330
213
100
AcDbEntity
  8
0
  6
Continuous
 62
     0
370
     0
100
AcDbLine
 10
0.0
 20
-1.25
 30
0.0
 11
0.0
 21
-2.0
 31
0.0
  0
LINE
  5
21D
330
213
100
AcDbEntity
  8
0
  6
Continuous
 62
     0
370
     0
100
AcDbLine
 10
1.25
 20
0.0
 30
0.0
 11
2.0
 21
0.0
 31
0.0
  0
ENDBLK
  5
215
330
213
100
AcDbEntity
  8
0
100
AcDbBlockEnd
  0
BLOCK
  5
220
330
21F
100
AcDbEntity
  8
0
100
AcDbBlockBegin
  2
SW_CENTERMARKSYMBOL_4
 70
     0
 10
0.0
 20
0.0
 30
0.0
  3
SW_CENTERMARKSYMBOL_4
  1

  0
LINE
  5
222
330
21F
100
AcDbEntity
  8
0
  6
Continuous
 62
     0
370
     0
100
AcDbLine
 10
0.0
 20
0.0
 30
0.0
 11
0.0
 21
1.25
 31
0.0
  0
LINE
  5
223
330
21F
100
AcDbEntity
  8
0
  6
Continuous
 62
     0
370
     0
100
AcDbLine
 10
0.0
 20
0.0
 30
0.0
 11
-1.25
 21
0.0
 31
0.0
  0
LINE
  5
224
330
21F
100
AcDbEntity
  8
0
  6
Continuous
 62
     0
370
     0
100
AcDbLine
 10
0.0
 20
0.0
 30
0.0
 11
0.0
 21
-1.25
 31
0.0
  0
LINE
  5
225
330
21F
100
AcDbEntity
  8
0
  6
Continuous
 62
     0
370
     0
100
AcDbLine
 10
0.0
 20
0.0
 30
0.0
 11
1.25
 21
0.0
 31
0.0
  0
LINE
  5
226
330
21F
100
AcDbEntity
  8
0
  6
Continuous
 62
     0
370
     0
100
AcDbLine
 10
0.0
 20
1.25
 30
0.0
 11
0.0
 21
2.0
 31
0.0
  0
LINE
  5
227
330
21F
100
AcDbEntity
  8
0
  6
Continuous
 62
     0
370
     0
100
AcDbLine
 10
-1.25
 20
0.0
 30
0.0
 11
-2.0
 21
0.0
 31
0.0
  0
LINE
  5
228
330
21F
100
AcDbEntity
  8
0
  6
Continuous
 62
     0
370
     0
100
AcDbLine
 10
0.0
 20
-1.25
 30
0.0
 11
0.0
 21
-2.0
 31
0.0
  0
LINE
  5
229
330
21F
100
AcDbEntity
  8
0
  6
Continuous
 62
     0
370
     0
100
AcDbLine
 10
1.25
 20
0.0
 30
0.0
 11
2.0
 21
0.0
 31
0.0
  0
ENDBLK
  5
221
330
21F
100
AcDbEntity
  8
0
100
AcDbBlockEnd
  0
BLOCK
  5
22C
330
22B
100
AcDbEntity
  8
0
100
AcDbBlockBegin
  2
SW_CENTERMARKSYMBOL_5
 70
     0
 10
0.0
 20
0.0
 30
0.0
  3
SW_CENTERMARKSYMBOL_5
  1

  0
LINE
  5
22E
330
22B
100
AcDbEntity
  8
0
  6
Continuous
 62
     0
370
     0
100
AcDbLine
 10
0.0
 20
0.0
 30
0.0
 11
0.0
 21
1.25
 31
0.0
  0
LINE
  5
22F
330
22B
100
AcDbEntity
  8
0
  6
Continuous
 62
     0
370
     0
100
AcDbLine
 10
0.0
 20
0.0
 30
0.0
 11
-1.25
 21
0.0
 31
0.0
  0
LINE
  5
230
330
22B
100
AcDbEntity
  8
0
  6
Continuous
 62
     0
370
     0
100
AcDbLine
 10
0.0
 20
0.0
 30
0.0
 11
0.0
 21
-1.25
 31
0.0
  0
LINE
  5
231
330
22B
100
AcDbEntity
  8
0
  6
Continuous
 62
     0
370
     0
100
AcDbLine
 10
0.0
 20
0.0
 30
0.0
 11
1.25
 21
0.0
 31
0.0
  0
LINE
  5
232
330
22B
100
AcDbEntity
  8
0
  6
Continuous
 62
     0
370
     0
100
AcDbLine
 10
0.0
 20
2.5
 30
0.0
 11
0.0
 21
4.0
 31
0.0
  0
LINE
  5
233
330
22B
100
AcDbEntity
  8
0
  6
Continuous
 62
     0
370
     0
100
AcDbLine
 10
-2.5
 20
0.0
 30
0.0
 11
-4.0
 21
0.0
 31
0.0
  0
LINE
  5
234
330
22B
100
AcDbEntity
  8
0
  6
Continuous
 62
     0
370
     0
100
AcDbLine
 10
0.0
 20
-2.5
 30
0.0
 11
0.0
 21
-4.0
 31
0.0
  0
LINE
  5
235
330
22B
100
AcDbEntity
  8
0
  6
Continuous
 62
     0
370
     0
100
AcDbLine
 10
2.5
 20
0.0
 30
0.0
 11
4.0
 21
0.0
 31
0.0
  0
ENDBLK
  5
22D
330
22B
100
AcDbEntity
  8
0
100
AcDbBlockEnd
  0
BLOCK
  5
238
330
237
100
AcDbEntity
  8
0
100
AcDbBlockBegin
  2
SW_CENTERMARKSYMBOL_6
 70
     0
 10
0.0
 20
0.0
 30
0.0
  3
SW_CENTERMARKSYMBOL_6
  1

  0
LINE
  5
23A
330
237
100
AcDbEntity
  8
0
  6
Continuous
 62
     0
370
     0
100
AcDbLine
 10
0.0
 20
0.0
 30
0.0
 11
0.0
 21
1.25
 31
0.0
  0
LINE
  5
23B
330
237
100
AcDbEntity
  8
0
  6
Continuous
 62
     0
370
     0
100
AcDbLine
 10
0.0
 20
0.0
 30
0.0
 11
-1.25
 21
0.0
 31
0.0
  0
LINE
  5
23C
330
237
100
AcDbEntity
  8
0
  6
Continuous
 62
     0
370
     0
100
AcDbLine
 10
0.0
 20
0.0
 30
0.0
 11
0.0
 21
-1.25
 31
0.0
  0
LINE
  5
23D
330
237
100
AcDbEntity
  8
0
  6
Continuous
 62
     0
370
     0
100
AcDbLine
 10
0.0
 20
0.0
 30
0.0
 11
1.25
 21
0.0
 31
0.0
  0
LINE
  5
23E
330
237
100
AcDbEntity
  8
0
  6
Continuous
 62
     0
370
     0
100
AcDbLine
 10
0.0
 20
1.25
 30
0.0
 11
0.0
 21
2.5
 31
0.0
  0
LINE
  5
23F
330
237
100
AcDbEntity
  8
0
  6
Continuous
 62
     0
370
     0
100
AcDbLine
 10
-1.25
 20
0.0
 30
0.0
 11
-2.5
 21
0.0
 31
0.0
  0
LINE
  5
240
330
237
100
AcDbEntity
  8
0
  6
Continuous
 62
     0
370
     0
100
AcDbLine
 10
0.0
 20
-1.25
 30
0.0
 11
0.0
 21
-2.5
 31
0.0
  0
LINE
  5
241
330
237
100
AcDbEntity
  8
0
  6
Continuous
 62
     0
370
     0
100
AcDbLine
 10
1.25
 20
0.0
 30
0.0
 11
2.5
 21
0.0
 31
0.0
  0
ENDBLK
  5
239
330
237
100
AcDbEntity
  8
0
100
AcDbBlockEnd
  0
BLOCK
  5
244
330
243
100
AcDbEntity
  8
0
100
AcDbBlockBegin
  2
SW_CENTERMARKSYMBOL_7
 70
     0
 10
0.0
 20
0.0
 30
0.0
  3
SW_CENTERMARKSYMBOL_7
  1

  0
LINE
  5
246
330
243
100
AcDbEntity
  8
0
  6
Continuous
 62
     0
370
     0
100
AcDbLine
 10
0.0
 20
0.0
 30
0.0
 11
0.0
 21
1.25
 31
0.0
  0
LINE
  5
247
330
243
100
AcDbEntity
  8
0
  6
Continuous
 62
     0
370
     0
100
AcDbLine
 10
0.0
 20
0.0
 30
0.0
 11
-1.25
 21
0.0
 31
0.0
  0
LINE
  5
248
330
243
100
AcDbEntity
  8
0
  6
Continuous
 62
     0
370
     0
100
AcDbLine
 10
0.0
 20
0.0
 30
0.0
 11
0.0
 21
-1.25
 31
0.0
  0
LINE
  5
249
330
243
100
AcDbEntity
  8
0
  6
Continuous
 62
     0
370
     0
100
AcDbLine
 10
0.0
 20
0.0
 30
0.0
 11
1.25
 21
0.0
 31
0.0
  0
LINE
  5
24A
330
243
100
AcDbEntity
  8
0
  6
Continuous
 62
     0
370
     0
100
AcDbLine
 10
0.0
 20
1.25
 30
0.0
 11
0.0
 21
2.5
 31
0.0
  0
LINE
  5
24B
330
243
100
AcDbEntity
  8
0
  6
Continuous
 62
     0
370
     0
100
AcDbLine
 10
-1.25
 20
0.0
 30
0.0
 11
-2.5
 21
0.0
 31
0.0
  0
LINE
  5
24C
330
243
100
AcDbEntity
  8
0
  6
Continuous
 62
     0
370
     0
100
AcDbLine
 10
0.0
 20
-1.25
 30
0.0
 11
0.0
 21
-2.5
 31
0.0
  0
LINE
  5
24D
330
243
100
AcDbEntity
  8
0
  6
Continuous
 62
     0
370
     0
100
AcDbLine
 10
1.25
 20
0.0
 30
0.0
 11
2.5
 21
0.0
 31
0.0
  0
ENDBLK
  5
245
330
243
100
AcDbEntity
  8
0
100
AcDbBlockEnd
  0
BLOCK
  5
250
330
24F
100
AcDbEntity
  8
0
100
AcDbBlockBegin
  2
SW_CENTERMARKSYMBOL_8
 70
     0
 10
0.0
 20
0.0
 30
0.0
  3
SW_CENTERMARKSYMBOL_8
  1

  0
LINE
  5
252
330
24F
100
AcDbEntity
  8
0
  6
Continuous
 62
     0
370
     0
100
AcDbLine
 10
0.0
 20
0.0
 30
0.0
 11
0.0
 21
1.25
 31
0.0
  0
LINE
  5
253
330
24F
100
AcDbEntity
  8
0
  6
Continuous
 62
     0
370
     0
100
AcDbLine
 10
0.0
 20
0.0
 30
0.0
 11
-1.25
 21
0.0
 31
0.0
  0
LINE
  5
254
330
24F
100
AcDbEntity
  8
0
  6
Continuous
 62
     0
370
     0
100
AcDbLine
 10
0.0
 20
0.0
 30
0.0
 11
0.0
 21
-1.25
 31
0.0
  0
LINE
  5
255
330
24F
100
AcDbEntity
  8
0
  6
Continuous
 62
     0
370
     0
100
AcDbLine
 10
0.0
 20
0.0
 30
0.0
 11
1.25
 21
0.0
 31
0.0
  0
LINE
  5
256
330
24F
100
AcDbEntity
  8
0
  6
Continuous
 62
     0
370
     0
100
AcDbLine
 10
0.0
 20
1.25
 30
0.0
 11
0.0
 21
2.5
 31
0.0
  0
LINE
  5
257
330
24F
100
AcDbEntity
  8
0
  6
Continuous
 62
     0
370
     0
100
AcDbLine
 10
-1.25
 20
0.0
 30
0.0
 11
-2.5
 21
0.0
 31
0.0
  0
LINE
  5
258
330
24F
100
AcDbEntity
  8
0
  6
Continuous
 62
     0
370
     0
100
AcDbLine
 10
0.0
 20
-1.25
 30
0.0
 11
0.0
 21
-2.5
 31
0.0
  0
LINE
  5
259
330
24F
100
AcDbEntity
  8
0
  6
Continuous
 62
     0
370
     0
100
AcDbLine
 10
1.25
 20
0.0
 30
0.0
 11
2.5
 21
0.0
 31
0.0
  0
ENDBLK
  5
251
330
24F
100
AcDbEntity
  8
0
100
AcDbBlockEnd
  0
BLOCK
  5
25C
330
25B
100
AcDbEntity
  8
0
100
AcDbBlockBegin
  2
SW_CENTERMARKSYMBOL_9
 70
     0
 10
0.0
 20
0.0
 30
0.0
  3
SW_CENTERMARKSYMBOL_9
  1

  0
LINE
  5
25E
330
25B
100
AcDbEntity
  8
0
  6
Continuous
 62
     0
370
     0
100
AcDbLine
 10
0.0
 20
0.0
 30
0.0
 11
0.0
 21
1.25
 31
0.0
  0
LINE
  5
25F
330
25B
100
AcDbEntity
  8
0
  6
Continuous
 62
     0
370
     0
100
AcDbLine
 10
0.0
 20
0.0
 30
0.0
 11
-1.25
 21
0.0
 31
0.0
  0
LINE
  5
260
330
25B
100
AcDbEntity
  8
0
  6
Continuous
 62
     0
370
     0
100
AcDbLine
 10
0.0
 20
0.0
 30
0.0
 11
0.0
 21
-1.25
 31
0.0
  0
LINE
  5
261
330
25B
100
AcDbEntity
  8
0
  6
Continuous
 62
     0
370
     0
100
AcDbLine
 10
0.0
 20
0.0
 30
0.0
 11
1.25
 21
0.0
 31
0.0
  0
LINE
  5
262
330
25B
100
AcDbEntity
  8
0
  6
Continuous
 62
     0
370
     0
100
AcDbLine
 10
0.0
 20
1.25
 30
0.0
 11
0.0
 21
2.5
 31
0.0
  0
LINE
  5
263
330
25B
100
AcDbEntity
  8
0
  6
Continuous
 62
     0
370
     0
100
AcDbLine
 10
-1.25
 20
0.0
 30
0.0
 11
-2.5
 21
0.0
 31
0.0
  0
LINE
  5
264
330
25B
100
AcDbEntity
  8
0
  6
Continuous
 62
     0
370
     0
100
AcDbLine
 10
0.0
 20
-1.25
 30
0.0
 11
0.0
 21
-2.5
 31
0.0
  0
LINE
  5
265
330
25B
100
AcDbEntity
  8
0
  6
Continuous
 62
     0
370
     0
100
AcDbLine
 10
1.25
 20
0.0
 30
0.0
 11
2.5
 21
0.0
 31
0.0
  0
ENDBLK
  5
25D
330
25B
100
AcDbEntity
  8
0
100
AcDbBlockEnd
  0
BLOCK
  5
268
330
267
100
AcDbEntity
  8
0
100
AcDbBlockBegin
  2
SW_CENTERMARKSYMBOL_10
 70
     0
 10
0.0
 20
0.0
 30
0.0
  3
SW_CENTERMARKSYMBOL_10
  1

  0
LINE
  5
26A
330
267
100
AcDbEntity
  8
0
  6
Continuous
 62
     0
370
     0
100
AcDbLine
 10
0.0
 20
0.0
 30
0.0
 11
0.0
 21
1.25
 31
0.0
  0
LINE
  5
26B
330
267
100
AcDbEntity
  8
0
  6
Continuous
 62
     0
370
     0
100
AcDbLine
 10
0.0
 20
0.0
 30
0.0
 11
-1.25
 21
0.0
 31
0.0
  0
LINE
  5
26C
330
267
100
AcDbEntity
  8
0
  6
Continuous
 62
     0
370
     0
100
AcDbLine
 10
0.0
 20
0.0
 30
0.0
 11
0.0
 21
-1.25
 31
0.0
  0
LINE
  5
26D
330
267
100
AcDbEntity
  8
0
  6
Continuous
 62
     0
370
     0
100
AcDbLine
 10
0.0
 20
0.0
 30
0.0
 11
1.25
 21
0.0
 31
0.0
  0
LINE
  5
26E
330
267
100
AcDbEntity
  8
0
  6
Continuous
 62
     0
370
     0
100
AcDbLine
 10
0.0
 20
1.25
 30
0.0
 11
0.0
 21
1.9
 31
0.0
  0
LINE
  5
26F
330
267
100
AcDbEntity
  8
0
  6
Continuous
 62
     0
370
     0
100
AcDbLine
 10
-1.25
 20
0.0
 30
0.0
 11
-1.9
 21
0.0
 31
0.0
  0
LINE
  5
270
330
267
100
AcDbEntity
  8
0
  6
Continuous
 62
     0
370
     0
100
AcDbLine
 10
0.0
 20
-1.25
 30
0.0
 11
0.0
 21
-1.9
 31
0.0
  0
LINE
  5
271
330
267
100
AcDbEntity
  8
0
  6
Continuous
 62
     0
370
     0
100
AcDbLine
 10
1.25
 20
0.0
 30
0.0
 11
1.9
 21
0.0
 31
0.0
  0
ENDBLK
  5
269
330
267
100
AcDbEntity
  8
0
100
AcDbBlockEnd
  0
BLOCK
  5
274
330
273
100
AcDbEntity
  8
0
100
AcDbBlockBegin
  2
SW_CENTERMARKSYMBOL_11
 70
     0
 10
0.0
 20
0.0
 30
0.0
  3
SW_CENTERMARKSYMBOL_11
  1

  0
LINE
  5
276
330
273
100
AcDbEntity
  8
0
  6
Continuous
 62
     0
370
     0
100
AcDbLine
 10
0.0
 20
0.0
 30
0.0
 11
0.0
 21
1.25
 31
0.0
  0
LINE
  5
277
330
273
100
AcDbEntity
  8
0
  6
Continuous
 62
     0
370
     0
100
AcDbLine
 10
0.0
 20
0.0
 30
0.0
 11
-1.25
 21
0.0
 31
0.0
  0
LINE
  5
278
330
273
100
AcDbEntity
  8
0
  6
Continuous
 62
     0
370
     0
100
AcDbLine
 10
0.0
 20
0.0
 30
0.0
 11
0.0
 21
-1.25
 31
0.0
  0
LINE
  5
279
330
273
100
AcDbEntity
  8
0
  6
Continuous
 62
     0
370
     0
100
AcDbLine
 10
0.0
 20
0.0
 30
0.0
 11
1.25
 21
0.0
 31
0.0
  0
LINE
  5
27A
330
273
100
AcDbEntity
  8
0
  6
Continuous
 62
     0
370
     0
100
AcDbLine
 10
0.0
 20
1.25
 30
0.0
 11
0.0
 21
1.9
 31
0.0
  0
LINE
  5
27B
330
273
100
AcDbEntity
  8
0
  6
Continuous
 62
     0
370
     0
100
AcDbLine
 10
-1.25
 20
0.0
 30
0.0
 11
-1.9
 21
0.0
 31
0.0
  0
LINE
  5
27C
330
273
100
AcDbEntity
  8
0
  6
Continuous
 62
     0
370
     0
100
AcDbLine
 10
0.0
 20
-1.25
 30
0.0
 11
0.0
 21
-1.9
 31
0.0
  0
LINE
  5
27D
330
273
100
AcDbEntity
  8
0
  6
Continuous
 62
     0
370
     0
100
AcDbLine
 10
1.25
 20
0.0
 30
0.0
 11
1.9
 21
0.0
 31
0.0
  0
ENDBLK
  5
275
330
273
100
AcDbEntity
  8
0
100
AcDbBlockEnd
  0
BLOCK
  5
280
330
27F
100
AcDbEntity
  8
0
100
AcDbBlockBegin
  2
SW_CENTERMARKSYMBOL_12
 70
     0
 10
0.0
 20
0.0
 30
0.0
  3
SW_CENTERMARKSYMBOL_12
  1

  0
LINE
  5
282
330
27F
100
AcDbEntity
  8
0
  6
Continuous
 62
     0
370
     0
100
AcDbLine
 10
0.0
 20
0.0
 30
0.0
 11
0.0
 21
1.25
 31
0.0
  0
LINE
  5
283
330
27F
100
AcDbEntity
  8
0
  6
Continuous
 62
     0
370
     0
100
AcDbLine
 10
0.0
 20
0.0
 30
0.0
 11
-1.25
 21
0.0
 31
0.0
  0
LINE
  5
284
330
27F
100
AcDbEntity
  8
0
  6
Continuous
 62
     0
370
     0
100
AcDbLine
 10
0.0
 20
0.0
 30
0.0
 11
0.0
 21
-1.25
 31
0.0
  0
LINE
  5
285
330
27F
100
AcDbEntity
  8
0
  6
Continuous
 62
     0
370
     0
100
AcDbLine
 10
0.0
 20
0.0
 30
0.0
 11
1.25
 21
0.0
 31
0.0
  0
LINE
  5
286
330
27F
100
AcDbEntity
  8
0
  6
Continuous
 62
     0
370
     0
100
AcDbLine
 10
0.0
 20
2.5
 30
0.0
 11
0.0
 21
3.75
 31
0.0
  0
LINE
  5
287
330
27F
100
AcDbEntity
  8
0
  6
Continuous
 62
     0
370
     0
100
AcDbLine
 10
-2.5
 20
0.0
 30
0.0
 11
-3.75
 21
0.0
 31
0.0
  0
LINE
  5
288
330
27F
100
AcDbEntity
  8
0
  6
Continuous
 62
     0
370
     0
100
AcDbLine
 10
0.0
 20
-2.5
 30
0.0
 11
0.0
 21
-3.75
 31
0.0
  0
LINE
  5
289
330
27F
100
AcDbEntity
  8
0
  6
Continuous
 62
     0
370
     0
100
AcDbLine
 10
2.5
 20
0.0
 30
0.0
 11
3.75
 21
0.0
 31
0.0
  0
ENDBLK
  5
281
330
27F
100
AcDbEntity
  8
0
100
AcDbBlockEnd
  0
BLOCK
  5
28C
330
28B
100
AcDbEntity
  8
0
100
AcDbBlockBegin
  2
SW_CENTERMARKSYMBOL_13
 70
     0
 10
0.0
 20
0.0
 30
0.0
  3
SW_CENTERMARKSYMBOL_13
  1

  0
LINE
  5
28E
330
28B
100
AcDbEntity
  8
0
  6
Continuous
 62
     0
370
     0
100
AcDbLine
 10
0.0
 20
0.0
 30
0.0
 11
0.0
 21
1.25
 31
0.0
  0
LINE
  5
28F
330
28B
100
AcDbEntity
  8
0
  6
Continuous
 62
     0
370
     0
100
AcDbLine
 10
0.0
 20
0.0
 30
0.0
 11
-1.25
 21
0.0
 31
0.0
  0
LINE
  5
290
330
28B
100
AcDbEntity
  8
0
  6
Continuous
 62
     0
370
     0
100
AcDbLine
 10
0.0
 20
0.0
 30
0.0
 11
0.0
 21
-1.25
 31
0.0
  0
LINE
  5
291
330
28B
100
AcDbEntity
  8
0
  6
Continuous
 62
     0
370
     0
100
AcDbLine
 10
0.0
 20
0.0
 30
0.0
 11
1.25
 21
0.0
 31
0.0
  0
LINE
  5
292
330
28B
100
AcDbEntity
  8
0
  6
Continuous
 62
     0
370
     0
100
AcDbLine
 10
0.0
 20
1.25
 30
0.0
 11
0.0
 21
1.9
 31
0.0
  0
LINE
  5
293
330
28B
100
AcDbEntity
  8
0
  6
Continuous
 62
     0
370
     0
100
AcDbLine
 10
-1.25
 20
0.0
 30
0.0
 11
-1.9
 21
0.0
 31
0.0
  0
LINE
  5
294
330
28B
100
AcDbEntity
  8
0
  6
Continuous
 62
     0
370
     0
100
AcDbLine
 10
0.0
 20
-1.25
 30
0.0
 11
0.0
 21
-1.9
 31
0.0
  0
LINE
  5
295
330
28B
100
AcDbEntity
  8
0
  6
Continuous
 62
     0
370
     0
100
AcDbLine
 10
1.25
 20
0.0
 30
0.0
 11
1.9
 21
0.0
 31
0.0
  0
ENDBLK
  5
28D
330
28B
100
AcDbEntity
  8
0
100
AcDbBlockEnd
  0
BLOCK
  5
298
330
297
100
AcDbEntity
  8
0
100
AcDbBlockBegin
  2
SW_CENTERMARKSYMBOL_14
 70
     0
 10
0.0
 20
0.0
 30
0.0
  3
SW_CENTERMARKSYMBOL_14
  1

  0
LINE
  5
29A
330
297
100
AcDbEntity
  8
0
  6
Continuous
 62
     0
370
     0
100
AcDbLine
 10
0.0
 20
0.0
 30
0.0
 11
0.0
 21
1.25
 31
0.0
  0
LINE
  5
29B
330
297
100
AcDbEntity
  8
0
  6
Continuous
 62
     0
370
     0
100
AcDbLine
 10
0.0
 20
0.0
 30
0.0
 11
-1.25
 21
0.0
 31
0.0
  0
LINE
  5
29C
330
297
100
AcDbEntity
  8
0
  6
Continuous
 62
     0
370
     0
100
AcDbLine
 10
0.0
 20
0.0
 30
0.0
 11
0.0
 21
-1.25
 31
0.0
  0
LINE
  5
29D
330
297
100
AcDbEntity
  8
0
  6
Continuous
 62
     0
370
     0
100
AcDbLine
 10
0.0
 20
0.0
 30
0.0
 11
1.25
 21
0.0
 31
0.0
  0
LINE
  5
29E
330
297
100
AcDbEntity
  8
0
  6
Continuous
 62
     0
370
     0
100
AcDbLine
 10
0.0
 20
1.25
 30
0.0
 11
0.0
 21
1.9
 31
0.0
  0
LINE
  5
29F
330
297
100
AcDbEntity
  8
0
  6
Continuous
 62
     0
370
     0
100
AcDbLine
 10
-1.25
 20
0.0
 30
0.0
 11
-1.9
 21
0.0
 31
0.0
  0
LINE
  5
2A0
330
297
100
AcDbEntity
  8
0
  6
Continuous
 62
     0
370
     0
100
AcDbLine
 10
0.0
 20
-1.25
 30
0.0
 11
0.0
 21
-1.9
 31
0.0
  0
LINE
  5
2A1
330
297
100
AcDbEntity
  8
0
  6
Continuous
 62
     0
370
     0
100
AcDbLine
 10
1.25
 20
0.0
 30
0.0
 11
1.9
 21
0.0
 31
0.0
  0
ENDBLK
  5
299
330
297
100
AcDbEntity
  8
0
100
AcDbBlockEnd
  0
BLOCK
  5
2C2
330
2C1
100
AcDbEntity
  8
0
100
AcDbBlockBegin
  2
_D_22
 70
     0
 10
0.0
 20
0.0
 30
0.0
  3
_D_22
  1

  0
SOLID
  5
2C4
330
2C1
100
AcDbEntity
  8
0
  6
Continuous
 62
     7
370
     0
100
AcDbTrace
 10
106.8168616462
 20
230.1877748849
 30
0.0
 11
107.3248616462
 21
233.4897748849
 31
0.0
 12
106.3088616462
 22
233.4897748849
 32
0.0
 13
106.3088616462
 23
233.4897748849
 33
0.0
  0
SOLID
  5
2C5
330
2C1
100
AcDbEntity
  8
0
  6
Continuous
 62
     7
370
     0
100
AcDbTrace
 10
106.8168616462
 20
229.1877748849
 30
0.0
 11
106.3088616462
 21
225.8857748849
 31
0.0
 12
107.3248616462
 22
225.8857748849
 32
0.0
 13
107.3248616462
 23
225.8857748849
 33
0.0
  0
LINE
  5
2C6
330
2C1
100
AcDbEntity
  8
0
  6
Continuous
 62
     7
370
     0
100
AcDbLine
 10
91.8168616462
 20
230.1877748849
 30
0.0
 11
107.8168616462
 21
230.1877748849
 31
0.0
  0
LINE
  5
2C7
330
2C1
100
AcDbEntity
  8
0
  6
Continuous
 62
     7
370
     0
100
AcDbLine
 10
91.8168616462
 20
229.1877748849
 30
0.0
 11
107.8168616462
 21
229.1877748849
 31
0.0
  0
LINE
  5
2C8
330
2C1
100
AcDbEntity
  8
0
  6
Continuous
 62
     7
370
     0
100
AcDbLine
 10
106.8168616462
 20
230.1877748849
 30
0.0
 11
106.8168616462
 21
236.5377748849
 31
0.0
  0
LINE
  5
2C9
330
2C1
100
AcDbEntity
  8
0
  6
Continuous
 62
     7
370
     0
100
AcDbLine
 10
106.8168616462
 20
230.1877748849
 30
0.0
 11
106.8168616462
 21
229.1877748849
 31
0.0
  0
LINE
  5
2CA
330
2C1
100
AcDbEntity
  8
0
  6
Continuous
 62
     7
370
     0
100
AcDbLine
 10
106.8168616462
 20
229.1877748849
 30
0.0
 11
106.8168616462
 21
227.3757900818
 31
0.0
  0
MTEXT
  5
2CB
330
2C1
100
AcDbEntity
  8
0
  6
Continuous
 62
     7
370
     0
100
AcDbMText
 10
102.3051247317
 20
227.3757900818
 30
0.0
 40
3.5
 41
0.0
 71
     1
 72
     1
  1
2
  7
SLDTEXTSTYLE0
 11
-1.059690869644414E-14
 21
1.0
 31
0.0
 73
     1
 44
1.0
  0
ENDBLK
  5
2C3
330
2C1
100
AcDbEntity
  8
0
100
AcDbBlockEnd
  0
BLOCK
  5
2CE
330
2CD
100
AcDbEntity
  8
0
100
AcDbBlockBegin
  2
_D_23
 70
     0
 10
0.0
 20
0.0
 30
0.0
  3
_D_23
  1

  0
SOLID
  5
2D0
330
2CD
100
AcDbEntity
  8
0
  6
Continuous
 62
     7
370
     0
100
AcDbTrace
 10
85.8168616462
 20
234.1530444173
 30
0.0
 11
82.5148616462
 21
234.6610444173
 31
0.0
 12
82.5148616462
 22
233.6450444173
 32
0.0
 13
82.5148616462
 23
233.6450444173
 33
0.0
  0
SOLID
  5
2D1
330
2CD
100
AcDbEntity
  8
0
  6
Continuous
 62
     7
370
     0
100
AcDbTrace
 10
90.8168616462
 20
234.1530444173
 30
0.0
 11
94.1188616462
 21
233.6450444173
 31
0.0
 12
94.1188616462
 22
234.6610444173
 32
0.0
 13
94.1188616462
 23
234.6610444173
 33
0.0
  0
LINE
  5
2D2
330
2CD
100
AcDbEntity
  8
0
  6
Continuous
 62
     7
370
     0
100
AcDbLine
 10
85.8168616462
 20
231.1877748849
 30
0.0
 11
85.8168616462
 21
235.1530444173
 31
0.0
  0
LINE
  5
2D3
330
2CD
100
AcDbEntity
  8
0
  6
Continuous
 62
     7
370
     0
100
AcDbLine
 10
90.8168616462
 20
231.1877748849
 30
0.0
 11
90.8168616462
 21
235.1530444173
 31
0.0
  0
LINE
  5
2D4
330
2CD
100
AcDbEntity
  8
0
  6
Continuous
 62
     7
370
     0
100
AcDbLine
 10
85.8168616462
 20
234.1530444173
 30
0.0
 11
79.4668616462
 21
234.1530444173
 31
0.0
  0
LINE
  5
2D5
330
2CD
100
AcDbEntity
  8
0
  6
Continuous
 62
     7
370
     0
100
AcDbLine
 10
85.8168616462
 20
234.1530444173
 30
0.0
 11
90.8168616462
 21
234.1530444173
 31
0.0
  0
LINE
  5
2D6
330
2CD
100
AcDbEntity
  8
0
  6
Continuous
 62
     7
370
     0
100
AcDbLine
 10
90.8168616462
 20
234.1530444173
 30
0.0
 11
106.2888694544
 21
234.1530444173
 31
0.0
  0
MTEXT
  5
2D7
330
2CD
100
AcDbEntity
  8
0
  6
Continuous
 62
     7
370
     0
100
AcDbMText
 10
101.1166470674
 20
238.6647813319
 30
0.0
 40
3.5
 41
0.0
 71
     1
 72
     1
  1
10
  7
SLDTEXTSTYLE0
 73
     1
 44
1.0
  0
ENDBLK
  5
2CF
330
2CD
100
AcDbEntity
  8
0
100
AcDbBlockEnd
  0
ENDSEC
  0
SECTION
  2
ENTITIES
  0
LINE
  5
74
330
1F
100
AcDbEntity
  8
0
  6
Continuous
 62
     7
370
    40
100
AcDbLine
 10
20.0
 20
14.25
 30
0.0
 11
200.0
 21
14.25
 31
0.0
  0
LINE
  5
75
330
1F
100
AcDbEntity
  8
0
  6
Continuous
 62
     7
370
    40
100
AcDbLine
 10
200.0
 20
48.25
 30
0.0
 11
20.0
 21
48.25
 31
0.0
  0
LINE
  5
76
330
1F
100
AcDbEntity
  8
0
  6
Continuous
 62
     7
370
    40
100
AcDbLine
 10
20.0
 20
65.25
 30
0.0
 11
200.0
 21
65.25
 31
0.0
  0
LINE
  5
77
330
1F
100
AcDbEntity
  8
0
  6
Continuous
 62
     7
370
    40
100
AcDbLine
 10
46.9909524338
 20
48.25
 30
0.0
 11
46.9909524338
 21
10.0
 31
0.0
  0
LINE
  5
78
330
1F
100
AcDbEntity
  8
0
  6
Continuous
 62
     7
370
    40
100
AcDbLine
 10
118.8
 20
31.25
 30
0.0
 11
20.0
 21
31.25
 31
0.0
  0
LINE
  5
79
330
1F
100
AcDbEntity
  8
0
  6
Continuous
 62
     7
370
    40
100
AcDbLine
 10
118.8
 20
35.5
 30
0.0
 11
20.0
 21
35.5
 31
0.0
  0
LINE
  5
7A
330
1F
100
AcDbEntity
  8
0
  6
Continuous
 62
     7
370
    40
100
AcDbLine
 10
118.8
 20
39.75
 30
0.0
 11
20.0
 21
39.75
 31
0.0
  0
LINE
  5
7B
330
1F
100
AcDbEntity
  8
0
  6
Continuous
 62
     7
370
    40
100
AcDbLine
 10
118.8
 20
44.0
 30
0.0
 11
20.0
 21
44.0
 31
0.0
  0
LINE
  5
7C
330
1F
100
AcDbEntity
  8
0
  6
Continuous
 62
     7
370
    40
100
AcDbLine
 10
74.6
 20
10.0
 30
0.0
 11
74.6
 21
48.25
 31
0.0
  0
LINE
  5
7D
330
1F
100
AcDbEntity
  8
0
  6
Continuous
 62
     7
370
    40
100
AcDbLine
 10
27.8
 20
48.25
 30
0.0
 11
27.8
 21
10.0
 31
0.0
  0
LINE
  5
7E
330
1F
100
AcDbEntity
  8
0
  6
Continuous
 62
     7
370
    40
100
AcDbLine
 10
53.8
 20
48.25
 30
0.0
 11
53.8
 21
65.25
 31
0.0
  0
LINE
  5
7F
330
1F
100
AcDbEntity
  8
0
  6
Continuous
 62
     7
370
    40
100
AcDbLine
 10
64.3989261635
 20
48.25
 30
0.0
 11
64.3989261635
 21
10.0
 31
0.0
  0
LINE
  5
80
330
1F
100
AcDbEntity
  8
0
  6
Continuous
 62
     7
370
    40
100
AcDbLine
 10
85.0
 20
31.25
 30
0.0
 11
85.0
 21
48.25
 31
0.0
  0
LINE
  5
81
330
1F
100
AcDbEntity
  8
0
  6
Continuous
 62
     7
370
    40
100
AcDbLine
 10
74.6
 20
18.5
 30
0.0
 11
20.0
 21
18.5
 31
0.0
  0
LINE
  5
82
330
1F
100
AcDbEntity
  8
0
  6
Continuous
 62
     7
370
    40
100
AcDbLine
 10
100.6
 20
65.25
 30
0.0
 11
100.6
 21
27.0
 31
0.0
  0
LINE
  5
83
330
1F
100
AcDbEntity
  8
0
  6
Continuous
 62
     7
370
    40
100
AcDbLine
 10
74.6
 20
22.749928
 30
0.0
 11
20.0
 21
22.749928
 31
0.0
  0
LINE
  5
84
330
1F
100
AcDbEntity
  8
0
  6
Continuous
 62
     7
370
    40
100
AcDbLine
 10
74.6
 20
27.0
 30
0.0
 11
20.0
 21
27.0
 31
0.0
  0
LINE
  5
85
330
1F
100
AcDbEntity
  8
0
  6
Continuous
 62
     7
370
    40
100
AcDbLine
 10
74.6
 20
27.0
 30
0.0
 11
200.0
 21
27.0
 31
0.0
  0
LINE
  5
86
330
1F
100
AcDbEntity
  8
0
  6
Continuous
 62
     7
370
    40
100
AcDbLine
 10
118.8
 20
65.25
 30
0.0
 11
118.8
 21
10.0
 31
0.0
  0
LINE
  5
87
330
1F
100
AcDbEntity
  8
0
  6
Continuous
 62
     7
370
    40
100
AcDbLine
 10
163.0
 20
10.0
 30
0.0
 11
163.0
 21
14.25
 31
0.0
  0
LINE
  5
88
330
1F
100
AcDbEntity
  8
0
  6
Continuous
 62
     7
370
    40
100
AcDbLine
 10
170.8
 20
58.875
 30
0.0
 11
170.8
 21
65.25
 31
0.0
  0
LINE
  5
89
330
1F
100
AcDbEntity
  8
0
  6
Continuous
 62
     7
370
    40
100
AcDbLine
 10
187.0
 20
14.25
 30
0.0
 11
187.0
 21
27.0
 31
0.0
  0
LINE
  5
8A
330
1F
100
AcDbEntity
  8
0
  6
Continuous
 62
     7
370
    40
100
AcDbLine
 10
200.0
 20
58.875
 30
0.0
 11
118.8
 21
58.875
 31
0.0
  0
LINE
  5
8B
330
1F
100
AcDbEntity
  8
0
  6
Continuous
 62
     7
370
    40
100
AcDbLine
 10
200.0
 20
18.5
 30
0.0
 11
187.0
 21
18.5
 31
0.0
  0
LINE
  5
8C
330
1F
100
AcDbEntity
  8
0
  6
Continuous
 62
     7
370
    40
100
AcDbLine
 10
20.0
 20
65.25
 30
0.0
 11
20.0
 21
10.0
 31
0.0
  0
LINE
  5
8D
330
1F
100
AcDbEntity
  8
0
  6
Continuous
 62
     7
370
    60
100
AcDbLine
 10
20.0
 20
10.0
 30
0.0
 11
20.0
 21
287.0
 31
0.0
  0
LINE
  5
8E
330
1F
100
AcDbEntity
  8
0
  6
Continuous
 62
     7
370
    60
100
AcDbLine
 10
20.0
 20
287.0
 30
0.0
 11
200.0
 21
287.0
 31
0.0
  0
LINE
  5
8F
330
1F
100
AcDbEntity
  8
0
  6
Continuous
 62
     7
370
    60
100
AcDbLine
 10
200.0
 20
287.0
 30
0.0
 11
200.0
 21
10.0
 31
0.0
  0
LINE
  5
90
330
1F
100
AcDbEntity
  8
0
  6
Continuous
 62
     7
370
    60
100
AcDbLine
 10
200.0
 20
10.0
 30
0.0
 11
20.0
 21
10.0
 31
0.0
  0
LINE
  5
91
330
1F
100
AcDbEntity
  8
0
  6
Continuous
 62
     7
370
    60
100
AcDbLine
 10
15.0
 20
5.0
 30
0.0
 11
15.0
 21
292.0
 31
0.0
  0
LINE
  5
92
330
1F
100
AcDbEntity
  8
0
  6
Continuous
 62
     7
370
    60
100
AcDbLine
 10
15.0
 20
292.0
 30
0.0
 11
205.0
 21
292.0
 31
0.0
  0
LINE
  5
93
330
1F
100
AcDbEntity
  8
0
  6
Continuous
 62
     7
370
    60
100
AcDbLine
 10
205.0
 20
292.0
 30
0.0
 11
205.0
 21
5.0
 31
0.0
  0
LINE
  5
94
330
1F
100
AcDbEntity
  8
0
  6
Continuous
 62
     7
370
    60
100
AcDbLine
 10
205.0
 20
5.0
 30
0.0
 11
15.0
 21
5.0
 31
0.0
  0
LINE
  5
95
330
1F
100
AcDbEntity
  8
0
  6
Continuous
 62
     7
370
    30
100
AcDbLine
 10
15.0
 20
148.5
 30
0.0
 11
25.0
 21
148.5
 31
0.0
  0
LINE
  5
96
330
1F
100
AcDbEntity
  8
0
  6
Continuous
 62
     7
370
    30
100
AcDbLine
 10
110.0
 20
292.0
 30
0.0
 11
110.0
 21
282.0
 31
0.0
  0
LINE
  5
97
330
1F
100
AcDbEntity
  8
0
  6
Continuous
 62
     7
370
    30
100
AcDbLine
 10
205.0
 20
148.5
 30
0.0
 11
195.0
 21
148.5
 31
0.0
  0
LINE
  5
98
330
1F
100
AcDbEntity
  8
0
  6
Continuous
 62
     7
370
    30
100
AcDbLine
 10
110.0
 20
5.0
 30
0.0
 11
110.0
 21
15.0
 31
0.0
  0
LINE
  5
99
330
1F
100
AcDbEntity
  8
0
  6
Continuous
 62
     7
370
    30
100
AcDbLine
 10
20.0
 20
48.5
 30
0.0
 11
15.0
 21
48.5
 31
0.0
  0
LINE
  5
9A
330
1F
100
AcDbEntity
  8
0
  6
Continuous
 62
     7
370
    30
100
AcDbLine
 10
200.0
 20
48.5
 30
0.0
 11
205.0
 21
48.5
 31
0.0
  0
LINE
  5
9B
330
1F
100
AcDbEntity
  8
0
  6
Continuous
 62
     7
370
    30
100
AcDbLine
 10
20.0
 20
98.5
 30
0.0
 11
15.0
 21
98.5
 31
0.0
  0
LINE
  5
9C
330
1F
100
AcDbEntity
  8
0
  6
Continuous
 62
     7
370
    30
100
AcDbLine
 10
200.0
 20
98.5
 30
0.0
 11
205.0
 21
98.5
 31
0.0
  0
LINE
  5
9D
330
1F
100
AcDbEntity
  8
0
  6
Continuous
 62
     7
370
    30
100
AcDbLine
 10
20.0
 20
148.5
 30
0.0
 11
15.0
 21
148.5
 31
0.0
  0
LINE
  5
9E
330
1F
100
AcDbEntity
  8
0
  6
Continuous
 62
     7
370
    30
100
AcDbLine
 10
200.0
 20
148.5
 30
0.0
 11
205.0
 21
148.5
 31
0.0
  0
LINE
  5
9F
330
1F
100
AcDbEntity
  8
0
  6
Continuous
 62
     7
370
    30
100
AcDbLine
 10
20.0
 20
198.5
 30
0.0
 11
15.0
 21
198.5
 31
0.0
  0
LINE
  5
A0
330
1F
100
AcDbEntity
  8
0
  6
Continuous
 62
     7
370
    30
100
AcDbLine
 10
200.0
 20
198.5
 30
0.0
 11
205.0
 21
198.5
 31
0.0
  0
LINE
  5
A1
330
1F
100
AcDbEntity
  8
0
  6
Continuous
 62
     7
370
    30
100
AcDbLine
 10
20.0
 20
248.5
 30
0.0
 11
15.0
 21
248.5
 31
0.0
  0
LINE
  5
A2
330
1F
100
AcDbEntity
  8
0
  6
Continuous
 62
     7
370
    30
100
AcDbLine
 10
200.0
 20
248.5
 30
0.0
 11
205.0
 21
248.5
 31
0.0
  0
LINE
  5
A3
330
1F
100
AcDbEntity
  8
0
  6
Continuous
 62
     7
370
    30
100
AcDbLine
 10
60.0
 20
287.0
 30
0.0
 11
60.0
 21
292.0
 31
0.0
  0
LINE
  5
A4
330
1F
100
AcDbEntity
  8
0
  6
Continuous
 62
     7
370
    30
100
AcDbLine
 10
60.0
 20
10.0
 30
0.0
 11
60.0
 21
5.0
 31
0.0
  0
LINE
  5
A5
330
1F
100
AcDbEntity
  8
0
  6
Continuous
 62
     7
370
    30
100
AcDbLine
 10
110.0
 20
287.0
 30
0.0
 11
110.0
 21
292.0
 31
0.0
  0
LINE
  5
A6
330
1F
100
AcDbEntity
  8
0
  6
Continuous
 62
     7
370
    30
100
AcDbLine
 10
110.0
 20
10.0
 30
0.0
 11
110.0
 21
5.0
 31
0.0
  0
LINE
  5
A7
330
1F
100
AcDbEntity
  8
0
  6
Continuous
 62
     7
370
    30
100
AcDbLine
 10
160.0
 20
287.0
 30
0.0
 11
160.0
 21
292.0
 31
0.0
  0
LINE
  5
A8
330
1F
100
AcDbEntity
  8
0
  6
Continuous
 62
     7
370
    30
100
AcDbLine
 10
160.0
 20
10.0
 30
0.0
 11
160.0
 21
5.0
 31
0.0
  0
MTEXT
  5
AA
330
1F
100
AcDbEntity
  8
0
  6
Continuous
 62
     7
370
     0
100
AcDbMText
 10
17.3396881428
 20
31.167684388
 30
0.0
 40
3.96875
 41
0.0
 71
     2
 72
     1
  1
A
  7
SLDTEXTSTYLE0
 73
     1
 44
1.0
  0
MTEXT
  5
AB
330
1F
100
AcDbEntity
  8
0
  6
Continuous
 62
     7
370
     0
100
AcDbMText
 10
202.3396881428
 20
31.167684388
 30
0.0
 40
3.96875
 41
0.0
 71
     2
 72
     1
  1
A
  7
SLDTEXTSTYLE0
 73
     1
 44
1.0
  0
MTEXT
  5
AC
330
1F
100
AcDbEntity
  8
0
  6
Continuous
 62
     7
370
     0
100
AcDbMText
 10
17.4706018241
 20
75.4739273576
 30
0.0
 40
3.96875
 41
0.0
 71
     2
 72
     1
  1
B
  7
SLDTEXTSTYLE0
 73
     1
 44
1.0
  0
MTEXT
  5
AD
330
1F
100
AcDbEntity
  8
0
  6
Continuous
 62
     7
370
     0
100
AcDbMText
 10
202.4706018241
 20
75.4739273576
 30
0.0
 40
3.96875
 41
0.0
 71
     2
 72
     1
  1
B
  7
SLDTEXTSTYLE0
 73
     1
 44
1.0
  0
MTEXT
  5
AE
330
1F
100
AcDbEntity
  8
0
  6
Continuous
 62
     7
370
     0
100
AcDbMText
 10
17.458658902
 20
125.4739273576
 30
0.0
 40
3.96875
 41
0.0
 71
     2
 72
     1
  1
C
  7
SLDTEXTSTYLE0
 73
     1
 44
1.0
  0
MTEXT
  5
AF
330
1F
100
AcDbEntity
  8
0
  6
Continuous
 62
     7
370
     0
100
AcDbMText
 10
202.458658902
 20
125.4739273576
 30
0.0
 40
3.96875
 41
0.0
 71
     2
 72
     1
  1
C
  7
SLDTEXTSTYLE0
 73
     1
 44
1.0
  0
MTEXT
  5
B0
330
1F
100
AcDbEntity
  8
0
  6
Continuous
 62
     7
370
     0
100
AcDbMText
 10
17.4526872821
 20
175.4739273576
 30
0.0
 40
3.96875
 41
0.0
 71
     2
 72
     1
  1
D
  7
SLDTEXTSTYLE0
 73
     1
 44
1.0
  0
MTEXT
  5
B1
330
1F
100
AcDbEntity
  8
0
  6
Continuous
 62
     7
370
     0
100
AcDbMText
 10
202.4526872821
 20
175.4739273576
 30
0.0
 40
3.96875
 41
0.0
 71
     2
 72
     1
  1
D
  7
SLDTEXTSTYLE0
 73
     1
 44
1.0
  0
MTEXT
  5
B2
330
1F
100
AcDbEntity
  8
0
  6
Continuous
 62
     7
370
     0
100
AcDbMText
 10
17.5078089051
 20
225.4739273576
 30
0.0
 40
3.96875
 41
0.0
 71
     2
 72
     1
  1
E
  7
SLDTEXTSTYLE0
 73
     1
 44
1.0
  0
MTEXT
  5
B3
330
1F
100
AcDbEntity
  8
0
  6
Continuous
 62
     7
370
     0
100
AcDbMText
 10
202.5078089051
 20
225.4739273576
 30
0.0
 40
3.96875
 41
0.0
 71
     2
 72
     1
  1
E
  7
SLDTEXTSTYLE0
 73
     1
 44
1.0
  0
MTEXT
  5
B4
330
1F
100
AcDbEntity
  8
0
  6
Continuous
 62
     7
370
     0
100
AcDbMText
 10
17.4577402091
 20
269.7239273576
 30
0.0
 40
3.96875
 41
0.0
 71
     2
 72
     1
  1
F
  7
SLDTEXTSTYLE0
 73
     1
 44
1.0
  0
MTEXT
  5
B5
330
1F
100
AcDbEntity
  8
0
  6
Continuous
 62
     7
370
     0
100
AcDbMText
 10
202.4577402091
 20
269.7239273576
 30
0.0
 40
3.96875
 41
0.0
 71
     2
 72
     1
  1
F
  7
SLDTEXTSTYLE0
 73
     1
 44
1.0
  0
MTEXT
  5
B6
330
1F
100
AcDbEntity
  8
0
  6
Continuous
 62
     7
370
     0
100
AcDbMText
 10
39.9600369465
 20
9.4739273576
 30
0.0
 40
3.96875
 41
0.0
 71
     2
 72
     1
  1
4
  7
SLDTEXTSTYLE0
 73
     1
 44
1.0
  0
MTEXT
  5
B7
330
1F
100
AcDbEntity
  8
0
  6
Continuous
 62
     7
370
     0
100
AcDbMText
 10
39.9600369465
 20
291.4739273576
 30
0.0
 40
3.96875
 41
0.0
 71
     2
 72
     1
  1
4
  7
SLDTEXTSTYLE0
 73
     1
 44
1.0
  0
MTEXT
  5
B8
330
1F
100
AcDbEntity
  8
0
  6
Continuous
 62
     7
370
     0
100
AcDbMText
 10
84.9600369465
 20
9.4739273576
 30
0.0
 40
3.96875
 41
0.0
 71
     2
 72
     1
  1
3
  7
SLDTEXTSTYLE0
 73
     1
 44
1.0
  0
MTEXT
  5
B9
330
1F
100
AcDbEntity
  8
0
  6
Continuous
 62
     7
370
     0
100
AcDbMText
 10
84.9600369465
 20
291.4739273576
 30
0.0
 40
3.96875
 41
0.0
 71
     2
 72
     1
  1
3
  7
SLDTEXTSTYLE0
 73
     1
 44
1.0
  0
MTEXT
  5
BA
330
1F
100
AcDbEntity
  8
0
  6
Continuous
 62
     7
370
     0
100
AcDbMText
 10
134.9600369465
 20
9.4739273576
 30
0.0
 40
3.96875
 41
0.0
 71
     2
 72
     1
  1
2
  7
SLDTEXTSTYLE0
 73
     1
 44
1.0
  0
MTEXT
  5
BB
330
1F
100
AcDbEntity
  8
0
  6
Continuous
 62
     7
370
     0
100
AcDbMText
 10
134.9600369465
 20
291.4739273576
 30
0.0
 40
3.96875
 41
0.0
 71
     2
 72
     1
  1
2
  7
SLDTEXTSTYLE0
 73
     1
 44
1.0
  0
MTEXT
  5
BC
330
1F
100
AcDbEntity
  8
0
  6
Continuous
 62
     7
370
     0
100
AcDbMText
 10
179.9600369465
 20
9.4739273576
 30
0.0
 40
3.96875
 41
0.0
 71
     2
 72
     1
  1
1
  7
SLDTEXTSTYLE0
 73
     1
 44
1.0
  0
MTEXT
  5
BD
330
1F
100
AcDbEntity
  8
0
  6
Continuous
 62
     7
370
     0
100
AcDbMText
 10
179.9600369465
 20
291.4739273576
 30
0.0
 40
3.96875
 41
0.0
 71
     2
 72
     1
  1
1
  7
SLDTEXTSTYLE0
 73
     1
 44
1.0
  0
MTEXT
  5
BE
330
1F
100
AcDbEntity
  8
0
  6
Continuous
 62
     7
370
     0
100
AcDbMText
 10
154.9099947288
 20
23.6069109673
 30
0.0
 40
6.35
 41
0.0
 71
     2
 72
     1
  1
cover_plate
  7
SLDTEXTSTYLE0
 73
     1
 44
1.0
  0
MTEXT
  5
BF
330
1F
100
AcDbEntity
  8
0
  6
Continuous
 62
     7
370
     0
100
AcDbMText
 10
75.6178111281
 20
12.9493119036
 30
0.0
 40
1.4986
 41
0.0
 71
     1
 72
     1
  1
重量：
  7
SLDTEXTSTYLE0
 73
     1
 44
1.0
  0
MTEXT
  5
C0
330
1F
100
AcDbEntity
  8
0
  6
Continuous
 62
     7
370
     0
100
AcDbMText
 10
190.8711564346
 20
24.406388569
 30
0.0
 40
2.9104166667
 41
0.0
 71
     1
 72
     1
  1
A4
  7
SLDTEXTSTYLE0
 73
     1
 44
1.0
  0
MTEXT
  5
C2
330
1F
100
AcDbEntity
  8
0
  6
Continuous
 62
     7
370
     0
100
AcDbMText
 10
164.4782944278
 20
12.9000872745
 30
0.0
 40
1.5
 41
0.0
 71
     1
 72
     1
  1
葉数 1 ／ 1
  7
SLDTEXTSTYLE1
 73
     1
 44
1.0
  0
MTEXT
  5
C3
330
1F
100
AcDbEntity
  8
0
  6
Continuous
 62
     7
370
     0
100
AcDbMText
 10
120.0739661175
 20
12.9000872745
 30
0.0
 40
1.5
 41
0.0
 71
     1
 72
     1
  1
尺度： 1:2
  7
SLDTEXTSTYLE0
 73
     1
 44
1.0
  0
MTEXT
  5
C4
330
1F
100
AcDbEntity
  8
0
  6
Continuous
 62
     7
370
     0
100
AcDbMText
 10
120.0739661175
 20
24.868637827
 30
0.0
 40
1.5
 41
0.0
 71
     1
 72
     1
  1
図面番号：
  7
SLDTEXTSTYLE0
 73
     1
 44
1.0
  0
MTEXT
  5
C5
330
1F
100
AcDbEntity
  8
0
  6
Continuous
 62
     7
370
     0
100
AcDbMText
 10
120.2022111393
 20
46.5761792212
 30
0.0
 40
1.5
 41
0.0
 71
     1
 72
     1
  1
名称：
  7
SLDTEXTSTYLE0
 73
     1
 44
1.0
  0
MTEXT
  5
C6
330
1F
100
AcDbEntity
  8
0
  6
Continuous
 62
     7
370
     0
100
AcDbMText
 10
173.3275816993
 20
62.3349086805
 30
0.0
 40
1.5
 41
0.0
 71
     1
 72
     1
  1
改訂
  7
SLDTEXTSTYLE0
 73
     1
 44
1.0
  0
MTEXT
  5
C7
330
1F
100
AcDbEntity
  8
0
  6
Continuous
 62
     7
370
     0
100
AcDbMText
 10
137.2891003724
 20
62.5329935751
 30
0.0
 40
1.5
 41
0.0
 71
     1
 72
     1
  1
図面測定不可
  7
SLDTEXTSTYLE0
 73
     1
 44
1.0
  0
MTEXT
  5
C8
330
1F
100
AcDbEntity
  8
0
  6
Continuous
 62
     7
370
     0
100
AcDbMText
 10
75.6458623088
 20
25.9860562892
 30
0.0
 40
1.5
 41
0.0
 71
     1
 72
     1
  1
材料：
  7
SLDTEXTSTYLE0
 73
     1
 44
1.0
  0
MTEXT
  5
C9
330
1F
100
AcDbEntity
  8
0
  6
Continuous
 62
     7
370
     0
100
AcDbMText
 10
67.2147019657
 20
46.5761792212
 30
0.0
 40
1.5
 41
0.0
 71
     1
 72
     1
  1
日　付
  7
SLDTEXTSTYLE0
 73
     1
 44
1.0
  0
MTEXT
  5
CA
330
1F
100
AcDbEntity
  8
0
  6
Continuous
 62
     7
370
     0
100
AcDbMText
 10
50.0335875632
 20
46.5617563795
 30
0.0
 40
1.5
 41
0.0
 71
     1
 72
     1
  1
　　署　名
  7
SLDTEXTSTYLE0
 73
     1
 44
1.0
  0
MTEXT
  5
CB
330
1F
100
AcDbEntity
  8
0
  6
Continuous
 62
     7
370
     0
100
AcDbMText
 10
34.3222392177
 20
46.5014826335
 30
0.0
 40
1.5
 41
0.0
 71
     1
 72
     1
  1
名　前
  7
SLDTEXTSTYLE0
 73
     1
 44
1.0
  0
MTEXT
  5
CC
330
1F
100
AcDbEntity
  8
0
  6
Continuous
 62
     7
370
     0
100
AcDbMText
 10
101.3092156863
 20
64.0030912527
 30
0.0
 40
1.5
 41
0.0
 71
     1
 72
     1
  1
バリ取り、鋭角の除去
  7
SLDTEXTSTYLE0
 73
     1
 44
1.0
  0
MTEXT
  5
CD
330
1F
100
AcDbEntity
  8
0
  6
Continuous
 62
     7
370
     0
100
AcDbMText
 10
54.3712921668
 20
63.9192719951
 30
0.0
 40
1.5
 41
0.0
 71
     1
 72
     1
  1
仕上げ：
  7
SLDTEXTSTYLE0
 73
     1
 44
1.0
  0
INSERT
  5
D7
330
1F
100
AcDbEntity
  8
0
  6
Continuous
 62
     7
370
     0
100
AcDbBlockReference
  2
SW_NOTE_0
 10
20.5936687456
 20
61.9873698743
 30
0.0
  0
MTEXT
  5
D8
330
1F
100
AcDbEntity
  8
0
  6
Continuous
 62
     7
370
     0
100
AcDbMText
 10
21.3371487396
 20
25.4117605109
 30
0.0
 40
1.5
 41
0.0
 71
     1
 72
     1
  1
品　管
  7
SLDTEXTSTYLE0
 73
     1
 44
1.0
  0
MTEXT
  5
D9
330
1F
100
AcDbEntity
  8
0
  6
Continuous
 62
     7
370
     0
100
AcDbMText
 10
21.2005221423
 20
29.7958159542
 30
0.0
 40
1.5
 41
0.0
 71
     1
 72
     1
  1
製　産
  7
SLDTEXTSTYLE0
 73
     1
 44
1.0
  0
MTEXT
  5
DA
330
1F
100
AcDbEntity
  8
0
  6
Continuous
 62
     7
370
     0
100
AcDbMText
 10
21.1470580516
 20
34.1264073067
 30
0.0
 40
1.5
 41
0.0
 71
     1
 72
     1
  1
承　認
  7
SLDTEXTSTYLE0
 73
     1
 44
1.0
  0
MTEXT
  5
DB
330
1F
100
AcDbEntity
  8
0
  6
Continuous
 62
     7
370
     0
100
AcDbMText
 10
21.1558045109
 20
38.2165184636
 30
0.0
 40
1.5
 41
0.0
 71
     1
 72
     1
  1
検　図
  7
SLDTEXTSTYLE0
 73
     1
 44
1.0
  0
MTEXT
  5
DC
330
1F
100
AcDbEntity
  8
0
  6
Continuous
 62
     7
370
     0
100
AcDbMText
 10
21.1891741847
 20
42.4918261895
 30
0.0
 40
1.5
 41
0.0
 71
     1
 72
     1
  1
製　図
  7
SLDTEXTSTYLE0
 73
     1
 44
1.0
  0
CIRCLE
  5
DD
330
1F
100
AcDbEntity
  8
0
  6
Continuous
 62
     7
370
    15
100
AcDbCircle
 10
83.8168616462
 20
153.8558722193
 30
0.0
 40
0.75
  0
CIRCLE
  5
DE
330
1F
100
AcDbEntity
  8
0
  6
Continuous
 62
     7
370
    15
100
AcDbCircle
 10
63.8168616462
 20
153.8558722193
 30
0.0
 40
0.75
  0
CIRCLE
  5
DF
330
1F
100
AcDbEntity
  8
0
  6
Continuous
 62
     7
370
    15
100
AcDbCircle
 10
59.8168616462
 20
145.1058722193
 30
0.0
 40
2.75
  0
CIRCLE
  5
E0
330
1F
100
AcDbEntity
  8
0
  6
Continuous
 62
     7
370
    15
100
AcDbCircle
 10
63.8168616462
 20
136.3558722193
 30
0.0
 40
0.7500000000000071
  0
CIRCLE
  5
E1
330
1F
100
AcDbEntity
  8
0
  6
Continuous
 62
     7
370
    15
100
AcDbCircle
 10
83.8168616462
 20
136.3558722193
 30
0.0
 40
0.75
  0
CIRCLE
  5
E2
330
1F
100
AcDbEntity
  8
0
  6
Continuous
 62
     7
370
    15
100
AcDbCircle
 10
87.8168616462
 20
145.1058722193
 30
0.0
 40
2.75
  0
CIRCLE
  5
E3
330
1F
100
AcDbEntity
  8
0
  6
Continuous
 62
     7
370
    15
100
AcDbCircle
 10
83.5668616462
 20
108.8558722193
 30
0.0
 40
1.25
  0
CIRCLE
  5
E4
330
1F
100
AcDbEntity
  8
0
  6
Continuous
 62
     7
370
    15
100
AcDbCircle
 10
64.0668616462
 20
116.3558722193
 30
0.0
 40
1.249999999999993
  0
CIRCLE
  5
E5
330
1F
100
AcDbEntity
  8
0
  6
Continuous
 62
     7
370
    15
100
AcDbCircle
 10
64.0668616462
 20
108.8558722193
 30
0.0
 40
1.249999999999993
  0
CIRCLE
  5
E6
330
1F
100
AcDbEntity
  8
0
  6
Continuous
 62
     7
370
    15
100
AcDbCircle
 10
83.5668616462
 20
116.3558722193
 30
0.0
 40
1.25
  0
ARC
  5
E7
330
1F
100
AcDbEntity
  8
0
  6
Continuous
 62
     7
370
    15
100
AcDbCircle
 10
85.8168616462
 20
173.8558722193
 30
0.0
 40
5.0
100
AcDbArc
 50
0.0
 51
90.0
  0
LINE
  5
E8
330
1F
100
AcDbEntity
  8
0
  6
Continuous
 62
     7
370
    15
100
AcDbLine
 10
90.8168616462
 20
134.732581578
 30
0.0
 11
90.8168616462
 21
173.8558722193
 31
0.0
  0
ARC
  5
E9
330
1F
100
AcDbEntity
  8
0
  6
Continuous
 62
     7
370
    15
100
AcDbCircle
 10
85.8168616462
 20
134.732581578
 30
0.0
 40
5.000000000000034
100
AcDbArc
 50
303.3670129692
 51
0.0
  0
ARC
  5
EA
330
1F
100
AcDbEntity
  8
0
  6
Continuous
 62
     7
370
    15
100
AcDbCircle
 10
91.3168616462
 20
126.3809350338
 30
0.0
 40
5.0
100
AcDbArc
 50
123.3670129692
 51
180.0
  0
LINE
  5
EB
330
1F
100
AcDbEntity
  8
0
  6
Continuous
 62
     7
370
    15
100
AcDbLine
 10
86.3168616462
 20
101.3558722193
 30
0.0
 11
86.3168616462
 21
126.3809350338
 31
0.0
  0
ARC
  5
EC
330
1F
100
AcDbEntity
  8
0
  6
Continuous
 62
     7
370
    15
100
AcDbCircle
 10
81.3168616462
 20
101.3558722193
 30
0.0
 40
5.0
100
AcDbArc
 50
270.0
 51
0.0
  0
LINE
  5
ED
330
1F
100
AcDbEntity
  8
0
  6
Continuous
 62
     7
370
    15
100
AcDbLine
 10
80.8168616462
 20
96.3558722193
 30
0.0
 11
81.3168616462
 21
96.3558722193
 31
0.0
  0
LINE
  5
EE
330
1F
100
AcDbEntity
  8
0
  6
Continuous
 62
     7
370
    15
100
AcDbLine
 10
80.8168616462
 20
96.3558722193
 30
0.0
 11
80.8168616462
 21
133.8558722193
 31
0.0
  0
LINE
  5
EF
330
1F
100
AcDbEntity
  8
0
  6
Continuous
 62
     7
370
    15
100
AcDbLine
 10
80.8168616462
 20
133.8558722193
 30
0.0
 11
66.8168616462
 21
133.8558722193
 31
0.0
  0
LINE
  5
F0
330
1F
100
AcDbEntity
  8
0
  6
Continuous
 62
     7
370
    15
100
AcDbLine
 10
66.8168616462
 20
133.8558722193
 30
0.0
 11
66.8168616462
 21
96.3558722193
 31
0.0
  0
LINE
  5
F1
330
1F
100
AcDbEntity
  8
0
  6
Continuous
 62
     7
370
    15
100
AcDbLine
 10
66.3168616462
 20
96.3558722193
 30
0.0
 11
66.8168616462
 21
96.3558722193
 31
0.0
  0
ARC
  5
F2
330
1F
100
AcDbEntity
  8
0
  6
Continuous
 62
     7
370
    15
100
AcDbCircle
 10
66.3168616462
 20
101.3558722193
 30
0.0
 40
5.0
100
AcDbArc
 50
180.0
 51
270.0
  0
LINE
  5
F3
330
1F
100
AcDbEntity
  8
0
  6
Continuous
 62
     7
370
    15
100
AcDbLine
 10
61.3168616462
 20
126.3809350338
 30
0.0
 11
61.3168616462
 21
101.3558722193
 31
0.0
  0
ARC
  5
F4
330
1F
100
AcDbEntity
  8
0
  6
Continuous
 62
     7
370
    15
100
AcDbCircle
 10
56.3168616462
 20
126.3809350338
 30
0.0
 40
5.0
100
AcDbArc
 50
0.0
 51
56.6329870308
  0
ARC
  5
F5
330
1F
100
AcDbEntity
  8
0
  6
Continuous
 62
     7
370
    15
100
AcDbCircle
 10
61.8168616462
 20
134.732581578
 30
0.0
 40
5.000000000000037
100
AcDbArc
 50
180.0
 51
236.6329870308
  0
LINE
  5
F6
330
1F
100
AcDbEntity
  8
0
  6
Continuous
 62
     7
370
    15
100
AcDbLine
 10
56.8168616462
 20
134.732581578
 30
0.0
 11
56.8168616462
 21
173.8558722193
 31
0.0
  0
ARC
  5
F7
330
1F
100
AcDbEntity
  8
0
  6
Continuous
 62
     7
370
    15
100
AcDbCircle
 10
61.8168616462
 20
173.8558722193
 30
0.0
 40
5.000000000000007
100
AcDbArc
 50
90.0
 51
180.0
  0
LINE
  5
F8
330
1F
100
AcDbEntity
  8
0
  6
Continuous
 62
     7
370
    15
100
AcDbLine
 10
61.8168616462
 20
178.8558722193
 30
0.0
 11
85.8168616462
 21
178.8558722193
 31
0.0
  0
CIRCLE
  5
F9
330
1F
100
AcDbEntity
  8
0
  6
Continuous
 62
     7
370
    15
100
AcDbCircle
 10
86.3168616462
 20
167.6058722193
 30
0.0
 40
0.6499999999999915
  0
CIRCLE
  5
FA
330
1F
100
AcDbEntity
  8
0
  6
Continuous
 62
     7
370
    15
100
AcDbCircle
 10
61.3168616462
 20
167.6058722193
 30
0.0
 40
0.6499999999999986
  0
CIRCLE
  5
FB
330
1F
100
AcDbEntity
  8
0
  6
Continuous
 62
     7
370
    15
100
AcDbCircle
 10
73.8168616462
 20
155.1058722193
 30
0.0
 40
2.5
  0
CIRCLE
  5
FC
330
1F
100
AcDbEntity
  8
0
  6
Continuous
 62
     7
370
    15
100
AcDbCircle
 10
78.5668616462
 20
135.3558722193
 30
0.0
 40
0.6500000000000057
  0
CIRCLE
  5
FD
330
1F
100
AcDbEntity
  8
0
  6
Continuous
 62
     7
370
    15
100
AcDbCircle
 10
69.0668616462
 20
135.3558722193
 30
0.0
 40
0.6500000000000057
  0
DIMENSION
  5
FE
330
1F
100
AcDbEntity
  8
0
  6
Continuous
 62
     7
370
     0
100
AcDbDimension
  2
_D
 10
59.8168616462
 20
135.1058722193
 30
0.0
 11
22.8168616462
 21
135.1058722193
 31
0.0
 70
   160
  1
<>
 71
     2
 42
-1.0
  3
SLDDIMSTYLE0
100
AcDbAlignedDimension
 13
56.8168616462
 23
134.732581578
 33
0.0
 14
59.8168616462
 24
141.1058722193
 34
0.0
100
AcDbRotatedDimension
  0
DIMENSION
  5
10A
330
1F
100
AcDbEntity
  8
0
  6
Continuous
 62
     7
370
     0
100
AcDbDimension
  2
_D_1
 10
61.3168616462
 20
127.9812253989
 30
0.0
 11
22.8168616462
 21
127.9812253989
 31
0.0
 70
   160
  1
<>
 71
     2
 42
-1.0
  3
SLDDIMSTYLE0
100
AcDbAlignedDimension
 13
56.8168616462
 23
134.732581578
 33
0.0
 14
61.3168616462
 24
165.7058722193
 34
0.0
100
AcDbRotatedDimension
  0
DIMENSION
  5
116
330
1F
100
AcDbEntity
  8
0
  6
Continuous
 62
     7
370
     0
100
AcDbDimension
  2
_D_2
 10
63.8168616462
 20
119.4808722193
 30
0.0
 11
22.8168616462
 21
119.4808722193
 31
0.0
 70
   160
  1
<>
 71
     2
 42
-1.0
  3
SLDDIMSTYLE0
100
AcDbAlignedDimension
 13
56.8168616462
 23
134.732581578
 33
0.0
 14
63.8168616462
 24
134.3558722193
 34
0.0
100
AcDbRotatedDimension
  0
DIMENSION
  5
122
330
1F
100
AcDbEntity
  8
0
  6
Continuous
 62
     7
370
     0
100
AcDbDimension
  2
_D_3
 10
64.0668616462
 20
111.3684036265
 30
0.0
 11
22.8168616462
 21
111.3684036265
 31
0.0
 70
   160
  1
<>
 71
     2
 42
-1.0
  3
SLDDIMSTYLE1
100
AcDbAlignedDimension
 13
56.8168616462
 23
134.732581578
 33
0.0
 14
64.0668616462
 24
111.3558722193
 34
0.0
100
AcDbRotatedDimension
  0
DIMENSION
  5
12F
330
1F
100
AcDbEntity
  8
0
  6
Continuous
 62
     7
370
     0
100
AcDbDimension
  2
_D_4
 10
66.8168616462
 20
95.3690518956
 30
0.0
 11
22.8168616462
 21
95.3690518956
 31
0.0
 70
   160
  1
<>
 71
     2
 42
-1.0
  3
SLDDIMSTYLE2
100
AcDbAlignedDimension
 13
56.8168616462
 23
134.732581578
 33
0.0
 14
66.8168616462
 24
133.8558722193
 34
0.0
100
AcDbRotatedDimension
  0
DIMENSION
  5
13B
330
1F
100
AcDbEntity
  8
0
  6
Continuous
 62
     7
370
     0
100
AcDbDimension
  2
_D_5
 10
73.8168616462
 20
88.1946645997
 30
0.0
 11
67.6918616462
 21
88.1946645997
 31
0.0
 70
   160
  1
<>
 71
     2
 42
-1.0
  3
SLDDIMSTYLE0
100
AcDbAlignedDimension
 13
56.8168616462
 23
134.732581578
 33
0.0
 14
73.8168616462
 24
151.3558722193
 34
0.0
100
AcDbRotatedDimension
  0
DIMENSION
  5
147
330
1F
100
AcDbEntity
  8
0
  6
Continuous
 62
     7
370
     0
100
AcDbDimension
  2
_D_6
 10
98.0023480134
 20
108.8558722193
 30
0.0
 11
98.0023480134
 21
102.3948187837
 31
0.0
 70
   160
  1
<>
 71
     2
 42
-1.0
  3
SLDDIMSTYLE0
100
AcDbAlignedDimension
 13
81.3168616462
 23
96.3558722193
 33
0.0
 14
66.5668616462
 24
108.8558722193
 34
0.0
 50
90.0
100
AcDbRotatedDimension
  0
DIMENSION
  5
153
330
1F
100
AcDbEntity
  8
0
  6
Continuous
 62
     7
370
     0
100
AcDbDimension
  2
_D_7
 10
105.4898878715
 20
135.3558722193
 30
0.0
 11
105.4898878715
 21
103.8558722193
 31
0.0
 70
   160
  1
<>
 71
     2
 42
-1.0
  3
SLDDIMSTYLE2
100
AcDbAlignedDimension
 13
81.3168616462
 23
96.3558722193
 33
0.0
 14
80.4668616462
 24
135.3558722193
 34
0.0
 50
90.0
100
AcDbRotatedDimension
  0
DIMENSION
  5
15D
330
1F
100
AcDbEntity
  8
0
  6
Continuous
 62
     7
370
     0
100
AcDbDimension
  2
_D_8
 10
111.028659771
 20
136.3558722193
 30
0.0
 11
111.028659771
 21
103.8558722193
 31
0.0
 70
   160
  1
<>
 71
     2
 42
-1.0
  3
SLDDIMSTYLE2
100
AcDbAlignedDimension
 13
81.3168616462
 23
96.3558722193
 33
0.0
 14
85.8168616462
 24
136.3558722193
 34
0.0
 50
90.0
100
AcDbRotatedDimension
  0
DIMENSION
  5
167
330
1F
100
AcDbEntity
  8
0
  6
Continuous
 62
     7
370
     0
100
AcDbDimension
  2
_D_9
 10
117.3475421284
 20
145.1058722193
 30
0.0
 11
117.3475421284
 21
108.2308722193
 31
0.0
 70
   160
  1
<>
 71
     2
 42
-1.0
  3
SLDDIMSTYLE3
100
AcDbAlignedDimension
 13
81.3168616462
 23
96.3558722193
 33
0.0
 14
91.8168616462
 24
145.1058722193
 34
0.0
 50
90.0
100
AcDbRotatedDimension
  0
DIMENSION
  5
172
330
1F
100
AcDbEntity
  8
0
  6
Continuous
 62
     7
370
     0
100
AcDbDimension
  2
_D_10
 10
122.8901464678
 20
153.8558722193
 30
0.0
 11
122.8901464678
 21
108.2308722193
 31
0.0
 70
   160
  1
<>
 71
     2
 42
-1.0
  3
SLDDIMSTYLE2
100
AcDbAlignedDimension
 13
81.3168616462
 23
96.3558722193
 33
0.0
 14
65.8168616462
 24
153.8558722193
 34
0.0
 50
90.0
100
AcDbRotatedDimension
  0
DIMENSION
  5
17C
330
1F
100
AcDbEntity
  8
0
  6
Continuous
 62
     7
370
     0
100
AcDbDimension
  2
_D_11
 10
130.8168616462
 20
155.1058722193
 30
0.0
 11
130.8168616462
 21
108.2308722193
 31
0.0
 70
   160
  1
<>
 71
     2
 42
-1.0
  3
SLDDIMSTYLE3
100
AcDbAlignedDimension
 13
81.3168616462
 23
96.3558722193
 33
0.0
 14
77.5668616462
 24
155.1058722193
 34
0.0
 50
90.0
100
AcDbRotatedDimension
  0
DIMENSION
  5
186
330
1F
100
AcDbEntity
  8
0
  6
Continuous
 62
     7
370
     0
100
AcDbDimension
  2
_D_12
 10
136.8168616462
 20
133.8558722193
 30
0.0
 11
136.8168616462
 21
109.7412665936
 31
0.0
 70
   160
  1
<>
 71
     2
 42
-1.0
  3
SLDDIMSTYLE2
100
AcDbAlignedDimension
 13
81.3168616462
 23
96.3558722193
 33
0.0
 14
80.8168616462
 24
133.8558722193
 34
0.0
 50
90.0
100
AcDbRotatedDimension
  0
DIMENSION
  5
190
330
1F
100
AcDbEntity
  8
0
  6
Continuous
 62
     7
370
     0
100
AcDbDimension
  2
_D_13
 10
143.0081722445
 20
167.6058722193
 30
0.0
 11
143.0081722445
 21
109.8122107022
 31
0.0
 70
   160
  1
<>
 71
     2
 42
-1.0
  3
SLDDIMSTYLE3
100
AcDbAlignedDimension
 13
81.3168616462
 23
96.3558722193
 33
0.0
 14
63.2168616462
 24
167.6058722193
 34
0.0
 50
90.0
100
AcDbRotatedDimension
  0
DIMENSION
  5
19A
330
1F
100
AcDbEntity
  8
0
  6
Continuous
 62
     7
370
     0
100
AcDbDimension
  2
_D_14
 10
72.5668616462
 20
152.9408087099
 30
0.0
 11
77.8854382657
 21
162.1528463182
 31
0.0
 70
   163
  1
<>
 71
     1
 42
-1.0
  3
SLDDIMSTYLE4
100
AcDbDiametricDimension
 15
75.0668616462
 25
157.2709357288
 35
0.0
 40
0.0
  0
DIMENSION
  5
1A7
330
1F
100
AcDbEntity
  8
0
  6
Continuous
 62
     7
370
     0
100
AcDbDimension
  2
_D_15
 10
77.9623696919
 20
135.1169381758
 30
0.0
 11
109.7182455569
 21
147.6689058714
 31
0.0
 70
   163
  1
4 X <>
 71
     1
 42
-1.0
  3
SLDDIMSTYLE5
100
AcDbDiametricDimension
 15
79.1713536006
 25
135.5948062629
 35
0.0
 40
0.0
  0
DIMENSION
  5
1B3
330
1F
100
AcDbEntity
  8
0
  6
Continuous
 62
     7
370
     0
100
AcDbDimension
  2
_D_16
 10
86.6543769163
 20
142.613658494
 30
0.0
 11
115.0773502048
 21
203.5487478084
 31
0.0
 70
   163
  1
2 X <>
 71
     1
 42
-1.0
  3
SLDDIMSTYLE4
100
AcDbDiametricDimension
 15
88.9793463762
 25
147.5980859446
 35
0.0
 40
0.0
  0
DIMENSION
  5
1BD
330
1F
100
AcDbEntity
  8
0
  6
Continuous
 62
     7
370
     0
100
AcDbDimension
  2
_D_17
 10
83.2433378399
 20
117.5632795022
 30
0.0
 11
93.3590956246
 21
79.8108048131
 31
0.0
 70
   163
  1
4 X <>
 71
     1
 42
-1.0
  3
SLDDIMSTYLE4
100
AcDbDiametricDimension
 15
83.8903854526
 25
115.1484649365
 35
0.0
 40
0.0
  0
DIMENSION
  5
1C7
330
1F
100
AcDbEntity
  8
0
  6
Continuous
 62
     7
370
     0
100
AcDbDimension
  2
_D_18
 10
66.3168616462
 20
101.3558722193
 30
0.0
 11
35.5987051631
 21
70.6377157362
 31
0.0
 70
   164
  1
8 X <>
 71
     1
 42
-1.0
  3
SLDDIMSTYLE6
100
AcDbRadialDimension
 15
62.7813277403
 25
97.8203383134
 35
0.0
 40
0.0
  0
DIMENSION
  5
1D1
330
1F
100
AcDbEntity
  8
0
  6
Continuous
 62
     7
370
     0
100
AcDbDimension
  2
_D_19
 10
83.0668616462
 20
136.3558722193
 30
0.0
 11
103.689690753
 21
136.3558822193
 31
0.0
 70
   163
  1
4 X <>
 71
     1
 42
-1.0
  3
SLDDIMSTYLE4
100
AcDbDiametricDimension
 15
84.5668616462
 25
136.3558722193
 35
0.0
 40
0.0
  0
DIMENSION
  5
1DB
330
1F
100
AcDbEntity
  8
0
  6
Continuous
 62
     7
370
     0
100
AcDbDimension
  2
_D_20
 10
148.8168616462
 20
96.3558722193
 30
0.0
 11
148.8168616462
 21
133.6587087018
 31
0.0
 70
   160
  1
<>
 71
     2
 42
-1.0
  3
SLDDIMSTYLE2
100
AcDbAlignedDimension
 13
85.8168616462
 23
178.8558722193
 33
0.0
 14
80.8168616462
 24
96.3558722193
 34
0.0
 50
90.0
100
AcDbRotatedDimension
  0
DIMENSION
  5
1E5
330
1F
100
AcDbEntity
  8
0
  6
Continuous
 62
     7
370
     0
100
AcDbDimension
  2
_D_21
 10
90.8168616462
 20
194.8558722193
 30
0.0
 11
73.0293269661
 21
194.8558722193
 31
0.0
 70
   160
  1
<>
 71
     2
 42
-1.0
  3
SLDDIMSTYLE2
100
AcDbAlignedDimension
 13
56.8168616462
 23
173.8558722193
 33
0.0
 14
90.8168616462
 24
173.8558722193
 34
0.0
100
AcDbRotatedDimension
  0
INSERT
  5
1FA
330
1F
100
AcDbEntity
  8
0
  6
Continuous
 62
     7
370
     0
100
AcDbBlockReference
  2
SW_CENTERMARKSYMBOL_0
 10
83.8168616462
 20
153.8558722193
 30
0.0
  0
INSERT
  5
206
330
1F
100
AcDbEntity
  8
0
  6
Continuous
 62
     7
370
     0
100
AcDbBlockReference
  2
SW_CENTERMARKSYMBOL_1
 10
63.8168616462
 20
153.8558722193
 30
0.0
  0
INSERT
  5
212
330
1F
100
AcDbEntity
  8
0
  6
Continuous
 62
     7
370
     0
100
AcDbBlockReference
  2
SW_CENTERMARKSYMBOL_2
 10
59.8168616462
 20
145.1058722193
 30
0.0
  0
INSERT
  5
21E
330
1F
100
AcDbEntity
  8
0
  6
Continuous
 62
     7
370
     0
100
AcDbBlockReference
  2
SW_CENTERMARKSYMBOL_3
 10
63.8168616462
 20
136.3558722193
 30
0.0
  0
INSERT
  5
22A
330
1F
100
AcDbEntity
  8
0
  6
Continuous
 62
     7
370
     0
100
AcDbBlockReference
  2
SW_CENTERMARKSYMBOL_4
 10
83.8168616462
 20
136.3558722193
 30
0.0
  0
INSERT
  5
236
330
1F
100
AcDbEntity
  8
0
  6
Continuous
 62
     7
370
     0
100
AcDbBlockReference
  2
SW_CENTERMARKSYMBOL_5
 10
87.8168616462
 20
145.1058722193
 30
0.0
  0
INSERT
  5
242
330
1F
100
AcDbEntity
  8
0
  6
Continuous
 62
     7
370
     0
100
AcDbBlockReference
  2
SW_CENTERMARKSYMBOL_6
 10
83.5668616462
 20
108.8558722193
 30
0.0
  0
INSERT
  5
24E
330
1F
100
AcDbEntity
  8
0
  6
Continuous
 62
     7
370
     0
100
AcDbBlockReference
  2
SW_CENTERMARKSYMBOL_7
 10
64.0668616462
 20
116.3558722193
 30
0.0
  0
INSERT
  5
25A
330
1F
100
AcDbEntity
  8
0
  6
Continuous
 62
     7
370
     0
100
AcDbBlockReference
  2
SW_CENTERMARKSYMBOL_8
 10
64.0668616462
 20
108.8558722193
 30
0.0
  0
INSERT
  5
266
330
1F
100
AcDbEntity
  8
0
  6
Continuous
 62
     7
370
     0
100
AcDbBlockReference
  2
SW_CENTERMARKSYMBOL_9
 10
83.5668616462
 20
116.3558722193
 30
0.0
  0
INSERT
  5
272
330
1F
100
AcDbEntity
  8
0
  6
Continuous
 62
     7
370
     0
100
AcDbBlockReference
  2
SW_CENTERMARKSYMBOL_10
 10
86.3168616462
 20
167.6058722193
 30
0.0
  0
INSERT
  5
27E
330
1F
100
AcDbEntity
  8
0
  6
Continuous
 62
     7
370
     0
100
AcDbBlockReference
  2
SW_CENTERMARKSYMBOL_11
 10
61.3168616462
 20
167.6058722193
 30
0.0
  0
INSERT
  5
28A
330
1F
100
AcDbEntity
  8
0
  6
Continuous
 62
     7
370
     0
100
AcDbBlockReference
  2
SW_CENTERMARKSYMBOL_12
 10
73.8168616462
 20
155.1058722193
 30
0.0
  0
INSERT
  5
296
330
1F
100
AcDbEntity
  8
0
  6
Continuous
 62
     7
370
     0
100
AcDbBlockReference
  2
SW_CENTERMARKSYMBOL_13
 10
78.5668616462
 20
135.3558722193
 30
0.0
  0
INSERT
  5
2A2
330
1F
100
AcDbEntity
  8
0
  6
Continuous
 62
     7
370
     0
100
AcDbBlockReference
  2
SW_CENTERMARKSYMBOL_14
 10
69.0668616462
 20
135.3558722193
 30
0.0
  0
LINE
  5
2A3
330
1F
100
AcDbEntity
  8
0
  6
Continuous
 62
     7
370
    15
100
AcDbLine
 10
183.6355732222
 20
178.8558722193
 30
0.0
 11
184.6355732222
 21
178.8558722193
 31
0.0
  0
LINE
  5
2A4
330
1F
100
AcDbEntity
  8
0
  6
Continuous
 62
     7
370
    15
100
AcDbLine
 10
184.6355732222
 20
178.8558722193
 30
0.0
 11
184.6355732222
 21
173.8558722193
 31
0.0
  0
LINE
  5
2A5
330
1F
100
AcDbEntity
  8
0
  6
Continuous
 62
     7
370
    15
100
AcDbLine
 10
184.6355732222
 20
173.8558722193
 30
0.0
 11
183.6355732222
 21
173.8558722193
 31
0.0
  0
LINE
  5
2A6
330
1F
100
AcDbEntity
  8
0
  6
Continuous
 62
     7
370
    15
100
AcDbLine
 10
183.6355732222
 20
173.8558722193
 30
0.0
 11
183.6355732222
 21
178.8558722193
 31
0.0
  0
LINE
  5
2A7
330
1F
100
AcDbEntity
  8
0
  6
Continuous
 62
     7
370
    15
100
AcDbLine
 10
183.6355732222
 20
134.732581578
 30
0.0
 11
184.6355732222
 21
134.732581578
 31
0.0
  0
LINE
  5
2A8
330
1F
100
AcDbEntity
  8
0
  6
Continuous
 62
     7
370
    15
100
AcDbLine
 10
183.6355732222
 20
134.732581578
 30
0.0
 11
183.6355732222
 21
173.8558722193
 31
0.0
  0
LINE
  5
2A9
330
1F
100
AcDbEntity
  8
0
  6
Continuous
 62
     7
370
    15
100
AcDbLine
 10
184.6355732222
 20
134.732581578
 30
0.0
 11
184.6355732222
 21
173.8558722193
 31
0.0
  0
LINE
  5
2AA
330
1F
100
AcDbEntity
  8
0
  6
Continuous
 62
     7
370
    15
100
AcDbLine
 10
184.6355732222
 20
134.732581578
 30
0.0
 11
184.6355732222
 21
130.5567583059
 31
0.0
  0
LINE
  5
2AB
330
1F
100
AcDbEntity
  8
0
  6
Continuous
 62
     7
370
    15
100
AcDbLine
 10
184.6355732222
 20
130.5567583059
 30
0.0
 11
183.6355732222
 21
130.5567583059
 31
0.0
  0
LINE
  5
2AC
330
1F
100
AcDbEntity
  8
0
  6
Continuous
 62
     7
370
    15
100
AcDbLine
 10
183.6355732222
 20
130.5567583059
 30
0.0
 11
183.6355732222
 21
134.732581578
 31
0.0
  0
LINE
  5
2AD
330
1F
100
AcDbEntity
  8
0
  6
Continuous
 62
     7
370
    15
100
AcDbLine
 10
184.6355732222
 20
126.3809350338
 30
0.0
 11
183.6355732222
 21
126.3809350338
 31
0.0
  0
LINE
  5
2AE
330
1F
100
AcDbEntity
  8
0
  6
Continuous
 62
     7
370
    15
100
AcDbLine
 10
183.6355732222
 20
126.3809350338
 30
0.0
 11
183.6355732222
 21
130.5567583059
 31
0.0
  0
LINE
  5
2AF
330
1F
100
AcDbEntity
  8
0
  6
Continuous
 62
     7
370
    15
100
AcDbLine
 10
184.6355732222
 20
130.5567583059
 30
0.0
 11
184.6355732222
 21
126.3809350338
 31
0.0
  0
LINE
  5
2B0
330
1F
100
AcDbEntity
  8
0
  6
Continuous
 62
     7
370
    15
100
AcDbLine
 10
183.6355732222
 20
101.3558722193
 30
0.0
 11
184.6355732222
 21
101.3558722193
 31
0.0
  0
LINE
  5
2B1
330
1F
100
AcDbEntity
  8
0
  6
Continuous
 62
     7
370
    15
100
AcDbLine
 10
183.6355732222
 20
101.3558722193
 30
0.0
 11
183.6355732222
 21
126.3809350338
 31
0.0
  0
LINE
  5
2B2
330
1F
100
AcDbEntity
  8
0
  6
Continuous
 62
     7
370
    15
100
AcDbLine
 10
184.6355732222
 20
101.3558722193
 30
0.0
 11
184.6355732222
 21
126.3809350338
 31
0.0
  0
LINE
  5
2B3
330
1F
100
AcDbEntity
  8
0
  6
Continuous
 62
     7
370
    15
100
AcDbLine
 10
184.6355732222
 20
96.3558722193
 30
0.0
 11
183.6355732222
 21
96.3558722193
 31
0.0
  0
LINE
  5
2B4
330
1F
100
AcDbEntity
  8
0
  6
Continuous
 62
     7
370
    15
100
AcDbLine
 10
183.6355732222
 20
96.3558722193
 30
0.0
 11
183.6355732222
 21
101.3558722193
 31
0.0
  0
LINE
  5
2B5
330
1F
100
AcDbEntity
  8
0
  6
Continuous
 62
     7
370
    15
100
AcDbLine
 10
184.6355732222
 20
101.3558722193
 30
0.0
 11
184.6355732222
 21
96.3558722193
 31
0.0
  0
LINE
  5
2B6
330
1F
100
AcDbEntity
  8
0
  6
Continuous
 62
     7
370
    15
100
AcDbLine
 10
85.8168616462
 20
229.1877748849
 30
0.0
 11
85.8168616462
 21
230.1877748849
 31
0.0
  0
LINE
  5
2B7
330
1F
100
AcDbEntity
  8
0
  6
Continuous
 62
     7
370
    15
100
AcDbLine
 10
61.8168616462
 20
230.1877748849
 30
0.0
 11
61.8168616462
 21
229.1877748849
 31
0.0
  0
LINE
  5
2B8
330
1F
100
AcDbEntity
  8
0
  6
Continuous
 62
     7
370
    15
100
AcDbLine
 10
85.8168616462
 20
230.1877748849
 30
0.0
 11
61.8168616462
 21
230.1877748849
 31
0.0
  0
LINE
  5
2B9
330
1F
100
AcDbEntity
  8
0
  6
Continuous
 62
     7
370
    15
100
AcDbLine
 10
61.8168616462
 20
229.1877748849
 30
0.0
 11
85.8168616462
 21
229.1877748849
 31
0.0
  0
LINE
  5
2BA
330
1F
100
AcDbEntity
  8
0
  6
Continuous
 62
     7
370
    15
100
AcDbLine
 10
56.8168616462
 20
229.1877748849
 30
0.0
 11
56.8168616462
 21
230.1877748849
 31
0.0
  0
LINE
  5
2BB
330
1F
100
AcDbEntity
  8
0
  6
Continuous
 62
     7
370
    15
100
AcDbLine
 10
56.8168616462
 20
230.1877748849
 30
0.0
 11
61.8168616462
 21
230.1877748849
 31
0.0
  0
LINE
  5
2BC
330
1F
100
AcDbEntity
  8
0
  6
Continuous
 62
     7
370
    15
100
AcDbLine
 10
61.8168616462
 20
229.1877748849
 30
0.0
 11
56.8168616462
 21
229.1877748849
 31
0.0
  0
LINE
  5
2BD
330
1F
100
AcDbEntity
  8
0
  6
Continuous
 62
     7
370
    15
100
AcDbLine
 10
90.8168616462
 20
230.1877748849
 30
0.0
 11
90.8168616462
 21
229.1877748849
 31
0.0
  0
LINE
  5
2BE
330
1F
100
AcDbEntity
  8
0
  6
Continuous
 62
     7
370
    15
100
AcDbLine
 10
85.8168616462
 20
230.1877748849
 30
0.0
 11
90.8168616462
 21
230.1877748849
 31
0.0
  0
LINE
  5
2BF
330
1F
100
AcDbEntity
  8
0
  6
Continuous
 62
     7
370
    15
100
AcDbLine
 10
90.8168616462
 20
229.1877748849
 30
0.0
 11
85.8168616462
 21
229.1877748849
 31
0.0
  0
DIMENSION
  5
2C0
330
1F
100
AcDbEntity
  8
0
  6
Continuous
 62
     7
370
     0
100
AcDbDimension
  2
_D_22
 10
106.8168616462
 20
229.1877748849
 30
0.0
 11
106.8168616462
 21
228.6688456786
 31
0.0
 70
   160
  1
<>
 71
     2
 42
-1.0
  3
SLDDIMSTYLE0
100
AcDbAlignedDimension
 13
90.8168616462
 23
230.1877748849
 33
0.0
 14
90.8168616462
 24
229.1877748849
 34
0.0
 50
90.0
100
AcDbRotatedDimension
  0
DIMENSION
  5
2CC
330
1F
100
AcDbEntity
  8
0
  6
Continuous
 62
     7
370
     0
100
AcDbDimension
  2
_D_23
 10
90.8168616462
 20
234.1530444173
 30
0.0
 11
103.7027582609
 21
234.1530444173
 31
0.0
 70
   160
  1
<>
 71
     2
 42
-1.0
  3
SLDDIMSTYLE0
100
AcDbAlignedDimension
 13
85.8168616462
 23
230.1877748849
 33
0.0
 14
90.8168616462
 24
230.1877748849
 34
0.0
100
AcDbRotatedDimension
  0
LINE
  5
2D8
330
1F
100
AcDbEntity
  8
0
  6
Continuous
 62
     7
370
    15
100
AcDbLine
 10
151.5638563614
 20
265.9668563618
 30
0.0
 11
150.8567495802
 21
265.5586523059
 31
0.0
  0
LINE
  5
2D9
330
1F
100
AcDbEntity
  8
0
  6
Continuous
 62
     7
370
    15
100
AcDbLine
 10
172.8269059918
 20
215.1555028364
 30
0.0
 11
173.534012773
 21
215.5637068923
 31
0.0
  0
LINE
  5
2DA
330
1F
100
AcDbEntity
  8
0
  6
Continuous
 62
     7
370
    15
100
AcDbLine
 10
169.6449254765
 20
189.7389757301
 30
0.0
 11
170.3520322577
 21
190.1471797861
 31
0.0
  0
LWPOLYLINE
  5
2DB
330
1F
100
AcDbEntity
  8
0
  6
Continuous
 62
     7
370
    15
100
AcDbPolyline
 90
       22
 70
   128
 43
0.0
 10
169.4432256837
 20
235.6109494843
 10
169.419664606
 20
235.8050607271
 10
169.351074878
 20
236.0091273753
 10
169.243550998
 20
236.2050172119
 10
169.1066469347
 20
236.3753245652
 10
168.9525272148
 20
236.5049168794
 10
168.7948860518
 20
236.5822793088
 10
168.6477305549
 20
236.600537862
 10
168.5241361357
 20
236.5580701864
 10
168.4350847008
 20
236.4586497213
 10
168.3884888609
 20
236.3111104114
 10
168.3884888609
 20
236.1285617719
 10
168.4350847008
 20
235.9272240504
 10
168.5241361357
 20
235.7249869871
 10
168.6477305549
 20
235.5398202325
 10
168.7948860518
 20
235.3881766654
 10
168.9525272148
 20
235.2835304822
 10
169.1066469347
 20
235.2351799555
 10
169.243550998
 20
235.2474212417
 10
169.351074878
 20
235.319166649
 10
169.419664606
 20
235.4440412829
 10
169.4432256837
 20
235.6109494843
  0
LWPOLYLINE
  5
2DC
330
1F
100
AcDbEntity
  8
0
  6
Continuous
 62
     7
370
    15
100
AcDbPolyline
 90
       22
 70
   128
 43
0.0
 10
154.2404298882
 20
244.3873366864
 10
154.263990966
 20
244.1932254437
 10
154.332580694
 20
243.9891587954
 10
154.440104574
 20
243.7932689589
 10
154.5770086373
 20
243.6229616056
 10
154.7311283572
 20
243.4933692913
 10
154.8887695201
 20
243.416006862
 10
155.0359250171
 20
243.3977483088
 10
155.1595194363
 20
243.4402159844
 10
155.2485708712
 20
243.5396364494
 10
155.2951667111
 20
243.6871757593
 10
155.2951667111
 20
243.8697243989
 10
155.2485708712
 20
244.0710621203
 10
155.1595194363
 20
244.2732991837
 10
155.0359250171
 20
244.4584659383
 10
154.8887695201
 20
244.6101095054
 10
154.7311283572
 20
244.7147556886
 10
154.5770086373
 20
244.7631062153
 10
154.440104574
 20
244.750864929
 10
154.332580694
 20
244.6791195218
 10
154.263990966
 20
244.5542448878
 10
154.2404298882
 20
244.3873366864
  0
LWPOLYLINE
  5
2DD
330
1F
100
AcDbEntity
  8
0
  6
Continuous
 62
     7
370
    15
100
AcDbPolyline
 90
       43
 70
   128
 43
0.0
 10
149.9977892011
 20
239.6918289179
 10
150.019508147
 20
239.3446183315
 10
150.0841798194
 20
238.9800876946
 10
150.19035956
 20
238.6063800193
 10
150.3356754888
 20
238.2318433176
 10
150.5168814882
 20
237.8648441205
 10
150.7299297154
 20
237.5135805835
 10
150.9700610253
 20
237.1858993536
 10
151.231911281
 20
236.8891202881
 10
151.5096311807
 20
236.6298729409
 10
151.7970169206
 20
236.4139484693
 10
152.0876487782
 20
236.2461702691
 10
152.3750345181
 20
236.1302862282
 10
152.6527544178
 20
236.0688850045
 10
152.9146046735
 20
236.0633381999
 10
153.1547359833
 20
236.1137697208
 10
153.3677842106
 20
236.2190530104
 10
153.5489902099
 20
236.3768362141
 10
153.6943061387
 20
236.5835947156
 10
153.8004858793
 20
236.8347098719
 10
153.8651575517
 20
237.1245721852
 10
153.8868764976
 20
237.4467066104
 10
153.8651575517
 20
237.7939171968
 10
153.8004858793
 20
238.1584478337
 10
153.6943061387
 20
238.5321555089
 10
153.5489902099
 20
238.9066922107
 10
153.3677842106
 20
239.2736914078
 10
153.1547359833
 20
239.6249549448
 10
152.9146046735
 20
239.9526361746
 10
152.6527544178
 20
240.2494152401
 10
152.3750345181
 20
240.5086625874
 10
152.0876487782
 20
240.724587059
 10
151.7970169206
 20
240.8923652592
 10
151.5096311807
 20
241.0082493001
 10
151.231911281
 20
241.0696505238
 10
150.9700610253
 20
241.0751973284
 10
150.7299297154
 20
241.0247658075
 10
150.5168814882
 20
240.9194825178
 10
150.3356754888
 20
240.7616993142
 10
150.19035956
 20
240.5549408126
 10
150.0841798194
 20
240.3038256564
 10
150.019508147
 20
240.0139633431
 10
149.9977892011
 20
239.6918289179
  0
LWPOLYLINE
  5
2DE
330
1F
100
AcDbEntity
  8
0
  6
Continuous
 62
     7
370
    15
100
AcDbPolyline
 90
       22
 70
   128
 43
0.0
 10
155.30109006
 20
229.4855663946
 10
155.2775289823
 20
229.6796776373
 10
155.2089392543
 20
229.8837442855
 10
155.1014153743
 20
230.0796341221
 10
154.964511311
 20
230.2499414754
 10
154.8103915911
 20
230.3795337896
 10
154.6527504281
 20
230.456896219
 10
154.5055949312
 20
230.4751547722
 10
154.382000512
 20
230.4326870966
 10
154.292949077
 20
230.3332666315
 10
154.2463532371
 20
230.1857273217
 10
154.2463532371
 20
230.0031786821
 10
154.292949077
 20
229.8018409606
 10
154.382000512
 20
229.5996038973
 10
154.5055949312
 20
229.4144371427
 10
154.6527504281
 20
229.2627935756
 10
154.8103915911
 20
229.1581473924
 10
154.964511311
 20
229.1097968657
 10
155.1014153743
 20
229.1220381519
 10
155.2089392543
 20
229.1937835592
 10
155.2775289823
 20
229.3186581931
 10
155.30109006
 20
229.4855663946
  0
LWPOLYLINE
  5
2DF
330
1F
100
AcDbEntity
  8
0
  6
Continuous
 62
     7
370
    15
100
AcDbPolyline
 90
       22
 70
   128
 43
0.0
 10
168.382565512
 20
221.9337913602
 10
168.4061265897
 20
221.7396801175
 10
168.4747163177
 20
221.5356134692
 10
168.5822401977
 20
221.3397236326
 10
168.719144261
 20
221.1694162794
 10
168.8732639809
 20
221.0398239651
 10
169.0309051439
 20
220.9624615357
 10
169.1780606408
 20
220.9442029826
 10
169.30165506
 20
220.9866706582
 10
169.390706495
 20
221.0860911232
 10
169.4373023349
 20
221.2336304331
 10
169.4373023349
 20
221.4161790726
 10
169.390706495
 20
221.6175167941
 10
169.30165506
 20
221.8197538575
 10
169.1780606408
 20
222.004920612
 10
169.0309051439
 20
222.1565641791
 10
168.8732639809
 20
222.2612103624
 10
168.719144261
 20
222.3095608891
 10
168.5822401977
 20
222.2973196028
 10
168.4747163177
 20
222.2255741956
 10
168.4061265897
 20
222.1006995616
 10
168.382565512
 20
221.9337913602
  0
LWPOLYLINE
  5
2E0
330
1F
100
AcDbEntity
  8
0
  6
Continuous
 62
     7
370
    15
100
AcDbPolyline
 90
       43
 70
   128
 43
0.0
 10
173.6858663709
 20
226.0169930449
 10
173.6641474249
 20
226.3642036313
 10
173.5994757525
 20
226.7287342682
 10
173.493296012
 20
227.1024419434
 10
173.3479800832
 20
227.4769786451
 10
173.1667740838
 20
227.8439778423
 10
172.9537258566
 20
228.1952413793
 10
172.7135945467
 20
228.5229226091
 10
172.451744291
 20
228.8197016746
 10
172.1740243913
 20
229.0789490219
 10
171.8866386514
 20
229.2948734935
 10
171.5960067938
 20
229.4626516937
 10
171.3086210539
 20
229.5785357346
 10
171.0309011542
 20
229.6399369583
 10
170.7690508985
 20
229.6454837629
 10
170.5289195886
 20
229.5950522419
 10
170.3158713614
 20
229.4897689523
 10
170.1346653621
 20
229.3319857487
 10
169.9893494332
 20
229.1252272471
 10
169.8831696927
 20
228.8741120909
 10
169.8184980203
 20
228.5842497776
 10
169.7967790743
 20
228.2621153524
 10
169.8184980203
 20
227.9149047659
 10
169.8831696927
 20
227.5503741291
 10
169.9893494332
 20
227.1766664538
 10
170.1346653621
 20
226.8021297521
 10
170.3158713614
 20
226.4351305549
 10
170.5289195886
 20
226.083867018
 10
170.7690508985
 20
225.7561857881
 10
171.0309011542
 20
225.4594067226
 10
171.3086210539
 20
225.2001593754
 10
171.5960067938
 20
224.9842349037
 10
171.8866386514
 20
224.8164567036
 10
172.1740243913
 20
224.7005726627
 10
172.451744291
 20
224.639171439
 10
172.7135945467
 20
224.6336246344
 10
172.9537258566
 20
224.6840561553
 10
173.1667740838
 20
224.7893394449
 10
173.3479800832
 20
224.9471226485
 10
173.493296012
 20
225.1538811501
 10
173.5994757525
 20
225.4049963064
 10
173.6641474249
 20
225.6948586196
 10
173.6858663709
 20
226.0169930449
  0
LWPOLYLINE
  5
2E1
330
1F
100
AcDbEntity
  8
0
  6
Continuous
 62
     7
370
    15
100
AcDbPolyline
 90
       29
 70
   128
 43
0.0
 10
169.620002379
 20
198.7645619355
 10
169.5978415749
 20
199.0044768755
 10
169.5324703977
 20
199.2579477985
 10
169.4271668313
 20
199.5122646139
 10
169.2872112362
 20
199.7546748148
 10
169.1196215703
 20
199.9730229414
 10
168.9328014793
 20
200.1563601069
 10
168.7361189026
 20
200.2954930202
 10
168.5394363259
 20
200.3834449763
 10
168.3526162348
 20
200.4158056966
 10
168.1850265689
 20
200.3909524796
 10
168.0450709738
 20
200.3101315694
 10
167.9397674074
 20
200.1773956638
 10
167.8743962302
 20
199.9994006954
 10
167.8522354261
 20
199.7850720753
 10
167.8743962302
 20
199.5451571353
 10
167.9397674074
 20
199.2916862123
 10
168.0450709738
 20
199.0373693968
 10
168.1850265689
 20
198.794959196
 10
168.3526162348
 20
198.5766110694
 10
168.5394363259
 20
198.3932739039
 10
168.7361189026
 20
198.2541409905
 10
168.9328014793
 20
198.1661890345
 10
169.1196215703
 20
198.1338283142
 10
169.2872112362
 20
198.1586815311
 10
169.4271668313
 20
198.2395024414
 10
169.5324703977
 20
198.372238347
 10
169.5978415749
 20
198.5502333153
 10
169.620002379
 20
198.7645619355
  0
LWPOLYLINE
  5
2E2
330
1F
100
AcDbEntity
  8
0
  6
Continuous
 62
     7
370
    15
100
AcDbPolyline
 90
       29
 70
   128
 43
0.0
 10
154.0636531929
 20
213.8691072547
 10
154.0858139971
 20
213.6291923147
 10
154.1511851743
 20
213.3757213917
 10
154.2564887407
 20
213.1214045763
 10
154.3964443358
 20
212.8789943754
 10
154.5640340017
 20
212.6606462488
 10
154.7508540927
 20
212.4773090833
 10
154.9475366694
 20
212.3381761699
 10
155.1442192461
 20
212.2502242139
 10
155.3310393371
 20
212.2178634936
 10
155.498629003
 20
212.2427167106
 10
155.6385845982
 20
212.3235376208
 10
155.7438881646
 20
212.4562735264
 10
155.8092593418
 20
212.6342684947
 10
155.8314201459
 20
212.8485971149
 10
155.8092593418
 20
213.0885120549
 10
155.7438881646
 20
213.3419829779
 10
155.6385845982
 20
213.5962997933
 10
155.498629003
 20
213.8387099942
 10
155.3310393371
 20
214.0570581208
 10
155.1442192461
 20
214.2403952863
 10
154.9475366694
 20
214.3795281997
 10
154.7508540927
 20
214.4674801557
 10
154.5640340017
 20
214.499840876
 10
154.3964443358
 20
214.474987659
 10
154.2564887407
 20
214.3941667488
 10
154.1511851743
 20
214.2614308432
 10
154.0858139971
 20
214.0834358749
 10
154.0636531929
 20
213.8691072547
  0
LWPOLYLINE
  5
2E3
330
1F
100
AcDbEntity
  8
0
  6
Continuous
 62
     7
370
    15
100
AcDbPolyline
 90
       29
 70
   128
 43
0.0
 10
154.0636531929
 20
207.7450511655
 10
154.0858139971
 20
207.5051362255
 10
154.1511851743
 20
207.2516653026
 10
154.2564887407
 20
206.9973484871
 10
154.3964443358
 20
206.7549382863
 10
154.5640340017
 20
206.5365901597
 10
154.7508540927
 20
206.3532529942
 10
154.9475366694
 20
206.2141200808
 10
155.1442192461
 20
206.1261681248
 10
155.3310393371
 20
206.0938074044
 10
155.498629003
 20
206.1186606214
 10
155.6385845982
 20
206.1994815317
 10
155.7438881646
 20
206.3322174372
 10
155.8092593418
 20
206.5102124056
 10
155.8314201459
 20
206.7245410258
 10
155.8092593418
 20
206.9644559658
 10
155.7438881646
 20
207.2179268888
 10
155.6385845982
 20
207.4722437042
 10
155.498629003
 20
207.714653905
 10
155.3310393371
 20
207.9330020316
 10
155.1442192461
 20
208.1163391971
 10
154.9475366694
 20
208.2554721105
 10
154.7508540927
 20
208.3434240665
 10
154.5640340017
 20
208.3757847869
 10
154.3964443358
 20
208.3509315699
 10
154.2564887407
 20
208.2701106597
 10
154.1511851743
 20
208.1373747541
 10
154.0858139971
 20
207.9593797857
 10
154.0636531929
 20
207.7450511655
  0
LWPOLYLINE
  5
2E4
330
1F
100
AcDbEntity
  8
0
  6
Continuous
 62
     7
370
    15
100
AcDbPolyline
 90
       29
 70
   128
 43
0.0
 10
169.620002379
 20
204.8886180246
 10
169.5978415749
 20
205.1285329647
 10
169.5324703977
 20
205.3820038876
 10
169.4271668313
 20
205.6363207031
 10
169.2872112362
 20
205.8787309039
 10
169.1196215703
 20
206.0970790305
 10
168.9328014793
 20
206.280416196
 10
168.7361189026
 20
206.4195491094
 10
168.5394363259
 20
206.5075010654
 10
168.3526162348
 20
206.5398617858
 10
168.1850265689
 20
206.5150085688
 10
168.0450709738
 20
206.4341876585
 10
167.9397674074
 20
206.3014517529
 10
167.8743962302
 20
206.1234567846
 10
167.8522354261
 20
205.9091281644
 10
167.8743962302
 20
205.6692132244
 10
167.9397674074
 20
205.4157423014
 10
168.0450709738
 20
205.161425486
 10
168.1850265689
 20
204.9190152851
 10
168.3526162348
 20
204.7006671586
 10
168.5394363259
 20
204.5173299931
 10
168.7361189026
 20
204.3781970797
 10
168.9328014793
 20
204.2902451236
 10
169.1196215703
 20
204.2578844033
 10
169.2872112362
 20
204.2827376203
 10
169.4271668313
 20
204.3635585305
 10
169.5324703977
 20
204.4962944361
 10
169.5978415749
 20
204.6742894045
 10
169.620002379
 20
204.8886180246
  0
ARC
  5
2E5
330
1F
100
AcDbEntity
  8
0
  6
Continuous
 62
     7
370
    15
100
AcDbCircle
 10
166.2247428629
 20
249.0632295199
 30
0.0
 40
7.644908055775867
100
AcDbArc
 50
2.4534496702
 51
57.5465504754
  0
LINE
  5
2E6
330
1F
100
AcDbEntity
  8
0
  6
Continuous
 62
     7
370
    15
100
AcDbLine
 10
173.8626430662
 20
217.4447268687
 30
0.0
 11
173.8626430662
 21
249.3904903726
 31
0.0
  0
ARC
  5
2E7
330
1F
100
AcDbEntity
  8
0
  6
Continuous
 62
     7
370
    15
100
AcDbCircle
 10
171.638098309
 20
217.1117195165
 30
0.0
 40
2.249331739229285
100
AcDbArc
 50
286.3595086972
 51
8.5137780847
  0
ARC
  5
2E8
330
1F
100
AcDbEntity
  8
0
  6
Continuous
 62
     7
370
    15
100
AcDbCircle
 10
172.9052073079
 20
212.7951922228
 30
0.0
 40
2.249331739229195
100
AcDbArc
 50
106.3595086972
 51
188.5137780847
  0
LINE
  5
2E9
330
1F
100
AcDbEntity
  8
0
  6
Continuous
 62
     7
370
    15
100
AcDbLine
 10
170.6806625508
 20
192.0281997625
 30
0.0
 11
170.6806625508
 21
212.4621848705
 31
0.0
  0
LWPOLYLINE
  5
2EA
330
1F
100
AcDbEntity
  8
0
  6
Continuous
 62
     7
370
    15
100
AcDbPolyline
 90
       15
 70
   128
 43
0.0
 10
167.1451286449
 20
189.9865159826
 10
167.5409828464
 20
189.7836654025
 10
167.9318589517
 20
189.6347081585
 10
168.3128414669
 20
189.5415174744
 10
168.6791393158
 20
189.5052652771
 10
169.0261460905
 20
189.5264074591
 10
169.3494979794
 20
189.6046781451
 10
169.6451286449
 20
189.7390930358
 10
169.9093203599
 20
189.9279617861
 10
170.1387507602
 20
190.1689092617
 10
170.3305346256
 20
190.4589054084
 10
170.4822601624
 20
190.7943033564
 10
170.5920193343
 20
191.1708852818
 10
170.6584318557
 20
191.5839154485
 10
170.6806625508
 20
192.0281997625
  0
LINE
  5
2EB
330
1F
100
AcDbEntity
  8
0
  6
Continuous
 62
     7
370
    15
100
AcDbLine
 10
166.7915752543
 20
190.1906180106
 30
0.0
 11
167.1451286449
 21
189.9865159826
 31
0.0
  0
LINE
  5
2EC
330
1F
100
AcDbEntity
  8
0
  6
Continuous
 62
     7
370
    15
100
AcDbLine
 10
166.7915752543
 20
190.1906180106
 30
0.0
 11
166.7915752543
 21
220.8108984563
 31
0.0
  0
LINE
  5
2ED
330
1F
100
AcDbEntity
  8
0
  6
Continuous
 62
     7
370
    15
100
AcDbLine
 10
166.7915752543
 20
220.8108984563
 30
0.0
 11
156.8920803177
 21
226.525755239
 31
0.0
  0
LINE
  5
2EE
330
1F
100
AcDbEntity
  8
0
  6
Continuous
 62
     7
370
    15
100
AcDbLine
 10
156.8920803177
 20
226.525755239
 30
0.0
 11
156.8920803177
 21
195.9054747933
 31
0.0
  0
LINE
  5
2EF
330
1F
100
AcDbEntity
  8
0
  6
Continuous
 62
     7
370
    15
100
AcDbLine
 10
156.5385269271
 20
196.1095768213
 30
0.0
 11
156.8920803177
 21
195.9054747933
 31
0.0
  0
ARC
  5
2F0
330
1F
100
AcDbEntity
  8
0
  6
Continuous
 62
     7
370
    15
100
AcDbCircle
 10
160.6408932245
 20
202.560562013
 30
0.0
 40
7.644908055775845
100
AcDbArc
 50
182.4534496702
 51
237.5465504754
  0
LINE
  5
2F1
330
1F
100
AcDbEntity
  8
0
  6
Continuous
 62
     7
370
    15
100
AcDbLine
 10
153.0029930212
 20
222.6672862683
 30
0.0
 11
153.0029930212
 21
202.2333011603
 31
0.0
  0
ARC
  5
2F2
330
1F
100
AcDbEntity
  8
0
  6
Continuous
 62
     7
370
    15
100
AcDbCircle
 10
145.4145808627
 20
222.3343863795
 30
0.0
 40
7.595710725291768
100
AcDbArc
 50
2.5119269106
 51
37.8537131507
  0
ARC
  5
2F3
330
1F
100
AcDbEntity
  8
0
  6
Continuous
 62
     7
370
    15
100
AcDbCircle
 10
157.4094246643
 20
231.6565646585
 30
0.0
 40
7.595710725291704
100
AcDbArc
 50
182.5119269106
 51
217.8537131507
  0
LINE
  5
2F4
330
1F
100
AcDbEntity
  8
0
  6
Continuous
 62
     7
370
    15
100
AcDbLine
 10
149.8210125058
 20
231.3236647697
 30
0.0
 11
149.8210125058
 21
263.2694282736
 31
0.0
  0
LWPOLYLINE
  5
2F5
330
1F
100
AcDbEntity
  8
0
  6
Continuous
 62
     7
370
    15
100
AcDbPolyline
 90
       15
 70
   128
 43
0.0
 10
153.3565464118
 20
265.3111120535
 10
152.9606922102
 20
265.5139626336
 10
152.569816105
 20
265.6629198776
 10
152.1888335898
 20
265.7561105617
 10
151.8225357409
 20
265.7923627589
 10
151.4755289662
 20
265.771220577
 10
151.1521770773
 20
265.692949891
 10
150.8565464118
 20
265.5585350002
 10
150.5923546968
 20
265.36966625
 10
150.3629242964
 20
265.1287187744
 10
150.1711404311
 20
264.8387226277
 10
150.0194148942
 20
264.5033246797
 10
149.9096557224
 20
264.1267427543
 10
149.8432432009
 20
263.7137125876
 10
149.8210125058
 20
263.2694282736
  0
LINE
  5
2F6
330
1F
100
AcDbEntity
  8
0
  6
Continuous
 62
     7
370
    15
100
AcDbLine
 10
153.3565464118
 20
265.3111120535
 30
0.0
 11
170.3271091602
 21
255.5142147116
 31
0.0
  0
LWPOLYLINE
  5
2F7
330
1F
100
AcDbEntity
  8
0
  6
Continuous
 62
     7
370
    15
100
AcDbPolyline
 90
       21
 70
   128
 43
0.0
 10
171.1402819586
 20
245.8586959136
 10
171.1177865836
 20
246.035693459
 10
171.0525024627
 20
246.2213378586
 10
170.9508200604
 20
246.397456945
 10
170.8226927588
 20
246.5468109551
 10
170.6806625508
 20
246.6547800776
 10
170.5386323429
 20
246.7107955427
 10
170.4105050413
 20
246.7093741662
 10
170.308822639
 20
246.6506550825
 10
170.243538518
 20
246.5403861246
 10
170.2210431431
 20
246.3893611863
 10
170.243538518
 20
246.2123636408
 10
170.308822639
 20
246.0267192413
 10
170.4105050413
 20
245.8506001548
 10
170.5386323429
 20
245.7012461447
 10
170.6806625508
 20
245.5932770222
 10
170.8226927588
 20
245.5372615571
 10
170.9508200604
 20
245.5386829336
 10
171.0525024627
 20
245.5974020173
 10
171.1177865836
 20
245.7076709753
 10
171.1402819586
 20
245.8586959136
  0
LWPOLYLINE
  5
2F8
330
1F
100
AcDbEntity
  8
0
  6
Continuous
 62
     7
370
    15
100
AcDbPolyline
 90
       21
 70
   128
 43
0.0
 10
152.5433736134
 20
256.594462584
 10
152.5658689884
 20
256.4174650386
 10
152.6311531093
 20
256.231820639
 10
152.7328355116
 20
256.0557015526
 10
152.8609628132
 20
255.9063475425
 10
153.0029930212
 20
255.79837842
 10
153.1450232291
 20
255.7423629549
 10
153.2731505307
 20
255.7437843314
 10
153.374832933
 20
255.8025034151
 10
153.4401170539
 20
255.9127723731
 10
153.4626124289
 20
256.0637973114
 10
153.4401170539
 20
256.2407948568
 10
153.374832933
 20
256.4264392564
 10
153.2731505307
 20
256.6025583428
 10
153.1450232291
 20
256.7519123529
 10
153.0029930212
 20
256.8598814754
 10
152.8609628132
 20
256.9158969405
 10
152.7328355116
 20
256.914475564
 10
152.6311531093
 20
256.8557564803
 10
152.5658689884
 20
256.7454875223
 10
152.5433736134
 20
256.594462584
  0
LWPOLYLINE
  5
2F9
330
1F
100
AcDbEntity
  8
0
  6
Continuous
 62
     7
370
    15
100
AcDbPolyline
 90
       41
 70
   128
 43
0.0
 10
160.074060833
 20
242.04032924
 10
160.0958249777
 20
242.3471028795
 10
160.1605815061
 20
242.6211943873
 10
160.2667358977
 20
242.8558547209
 10
160.4116742789
 20
243.0453057641
 10
160.591827786
 20
243.1848826033
 10
160.8027604416
 20
243.2711483938
 10
161.0392783836
 20
243.3019789852
 10
161.2955577554
 20
243.2766152263
 10
161.5652881084
 20
243.1956816568
 10
161.841827786
 20
243.06117113
 10
162.1183674636
 20
242.8763957413
 10
162.3880978166
 20
242.645905274
 10
162.6443771884
 20
242.3753751685
 10
162.8808951304
 20
242.0714667738
 10
163.091827786
 20
241.7416633231
 10
163.271981293
 20
241.394085672
 10
163.4169196743
 20
241.0372923358
 10
163.5230740659
 20
240.6800687505
 10
163.5878305943
 20
240.3312109464
 10
163.609594739
 20
239.9993089605
 10
163.5878305943
 20
239.692535321
 10
163.5230740659
 20
239.4184438132
 10
163.4169196743
 20
239.1837834796
 10
163.271981293
 20
238.9943324364
 10
163.091827786
 20
238.8547555971
 10
162.8808951304
 20
238.7684898067
 10
162.6443771884
 20
238.7376592152
 10
162.3880978166
 20
238.7630229742
 10
162.1183674636
 20
238.8439565437
 10
161.841827786
 20
238.9784670705
 10
161.5652881084
 20
239.1632424592
 10
161.2955577554
 20
239.3937329264
 10
161.0392783836
 20
239.6642630319
 10
160.8027604416
 20
239.9681714267
 10
160.591827786
 20
240.2979748773
 10
160.4116742789
 20
240.6455525284
 10
160.2667358977
 20
241.0023458647
 10
160.1605815061
 20
241.3595694499
 10
160.0958249777
 20
241.708427254
 10
160.074060833
 20
242.04032924
  0
LWPOLYLINE
  5
2FA
330
1F
100
AcDbEntity
  8
0
  6
Continuous
 62
     7
370
    15
100
AcDbPolyline
 90
       21
 70
   128
 43
0.0
 10
165.6602044044
 20
222.6888361636
 10
165.6377090294
 20
222.865833709
 10
165.5724249085
 20
223.0514781086
 10
165.4707425062
 20
223.227597195
 10
165.3426152046
 20
223.3769512051
 10
165.2005849966
 20
223.4849203276
 10
165.0585547887
 20
223.5409357927
 10
164.9304274871
 20
223.5395144162
 10
164.8287450848
 20
223.4807953325
 10
164.7634609639
 20
223.3705263746
 10
164.7409655889
 20
223.2195014363
 10
164.7634609639
 20
223.0425038908
 10
164.8287450848
 20
222.8568594912
 10
164.9304274871
 20
222.6807404048
 10
165.0585547887
 20
222.5313863947
 10
165.2005849966
 20
222.4234172722
 10
165.3426152046
 20
222.3674018071
 10
165.4707425062
 20
222.3688231836
 10
165.5724249085
 20
222.4275422673
 10
165.6377090294
 20
222.5378112253
 10
165.6602044044
 20
222.6888361636
  0
LWPOLYLINE
  5
2FB
330
1F
100
AcDbEntity
  8
0
  6
Continuous
 62
     7
370
    15
100
AcDbPolyline
 90
       21
 70
   128
 43
0.0
 10
158.0234511676
 20
227.0974399674
 10
158.0459465426
 20
226.920442422
 10
158.1112306635
 20
226.7347980224
 10
158.2129130658
 20
226.5586789359
 10
158.3410403674
 20
226.4093249259
 10
158.4830705754
 20
226.3013558033
 10
158.6251007833
 20
226.2453403383
 10
158.7532280849
 20
226.2467617148
 10
158.8549104872
 20
226.3054807985
 10
158.9201946081
 20
226.4157497564
 10
158.9426899831
 20
226.5667746947
 10
158.9201946081
 20
226.7437722402
 10
158.8549104872
 20
226.9294166397
 10
158.7532280849
 20
227.1055357262
 10
158.6251007833
 20
227.2548897363
 10
158.4830705754
 20
227.3628588588
 10
158.3410403674
 20
227.4188743238
 10
158.2129130658
 20
227.4174529474
 10
158.1112306635
 20
227.3587338637
 10
158.0459465426
 20
227.2484649057
 10
158.0234511676
 20
227.0974399674
  0
LINE
  5
2FC
330
1F
100
AcDbEntity
  8
0
  6
Continuous
 62
     7
370
    15
100
AcDbLine
 10
170.3271091602
 20
255.5142147116
 30
0.0
 11
171.0342159414
 21
255.9224187675
 31
0.0
  0
ARC
  5
2FD
330
1F
100
AcDbEntity
  8
0
  6
Continuous
 62
     7
370
    15
100
AcDbCircle
 10
166.9318496441
 20
249.4714335758
 30
0.0
 40
7.644908055775891
100
AcDbArc
 50
2.4534496702
 51
57.5465504754
  0
LINE
  5
2FE
330
1F
100
AcDbEntity
  8
0
  6
Continuous
 62
     7
370
    15
100
AcDbLine
 10
174.5697498474
 20
249.7986944285
 30
0.0
 11
173.8626430662
 21
249.3904903726
 31
0.0
  0
LINE
  5
2FF
330
1F
100
AcDbEntity
  8
0
  6
Continuous
 62
     7
370
    15
100
AcDbLine
 10
173.8626430662
 20
217.4447268687
 30
0.0
 11
174.5697498474
 21
217.8529309246
 31
0.0
  0
LINE
  5
300
330
1F
100
AcDbEntity
  8
0
  6
Continuous
 62
     7
370
    15
100
AcDbLine
 10
174.5697498474
 20
217.8529309246
 30
0.0
 11
174.5697498474
 21
249.7986944285
 31
0.0
  0
LINE
  5
301
330
1F
100
AcDbEntity
  8
0
  6
Continuous
 62
     7
370
    15
100
AcDbLine
 10
154.0636531929
 20
265.7193161094
 30
0.0
 11
153.3565464118
 21
265.3111120535
 31
0.0
  0
LINE
  5
302
330
1F
100
AcDbEntity
  8
0
  6
Continuous
 62
     7
370
    15
100
AcDbLine
 10
171.0342159414
 20
255.9224187675
 30
0.0
 11
154.0636531929
 21
265.7193161094
 31
0.0
  0
ARC
  5
303
330
1F
100
AcDbEntity
  8
0
  6
Continuous
 62
     7
370
    15
100
AcDbCircle
 10
152.5910542422
 20
263.5941344549
 30
0.0
 40
2.585526007227507
100
AcDbArc
 50
55.2808080963
 51
113.4087334747
  0
ARC
  5
304
330
1F
100
AcDbEntity
  8
0
  6
Continuous
 62
     7
370
    15
100
AcDbCircle
 10
170.3440215862
 20
236.7432739738
 30
0.0
 40
1.269139203172311
100
AcDbArc
 50
198.6291899165
 51
221.3654335508
  0
ARC
  5
305
330
1F
100
AcDbEntity
  8
0
  6
Continuous
 62
     7
370
    15
100
AcDbCircle
 10
172.1550080359
 20
228.7487900592
 30
0.0
 40
1.652985812833046
100
AcDbArc
 50
147.1587604759
 51
182.7209716504
  0
LWPOLYLINE
  5
306
330
1F
100
AcDbEntity
  8
0
  6
Continuous
 62
     7
370
    15
100
AcDbPolyline
 90
       16
 70
   128
 43
0.0
 10
173.4235439971
 20
225.0420865654
 10
173.4207013279
 20
225.0418286903
 10
173.1588510722
 20
225.0473754949
 10
172.8811311725
 20
225.1087767186
 10
172.5937454326
 20
225.2246607595
 10
172.303113575
 20
225.3924389597
 10
172.0157278351
 20
225.6083634313
 10
171.7380079354
 20
225.8676107785
 10
171.4761576797
 20
226.164389844
 10
171.2360263698
 20
226.4920710739
 10
171.0229781426
 20
226.8433346109
 10
170.8417721432
 20
227.210333808
 10
170.6964562144
 20
227.5848705097
 10
170.5902764738
 20
227.958578185
 10
170.5256048014
 20
228.3231088219
 10
170.5038858555
 20
228.6703194083
  0
LWPOLYLINE
  5
307
330
1F
100
AcDbEntity
  8
0
  6
Continuous
 62
     7
370
    15
100
AcDbPolyline
 90
       19
 70
   128
 43
0.0
 10
160.9965122616
 20
243.3006480182
 10
160.9738426788
 20
243.2640587768
 10
160.8676882873
 20
243.0293984432
 10
160.8029317588
 20
242.7553069354
 10
160.7811676142
 20
242.4485332959
 10
160.8029317588
 20
242.1166313099
 10
160.8676882873
 20
241.7677735058
 10
160.9738426788
 20
241.4105499206
 10
161.1187810601
 20
241.0537565844
 10
161.2989345672
 20
240.7061789333
 10
161.5098672227
 20
240.3763754826
 10
161.7463851648
 20
240.0724670879
 10
162.0026645366
 20
239.8019369824
 10
162.2723948896
 20
239.5714465151
 10
162.5489345672
 20
239.3866711264
 10
162.8254742448
 20
239.2521605996
 10
163.0952045977
 20
239.1712270301
 10
163.3514839696
 20
239.1458632712
 10
163.3942500915
 20
239.1471942382
  0
ARC
  5
308
330
1F
100
AcDbEntity
  8
0
  6
Continuous
 62
     7
370
    15
100
AcDbCircle
 10
172.1725367881
 20
217.5586099981
 30
0.0
 40
2.415213294779891
100
AcDbArc
 50
304.3126472262
 51
6.9995331672
  0
ARC
  5
309
330
1F
100
AcDbEntity
  8
0
  6
Continuous
 62
     7
370
    15
100
AcDbCircle
 10
170.3440215862
 20
222.4538097658
 30
0.0
 40
1.269139203172131
100
AcDbArc
 50
198.6291899165
 51
221.3654335508
  0
ARC
  5
30A
330
1F
100
AcDbEntity
  8
0
  6
Continuous
 62
     7
370
    15
100
AcDbCircle
 10
156.2018859625
 20
244.907355092
 30
0.0
 40
1.269139203170702
100
AcDbArc
 50
198.6291899165
 51
221.3654335508
  0
LINE
  5
30B
330
1F
100
AcDbEntity
  8
0
  6
Continuous
 62
     7
370
    15
100
AcDbLine
 10
171.387769332
 20
212.8703889264
 30
0.0
 11
170.6806625508
 21
212.4621848705
 31
0.0
  0
ARC
  5
30C
330
1F
100
AcDbEntity
  8
0
  6
Continuous
 62
     7
370
    15
100
AcDbCircle
 10
174.1116985882
 20
213.0700234097
 30
0.0
 40
2.731234980682397
100
AcDbArc
 50
137.5916130589
 51
184.1916652931
  0
LINE
  5
30D
330
1F
100
AcDbEntity
  8
0
  6
Continuous
 62
     7
370
    15
100
AcDbLine
 10
170.6806625508
 20
192.0281997625
 30
0.0
 11
171.387769332
 21
192.4364038184
 31
0.0
  0
LINE
  5
30E
330
1F
100
AcDbEntity
  8
0
  6
Continuous
 62
     7
370
    15
100
AcDbLine
 10
171.387769332
 20
192.4364038184
 30
0.0
 11
171.387769332
 21
212.8703889264
 31
0.0
  0
ARC
  5
30F
330
1F
100
AcDbEntity
  8
0
  6
Continuous
 62
     7
370
    15
100
AcDbCircle
 10
152.3560181626
 20
240.1785036247
 30
0.0
 40
1.652985812833736
100
AcDbArc
 50
147.1587604759
 51
182.7209716503
  0
LWPOLYLINE
  5
310
330
1F
100
AcDbEntity
  8
0
  6
Continuous
 62
     7
370
    15
100
AcDbPolyline
 90
       16
 70
   128
 43
0.0
 10
153.6245541239
 20
236.4718001309
 10
153.6217114547
 20
236.4715422558
 10
153.359861199
 20
236.4770890604
 10
153.0821412993
 20
236.5384902841
 10
152.7947555594
 20
236.654374325
 10
152.5041237018
 20
236.8221525252
 10
152.2167379618
 20
237.0380769968
 10
151.9390180622
 20
237.2973243441
 10
151.6771678064
 20
237.5941034095
 10
151.4370364966
 20
237.9217846394
 10
151.2239882694
 20
238.2730481764
 10
151.04278227
 20
238.6400473735
 10
150.8974663412
 20
239.0145840752
 10
150.7912866006
 20
239.3882917505
 10
150.7266149282
 20
239.7528223874
 10
150.7048959823
 20
240.1000329738
  0
LINE
  5
311
330
1F
100
AcDbEntity
  8
0
  6
Continuous
 62
     7
370
    15
100
AcDbLine
 10
168.5593422073
 20
206.3173322203
 30
0.0
 11
168.5743062699
 21
206.4957119891
 31
0.0
  0
ARC
  5
312
330
1F
100
AcDbEntity
  8
0
  6
Continuous
 62
     7
370
    15
100
AcDbCircle
 10
170.4047788323
 20
206.3743607569
 30
0.0
 40
1.846317575907832
100
AcDbArc
 50
181.7700174013
 51
244.3320887605
  0
ARC
  5
313
330
1F
100
AcDbEntity
  8
0
  6
Continuous
 62
     7
370
    15
100
AcDbCircle
 10
156.2018859625
 20
230.617890884
 30
0.0
 40
1.269139203170935
100
AcDbArc
 50
198.6291899165
 51
221.3654335508
  0
LINE
  5
314
330
1F
100
AcDbEntity
  8
0
  6
Continuous
 62
     7
370
    15
100
AcDbLine
 10
157.5991870989
 20
196.3136788492
 30
0.0
 11
156.8920803177
 21
195.9054747933
 31
0.0
  0
LINE
  5
315
330
1F
100
AcDbEntity
  8
0
  6
Continuous
 62
     7
370
    15
100
AcDbLine
 10
157.5991870989
 20
196.3136788492
 30
0.0
 11
157.5991870989
 21
226.1175511831
 31
0.0
  0
LINE
  5
316
330
1F
100
AcDbEntity
  8
0
  6
Continuous
 62
     7
370
    15
100
AcDbLine
 10
168.5593422073
 20
200.1932761312
 30
0.0
 11
168.5743062699
 21
200.3716558999
 31
0.0
  0
ARC
  5
317
330
1F
100
AcDbEntity
  8
0
  6
Continuous
 62
     7
370
    15
100
AcDbCircle
 10
170.4047788323
 20
200.2503046677
 30
0.0
 40
1.846317575907789
100
AcDbArc
 50
181.7700174013
 51
244.3320887605
  0
ARC
  5
318
330
1F
100
AcDbEntity
  8
0
  6
Continuous
 62
     7
370
    15
100
AcDbCircle
 10
168.9452269218
 20
192.1625917144
 30
0.0
 40
2.457841836666541
100
AcDbArc
 50
304.9159547339
 51
6.3962256594
  0
LINE
  5
319
330
1F
100
AcDbEntity
  8
0
  6
Continuous
 62
     7
370
    15
100
AcDbLine
 10
154.7707599741
 20
214.2773113106
 30
0.0
 11
154.7857240368
 21
214.4556910793
 31
0.0
  0
ARC
  5
31A
330
1F
100
AcDbEntity
  8
0
  6
Continuous
 62
     7
370
    15
100
AcDbCircle
 10
156.6161965992
 20
214.3343398471
 30
0.0
 40
1.846317575907751
100
AcDbArc
 50
181.7700174013
 51
244.3320887605
  0
LINE
  5
31B
330
1F
100
AcDbEntity
  8
0
  6
Continuous
 62
     7
370
    15
100
AcDbLine
 10
154.7707599741
 20
208.1532552215
 30
0.0
 11
154.7857240368
 21
208.3316349902
 31
0.0
  0
ARC
  5
31C
330
1F
100
AcDbEntity
  8
0
  6
Continuous
 62
     7
370
    15
100
AcDbCircle
 10
156.6161965992
 20
208.210283758
 30
0.0
 40
1.846317575907826
100
AcDbArc
 50
181.7700174013
 51
244.3320887605
  0
ENDSEC
  0
SECTION
  2
OBJECTS
  0
DICTIONARY
  5
C
330
0
100
AcDbDictionary
281
     1
  3
ACAD_GROUP
350
D
  3
ACAD_LAYOUT
350
1A
  3
ACAD_MLINESTYLE
350
17
  3
ACAD_PLOTSETTINGS
350
19
  3
ACAD_PLOTSTYLENAME
350
E
  3
ACAD_SCALELIST
350
47
  0
DICTIONARY
  5
D
102
{ACAD_REACTORS
330
C
102
}
330
C
100
AcDbDictionary
281
     1
  0
DICTIONARY
  5
1A
102
{ACAD_REACTORS
330
C
102
}
330
C
100
AcDbDictionary
281
     1
  3
Layout1
350
1E
  3
Layout2
350
26
  3
Model
350
22
  0
DICTIONARY
  5
17
102
{ACAD_REACTORS
330
C
102
}
330
C
100
AcDbDictionary
281
     1
  3
Standard
350
18
  0
DICTIONARY
  5
19
102
{ACAD_REACTORS
330
C
102
}
330
C
100
AcDbDictionary
281
     1
  0
ACDBDICTIONARYWDFLT
  5
E
102
{ACAD_REACTORS
330
C
102
}
330
C
100
AcDbDictionary
281
     1
  3
Normal
350
F
100
AcDbDictionaryWithDefault
340
F
  0
DICTIONARY
  5
47
102
{ACAD_REACTORS
330
C
102
}
330
C
100
AcDbDictionary
281
     1
  3
A0
350
48
  3
A1
350
49
  3
A2
350
4A
  3
A3
350
4B
  3
A4
350
4C
  3
A5
350
4D
  3
A6
350
4E
  3
A7
350
4F
  3
A8
350
50
  3
A9
350
51
  3
B0
350
52
  3
B1
350
53
  3
B2
350
54
  3
B3
350
55
  3
B4
350
56
  3
B5
350
57
  3
B6
350
58
  3
B7
350
59
  3
B8
350
5A
  3
B9
350
5B
  3
C0
350
5C
  3
C1
350
5D
  3
C2
350
5E
  3
C3
350
5F
  3
C4
350
60
  3
C5
350
61
  3
C6
350
62
  3
C7
350
63
  3
C8
350
64
  3
C9
350
65
  3
D0
350
66
  3
D1
350
67
  3
D2
350
68
  0
LAYOUT
  5
1E
102
{ACAD_REACTORS
330
1A
102
}
330
1A
100
AcDbPlotSettings
  1

  2
none_device
  4

  6

 40
0.0
 41
0.0
 42
0.0
 43
0.0
 44
0.0
 45
0.0
 46
0.0
 47
0.0
 48
0.0
 49
0.0
140
0.0
141
0.0
142
1.0
143
1.0
 70
   688
 72
     1
 73
     0
 74
     5
  7

 75
    16
147
1.0
148
0.0
149
0.0
100
AcDbLayout
  1
Layout1
 70
     1
 71
     1
 10
0.0
 20
0.0
 11
420.0
 21
297.0
 12
0.0
 22
0.0
 32
0.0
 14
1.0000000000E+20
 24
1.0000000000E+20
 34
1.0000000000E+20
 15
-1.0000000000E+20
 25
-1.0000000000E+20
 35
-1.0000000000E+20
146
0.0
 13
0.0
 23
0.0
 33
0.0
 16
1.0
 26
0.0
 36
0.0
 17
0.0
 27
1.0
 37
0.0
 76
     0
330
1B
  0
LAYOUT
  5
26
102
{ACAD_REACTORS
330
1A
102
}
330
1A
100
AcDbPlotSettings
  1

  2
none_device
  4

  6

 40
0.0
 41
0.0
 42
0.0
 43
0.0
 44
0.0
 45
0.0
 46
0.0
 47
0.0
 48
0.0
 49
0.0
140
0.0
141
0.0
142
1.0
143
1.0
 70
   688
 72
     1
 73
     0
 74
     5
  7

 75
    16
147
1.0
148
0.0
149
0.0
100
AcDbLayout
  1
Layout2
 70
     1
 71
     2
 10
0.0
 20
0.0
 11
0.0
 21
0.0
 12
0.0
 22
0.0
 32
0.0
 14
0.0
 24
0.0
 34
0.0
 15
0.0
 25
0.0
 35
0.0
146
0.0
 13
0.0
 23
0.0
 33
0.0
 16
1.0
 26
0.0
 36
0.0
 17
0.0
 27
1.0
 37
0.0
 76
     0
330
23
  0
LAYOUT
  5
22
102
{ACAD_REACTORS
330
1A
102
}
330
1A
100
AcDbPlotSettings
  1

  2
none_device
  4
Letter_(8.50_x_11.00_Inches)
  6

 40
6.35
 41
6.35
 42
6.35000508
 43
6.35000508
 44
215.9
 45
279.4
 46
0.0
 47
0.0
 48
0.0
 49
0.0
140
0.0
141
0.0
142
1.0
143
1.0
 70
  1712
 72
     1
 73
     0
 74
     0
  7

 75
     0
147
1.0
148
0.0
149
0.0
100
AcDbLayout
  1
Model
 70
     1
 71
     0
 10
0.0
 20
0.0
 11
210.0
 21
297.0
 12
0.0
 22
0.0
 32
0.0
 14
0.0
 24
0.0
 34
0.0
 15
210.0
 25
297.0
 35
0.0
146
0.0
 13
0.0
 23
0.0
 33
0.0
 16
1.0
 26
0.0
 36
0.0
 17
0.0
 27
1.0
 37
0.0
 76
     0
330
1F
331
29
  0
MLINESTYLE
  5
18
102
{ACAD_REACTORS
330
17
102
}
330
17
100
AcDbMlineStyle
  2
Standard
 70
     0
  3

 62
   256
 51
90.0
 52
90.0
 71
     2
 49
0.5
 62
   256
  6
BYLAYER
 49
-0.5
 62
   256
  6
BYLAYER
  0
ACDBPLACEHOLDER
  5
F
102
{ACAD_REACTORS
330
E
102
}
330
E
  0
SCALE
  5
48
102
{ACAD_REACTORS
330
47
102
}
330
47
100
AcDbScale
 70
     0
300
1:1
140
1.0
141
1.0
290
     1
  0
SCALE
  5
49
102
{ACAD_REACTORS
330
47
102
}
330
47
100
AcDbScale
 70
     0
300
1:2
140
1.0
141
2.0
290
     0
  0
SCALE
  5
4A
102
{ACAD_REACTORS
330
47
102
}
330
47
100
AcDbScale
 70
     0
300
1:4
140
1.0
141
4.0
290
     0
  0
SCALE
  5
4B
102
{ACAD_REACTORS
330
47
102
}
330
47
100
AcDbScale
 70
     0
300
1:5
140
1.0
141
5.0
290
     0
  0
SCALE
  5
4C
102
{ACAD_REACTORS
330
47
102
}
330
47
100
AcDbScale
 70
     0
300
1:8
140
1.0
141
8.0
290
     0
  0
SCALE
  5
4D
102
{ACAD_REACTORS
330
47
102
}
330
47
100
AcDbScale
 70
     0
300
1:10
140
1.0
141
10.0
290
     0
  0
SCALE
  5
4E
102
{ACAD_REACTORS
330
47
102
}
330
47
100
AcDbScale
 70
     0
300
1:16
140
1.0
141
16.0
290
     0
  0
SCALE
  5
4F
102
{ACAD_REACTORS
330
47
102
}
330
47
100
AcDbScale
 70
     0
300
1:20
140
1.0
141
20.0
290
     0
  0
SCALE
  5
50
102
{ACAD_REACTORS
330
47
102
}
330
47
100
AcDbScale
 70
     0
300
1:30
140
1.0
141
30.0
290
     0
  0
SCALE
  5
51
102
{ACAD_REACTORS
330
47
102
}
330
47
100
AcDbScale
 70
     0
300
1:40
140
1.0
141
40.0
290
     0
  0
SCALE
  5
52
102
{ACAD_REACTORS
330
47
102
}
330
47
100
AcDbScale
 70
     0
300
1:50
140
1.0
141
50.0
290
     0
  0
SCALE
  5
53
102
{ACAD_REACTORS
330
47
102
}
330
47
100
AcDbScale
 70
     0
300
1:100
140
1.0
141
100.0
290
     0
  0
SCALE
  5
54
102
{ACAD_REACTORS
330
47
102
}
330
47
100
AcDbScale
 70
     0
300
2:1
140
2.0
141
1.0
290
     0
  0
SCALE
  5
55
102
{ACAD_REACTORS
330
47
102
}
330
47
100
AcDbScale
 70
     0
300
4:1
140
4.0
141
1.0
290
     0
  0
SCALE
  5
56
102
{ACAD_REACTORS
330
47
102
}
330
47
100
AcDbScale
 70
     0
300
8:1
140
8.0
141
1.0
290
     0
  0
SCALE
  5
57
102
{ACAD_REACTORS
330
47
102
}
330
47
100
AcDbScale
 70
     0
300
10:1
140
10.0
141
1.0
290
     0
  0
SCALE
  5
58
102
{ACAD_REACTORS
330
47
102
}
330
47
100
AcDbScale
 70
     0
300
100:1
140
100.0
141
1.0
290
     0
  0
SCALE
  5
59
102
{ACAD_REACTORS
330
47
102
}
330
47
100
AcDbScale
 70
     0
300
1/128" = 1'-0"
140
0.0078125
141
12.0
290
     0
  0
SCALE
  5
5A
102
{ACAD_REACTORS
330
47
102
}
330
47
100
AcDbScale
 70
     0
300
1/64" = 1'-0"
140
0.015625
141
12.0
290
     0
  0
SCALE
  5
5B
102
{ACAD_REACTORS
330
47
102
}
330
47
100
AcDbScale
 70
     0
300
1/32" = 1'-0"
140
0.03125
141
12.0
290
     0
  0
SCALE
  5
5C
102
{ACAD_REACTORS
330
47
102
}
330
47
100
AcDbScale
 70
     0
300
1/16" = 1'-0"
140
0.0625
141
12.0
290
     0
  0
SCALE
  5
5D
102
{ACAD_REACTORS
330
47
102
}
330
47
100
AcDbScale
 70
     0
300
3/32" = 1'-0"
140
0.09375
141
12.0
290
     0
  0
SCALE
  5
5E
102
{ACAD_REACTORS
330
47
102
}
330
47
100
AcDbScale
 70
     0
300
1/8" = 1'-0"
140
0.125
141
12.0
290
     0
  0
SCALE
  5
5F
102
{ACAD_REACTORS
330
47
102
}
330
47
100
AcDbScale
 70
     0
300
3/16" = 1'-0"
140
0.1875
141
12.0
290
     0
  0
SCALE
  5
60
102
{ACAD_REACTORS
330
47
102
}
330
47
100
AcDbScale
 70
     0
300
1/4" = 1'-0"
140
0.25
141
12.0
290
     0
  0
SCALE
  5
61
102
{ACAD_REACTORS
330
47
102
}
330
47
100
AcDbScale
 70
     0
300
3/8" = 1'-0"
140
0.375
141
12.0
290
     0
  0
SCALE
  5
62
102
{ACAD_REACTORS
330
47
102
}
330
47
100
AcDbScale
 70
     0
300
1/2" = 1'-0"
140
0.5
141
12.0
290
     0
  0
SCALE
  5
63
102
{ACAD_REACTORS
330
47
102
}
330
47
100
AcDbScale
 70
     0
300
3/4" = 1'-0"
140
0.75
141
12.0
290
     0
  0
SCALE
  5
64
102
{ACAD_REACTORS
330
47
102
}
330
47
100
AcDbScale
 70
     0
300
1" = 1'-0"
140
1.0
141
12.0
290
     0
  0
SCALE
  5
65
102
{ACAD_REACTORS
330
47
102
}
330
47
100
AcDbScale
 70
     0
300
1-1/2" = 1'-0"
140
1.5
141
12.0
290
     0
  0
SCALE
  5
66
102
{ACAD_REACTORS
330
47
102
}
330
47
100
AcDbScale
 70
     0
300
3" = 1'-0"
140
3.0
141
12.0
290
     0
  0
SCALE
  5
67
102
{ACAD_REACTORS
330
47
102
}
330
47
100
AcDbScale
 70
     0
300
6" = 1'-0"
140
6.0
141
12.0
290
     0
  0
SCALE
  5
68
102
{ACAD_REACTORS
330
47
102
}
330
47
100
AcDbScale
 70
     0
300
1'-0" = 1'-0"
140
12.0
141
12.0
290
     0
  0
ENDSEC
  0
EOF
